<svg width="49" height="50" viewBox="0 0 49 50" fill="none" xmlns="http://www.w3.org/2000/svg">
<g id="speech-bubble 2">
<path id="Vector" d="M24.5 12.1885C23.9718 12.1885 23.543 12.6173 23.543 13.1455C23.543 13.6737 23.9718 14.1025 24.5 14.1025C25.0282 14.1025 25.457 13.6737 25.457 13.1455C25.457 12.6173 25.0282 12.1885 24.5 12.1885Z" fill="#AD89DC"/>
<path id="Vector_2" d="M8.61328 29.415C9.14152 29.415 9.57031 28.9862 9.57031 28.458C9.57031 27.9298 9.14152 27.501 8.61328 27.501C8.08504 27.501 7.65625 27.9298 7.65625 28.458C7.65625 28.9862 8.08504 29.415 8.61328 29.415Z" fill="#AD89DC"/>
<path id="Vector_3" d="M32.1562 2.61816C23.5404 2.61816 16.4688 8.55849 15.9219 16.0409C7.71644 16.4525 0 22.3693 0 30.3721C0 33.7164 1.32339 36.9569 3.73242 39.5244C4.20907 41.4893 3.63036 43.572 2.19444 45.0079C1.92079 45.2816 1.83892 45.6932 1.98696 46.0509C2.135 46.4083 2.4838 46.6416 2.87109 46.6416C5.6005 46.6416 8.23084 45.5713 10.1853 43.6853C12.0892 44.3343 14.5734 44.7275 16.8438 44.7275C25.4585 44.7275 32.5293 38.7887 33.0778 31.3078C35.0816 31.2188 37.1657 30.8487 38.8147 30.2868C40.7692 32.1729 43.3995 33.2432 46.1289 33.2432C46.5162 33.2432 46.865 33.0099 47.013 32.6525C47.1611 32.2947 47.0792 31.8831 46.8056 31.6095C45.3696 30.1736 44.7909 28.0909 45.2676 26.126C47.6766 23.5585 49 20.318 49 16.9736C49 8.6583 40.6892 2.61816 32.1562 2.61816ZM16.8438 42.8135C14.585 42.8135 12.0111 42.3701 10.287 41.6841C9.91761 41.5368 9.49554 41.6336 9.22675 41.9271C8.07121 43.1903 6.56875 44.0711 4.9317 44.4759C5.83378 42.7477 6.06406 40.7103 5.51527 38.7797C5.4719 38.6276 5.39153 38.4885 5.28124 38.3752C3.10998 36.1389 1.91406 33.2966 1.91406 30.3721C1.91406 23.628 8.75085 17.9307 16.8438 17.9307C24.4858 17.9307 31.1992 23.2448 31.1992 30.3721C31.1992 37.2324 24.7594 42.8135 16.8438 42.8135ZM43.7188 24.9768C43.6085 25.0905 43.5281 25.2295 43.4847 25.3813C42.9359 27.3118 43.1662 29.3492 44.0683 31.0775C42.4313 30.673 40.9288 29.7919 39.7732 28.5287C39.5045 28.2356 39.0824 28.1384 38.713 28.2857C37.2188 28.8801 35.0872 29.2917 33.0748 29.3911C32.7951 25.772 30.9899 22.3704 27.9034 19.8447H40.3867C40.9153 19.8447 41.3438 19.4163 41.3438 18.8877C41.3438 18.3591 40.9153 17.9307 40.3867 17.9307H24.9632C22.7908 16.8248 20.3515 16.18 17.8408 16.0446C18.3907 9.61683 24.6013 4.53223 32.1562 4.53223C40.2491 4.53223 47.0859 10.2296 47.0859 16.9736C47.0859 19.8982 45.89 22.7405 43.7188 24.9768Z" fill="#AD89DC"/>
<path id="Vector_4" d="M24.5 27.501H12.4414C11.9128 27.501 11.4844 27.9294 11.4844 28.458C11.4844 28.9866 11.9128 29.415 12.4414 29.415H24.5C25.0286 29.415 25.457 28.9866 25.457 28.458C25.457 27.9294 25.0286 27.501 24.5 27.501Z" fill="#AD89DC"/>
<path id="Vector_5" d="M24.5 33.2432H8.61328C8.08467 33.2432 7.65625 33.6716 7.65625 34.2002C7.65625 34.7288 8.08467 35.1572 8.61328 35.1572H24.5C25.0286 35.1572 25.457 34.7288 25.457 34.2002C25.457 33.6716 25.0286 33.2432 24.5 33.2432Z" fill="#AD89DC"/>
<path id="Vector_6" d="M40.3867 12.1885H28.3281C27.7995 12.1885 27.3711 12.6169 27.3711 13.1455C27.3711 13.6741 27.7995 14.1025 28.3281 14.1025H40.3867C40.9153 14.1025 41.3438 13.6741 41.3438 13.1455C41.3438 12.6169 40.9153 12.1885 40.3867 12.1885Z" fill="#AD89DC"/>
</g>
</svg>
