<svg width="104" height="20" viewBox="0 0 104 20" fill="none" xmlns="http://www.w3.org/2000/svg">
<g id="Group 1000003631">
<g id="Vector">
<path d="M10 0.129883L13.09 6.38988L20 7.39988L15 12.2699L16.18 19.1499L10 15.8999L3.82 19.1499L5 12.2699L0 7.39988L6.91 6.38988L10 0.129883Z" fill="url(#paint0_linear_405_65)"/>
<path d="M38 0.129883L41.09 6.38988L48 7.39988L43 12.2699L44.18 19.1499L38 15.8999L31.82 19.1499L33 12.2699L28 7.39988L34.91 6.38988L38 0.129883Z" fill="url(#paint1_linear_405_65)"/>
<path d="M66 0.129883L69.09 6.38988L76 7.39988L71 12.2699L72.18 19.1499L66 15.8999L59.82 19.1499L61 12.2699L56 7.39988L62.91 6.38988L66 0.129883Z" fill="url(#paint2_linear_405_65)"/>
<path d="M94 0.129883L97.09 6.38988L104 7.39988L99 12.2699L100.18 19.1499L94 15.8999L87.82 19.1499L89 12.2699L84 7.39988L90.91 6.38988L94 0.129883Z" fill="url(#paint3_linear_405_65)"/>
</g>
</g>
<defs>
<linearGradient id="paint0_linear_405_65" x1="5.28125" y1="12.1299" x2="100.75" y2="12.1299" gradientUnits="userSpaceOnUse">
<stop stop-color="#BDA1E3"/>
<stop offset="0.479167" stop-color="#D1BCEB"/>
<stop offset="1" stop-color="#E6DAF4"/>
</linearGradient>
<linearGradient id="paint1_linear_405_65" x1="5.28125" y1="12.1299" x2="100.75" y2="12.1299" gradientUnits="userSpaceOnUse">
<stop stop-color="#BDA1E3"/>
<stop offset="0.479167" stop-color="#D1BCEB"/>
<stop offset="1" stop-color="#E6DAF4"/>
</linearGradient>
<linearGradient id="paint2_linear_405_65" x1="5.28125" y1="12.1299" x2="100.75" y2="12.1299" gradientUnits="userSpaceOnUse">
<stop stop-color="#BDA1E3"/>
<stop offset="0.479167" stop-color="#D1BCEB"/>
<stop offset="1" stop-color="#E6DAF4"/>
</linearGradient>
<linearGradient id="paint3_linear_405_65" x1="5.28125" y1="12.1299" x2="100.75" y2="12.1299" gradientUnits="userSpaceOnUse">
<stop stop-color="#BDA1E3"/>
<stop offset="0.479167" stop-color="#D1BCEB"/>
<stop offset="1" stop-color="#E6DAF4"/>
</linearGradient>
</defs>
</svg>
