<svg width="53" height="78" viewBox="0 0 53 78" fill="none" xmlns="http://www.w3.org/2000/svg">
<path d="M26.0514 0.9C40.234 0.9 51.7028 11.9292 51.7028 25.5C51.7028 39.0708 40.234 50.1 26.0514 50.1C11.8688 50.1 0.4 39.0708 0.4 25.5C0.4 11.9292 11.8688 0.9 26.0514 0.9Z" stroke="url(#paint0_linear_486_2738)" stroke-width="0.8"/>
<path d="M26.0428 4.13301C38.3969 4.13301 48.3891 13.7116 48.3891 25.4997C48.3891 37.2878 38.3969 46.8663 26.0428 46.8663C13.6886 46.8663 3.69648 37.2878 3.69648 25.4997C3.69648 13.7116 13.6886 4.13301 26.0428 4.13301Z" stroke="url(#paint1_linear_486_2738)" stroke-width="0.6"/>
<path d="M45.518 25.61C45.518 15.3007 36.7984 6.94336 26.0422 6.94336C15.286 6.94336 6.56641 15.3007 6.56641 25.61C6.56641 35.9193 15.286 44.2767 26.0422 44.2767C36.7984 44.2767 45.518 35.9193 45.518 25.61Z" fill="url(#paint2_linear_486_2738)"/>
<path d="M24.5454 23.5594C24.846 23.5007 25.1357 23.4604 25.4144 23.4384C25.693 23.4164 25.9644 23.4054 26.2284 23.4054C27.0717 23.4054 27.816 23.5337 28.4614 23.7904C29.1067 24.047 29.6494 24.399 30.0894 24.8464C30.5294 25.2864 30.8594 25.807 31.0794 26.4084C31.3067 27.0024 31.4204 27.6404 31.4204 28.3224C31.4204 29.1804 31.2664 29.965 30.9584 30.6764C30.6577 31.3804 30.236 31.989 29.6934 32.5024C29.1507 33.0157 28.5017 33.4154 27.7464 33.7014C26.9984 33.98 26.177 34.1194 25.2824 34.1194C24.7617 34.1194 24.263 34.0644 23.7864 33.9544C23.317 33.8444 22.8734 33.6977 22.4554 33.5144C22.0447 33.3237 21.6634 33.1074 21.3114 32.8654C20.9594 32.616 20.6404 32.352 20.3544 32.0734L21.4104 30.6654C21.5204 30.5187 21.6487 30.4087 21.7954 30.3354C21.942 30.2547 22.0997 30.2144 22.2684 30.2144C22.4884 30.2144 22.6937 30.2767 22.8844 30.4014C23.0824 30.5187 23.295 30.6507 23.5224 30.7974C23.757 30.9367 24.0284 31.065 24.3364 31.1824C24.6444 31.2997 25.0257 31.3584 25.4804 31.3584C25.935 31.3584 26.3237 31.285 26.6464 31.1384C26.969 30.9844 27.2294 30.779 27.4274 30.5224C27.6327 30.2584 27.7794 29.954 27.8674 29.6094C27.9627 29.2574 28.0104 28.8834 28.0104 28.4874C28.0104 27.71 27.7904 27.1197 27.3504 26.7164C26.9104 26.3057 26.287 26.1004 25.4804 26.1004C24.7617 26.1004 24.0577 26.236 23.3684 26.5074L21.2564 25.9354L22.6204 17.9164H30.8264V19.3244C30.8264 19.559 30.7897 19.7717 30.7164 19.9624C30.643 20.153 30.5257 20.3217 30.3644 20.4684C30.2104 20.6077 30.005 20.7177 29.7484 20.7984C29.4917 20.8717 29.1837 20.9084 28.8244 20.9084H24.9964L24.5454 23.5594Z" fill="#141A31"/>
<circle cx="26.0518" cy="68.5" r="9" fill="url(#paint3_linear_486_2738)"/>
<defs>
<linearGradient id="paint0_linear_486_2738" x1="1.09567e-06" y1="3.62499" x2="57.9375" y2="10.4102" gradientUnits="userSpaceOnUse">
<stop stop-color="#9D7DC8"/>
<stop offset="1" stop-color="#386DC6"/>
</linearGradient>
<linearGradient id="paint1_linear_486_2738" x1="3.39649" y1="6.54134" x2="53.7571" y2="12.457" gradientUnits="userSpaceOnUse">
<stop stop-color="#9D7DC8"/>
<stop offset="1" stop-color="#386DC6"/>
</linearGradient>
<linearGradient id="paint2_linear_486_2738" x1="6.56641" y1="9.27669" x2="49.8786" y2="14.3553" gradientUnits="userSpaceOnUse">
<stop stop-color="#AD89DC"/>
<stop offset="1" stop-color="#386DC6"/>
</linearGradient>
<linearGradient id="paint3_linear_486_2738" x1="17.0518" y1="60.625" x2="37.0889" y2="62.8769" gradientUnits="userSpaceOnUse">
<stop stop-color="#9D7DC8"/>
<stop offset="1" stop-color="#386DC6"/>
</linearGradient>
</defs>
</svg>
