<svg width="53" height="77" viewBox="0 0 53 77" fill="none" xmlns="http://www.w3.org/2000/svg">
<path d="M26.0514 0.4C40.234 0.4 51.7028 11.4292 51.7028 25C51.7028 38.5708 40.234 49.6 26.0514 49.6C11.8688 49.6 0.4 38.5708 0.4 25C0.4 11.4292 11.8688 0.4 26.0514 0.4Z" stroke="url(#paint0_linear_486_2717)" stroke-width="0.8"/>
<path d="M26.0428 3.63301C38.3969 3.63301 48.3891 13.2116 48.3891 24.9997C48.3891 36.7878 38.3969 46.3663 26.0428 46.3663C13.6886 46.3663 3.69648 36.7878 3.69648 24.9997C3.69648 13.2116 13.6886 3.63301 26.0428 3.63301Z" stroke="url(#paint1_linear_486_2717)" stroke-width="0.6"/>
<path d="M45.518 25.11C45.518 14.8007 36.7984 6.44336 26.0422 6.44336C15.286 6.44336 6.56641 14.8007 6.56641 25.11C6.56641 35.4193 15.286 43.7767 26.0422 43.7767C36.7984 43.7767 45.518 35.4193 45.518 25.11Z" fill="url(#paint2_linear_486_2717)"/>
<path d="M30.3974 30.3634C30.764 30.3634 31.0537 30.466 31.2664 30.6714C31.479 30.8694 31.5854 31.1334 31.5854 31.4634V33.4434H20.3214V32.3434C20.3214 32.1307 20.3654 31.9034 20.4534 31.6614C20.5414 31.4194 20.6954 31.1994 20.9154 31.0014L25.5354 26.3484C25.9314 25.9524 26.276 25.5747 26.5694 25.2154C26.8627 24.856 27.1047 24.504 27.2954 24.1594C27.486 23.8074 27.629 23.459 27.7244 23.1144C27.8197 22.7624 27.8674 22.392 27.8674 22.0034C27.8674 21.3654 27.7134 20.8777 27.4054 20.5404C27.1047 20.1957 26.6427 20.0234 26.0194 20.0234C25.5134 20.0234 25.0844 20.159 24.7324 20.4304C24.3877 20.6944 24.1494 21.0244 24.0174 21.4204C23.8634 21.8237 23.6617 22.0914 23.4124 22.2234C23.163 22.3554 22.8074 22.3847 22.3454 22.3114L20.5414 21.9924C20.6587 21.193 20.8824 20.4964 21.2124 19.9024C21.5497 19.3084 21.964 18.8134 22.4554 18.4174C22.954 18.0214 23.5224 17.728 24.1604 17.5374C24.7984 17.3394 25.484 17.2404 26.2174 17.2404C27.0094 17.2404 27.7207 17.3577 28.3514 17.5924C28.9894 17.8197 29.532 18.1387 29.9794 18.5494C30.4267 18.96 30.7677 19.4514 31.0024 20.0234C31.2444 20.588 31.3654 21.2114 31.3654 21.8934C31.3654 22.48 31.281 23.0227 31.1124 23.5214C30.951 24.02 30.7274 24.4967 30.4414 24.9514C30.1554 25.3987 29.8217 25.835 29.4404 26.2604C29.0664 26.6784 28.6667 27.1037 28.2414 27.5364L25.1064 30.7484C25.5097 30.6237 25.9094 30.5284 26.3054 30.4624C26.7014 30.3964 27.068 30.3634 27.4054 30.3634H30.3974Z" fill="#141A31"/>
<circle cx="26.0518" cy="68" r="9" fill="url(#paint3_linear_486_2717)"/>
<defs>
<linearGradient id="paint0_linear_486_2717" x1="1.09567e-06" y1="3.12499" x2="57.9375" y2="9.91016" gradientUnits="userSpaceOnUse">
<stop stop-color="#9D7DC8"/>
<stop offset="1" stop-color="#386DC6"/>
</linearGradient>
<linearGradient id="paint1_linear_486_2717" x1="3.39649" y1="6.04134" x2="53.7571" y2="11.957" gradientUnits="userSpaceOnUse">
<stop stop-color="#9D7DC8"/>
<stop offset="1" stop-color="#386DC6"/>
</linearGradient>
<linearGradient id="paint2_linear_486_2717" x1="6.56641" y1="8.77669" x2="49.8786" y2="13.8553" gradientUnits="userSpaceOnUse">
<stop stop-color="#AD89DC"/>
<stop offset="1" stop-color="#386DC6"/>
</linearGradient>
<linearGradient id="paint3_linear_486_2717" x1="17.0518" y1="60.125" x2="37.0889" y2="62.3769" gradientUnits="userSpaceOnUse">
<stop stop-color="#9D7DC8"/>
<stop offset="1" stop-color="#386DC6"/>
</linearGradient>
</defs>
</svg>
