<svg width="53" height="77" viewBox="0 0 53 77" fill="none" xmlns="http://www.w3.org/2000/svg">
<path d="M26.0514 0.4C40.234 0.4 51.7028 11.4292 51.7028 25C51.7028 38.5708 40.234 49.6 26.0514 49.6C11.8688 49.6 0.4 38.5708 0.4 25C0.4 11.4292 11.8688 0.4 26.0514 0.4Z" stroke="url(#paint0_linear_486_2724)" stroke-width="0.8"/>
<path d="M26.0428 3.63301C38.3969 3.63301 48.3891 13.2116 48.3891 24.9997C48.3891 36.7878 38.3969 46.3663 26.0428 46.3663C13.6886 46.3663 3.69648 36.7878 3.69648 24.9997C3.69648 13.2116 13.6886 3.63301 26.0428 3.63301Z" stroke="url(#paint1_linear_486_2724)" stroke-width="0.6"/>
<path d="M45.518 25.11C45.518 14.8007 36.7984 6.44336 26.0422 6.44336C15.286 6.44336 6.56641 14.8007 6.56641 25.11C6.56641 35.4193 15.286 43.7767 26.0422 43.7767C36.7984 43.7767 45.518 35.4193 45.518 25.11Z" fill="url(#paint2_linear_486_2724)"/>
<path d="M20.6294 21.9924C20.7467 21.193 20.9704 20.4964 21.3004 19.9024C21.6377 19.3084 22.052 18.8134 22.5434 18.4174C23.042 18.0214 23.6104 17.728 24.2484 17.5374C24.8864 17.3394 25.572 17.2404 26.3054 17.2404C27.0974 17.2404 27.8014 17.354 28.4174 17.5814C29.0334 17.8014 29.554 18.102 29.9794 18.4834C30.4047 18.8647 30.7274 19.3084 30.9474 19.8144C31.1674 20.313 31.2774 20.841 31.2774 21.3984C31.2774 21.9044 31.226 22.3517 31.1234 22.7404C31.0207 23.1217 30.8667 23.4554 30.6614 23.7414C30.4634 24.02 30.214 24.2584 29.9134 24.4564C29.62 24.647 29.2827 24.8084 28.9014 24.9404C30.676 25.5637 31.5634 26.7737 31.5634 28.5704C31.5634 29.421 31.4094 30.1617 31.1014 30.7924C30.7934 31.423 30.379 31.9474 29.8584 32.3654C29.345 32.7834 28.7474 33.0987 28.0654 33.3114C27.3834 33.5167 26.672 33.6194 25.9314 33.6194C25.1687 33.6194 24.4904 33.5387 23.8964 33.3774C23.3024 33.2087 22.7744 32.952 22.3124 32.6074C21.8504 32.2554 21.4434 31.808 21.0914 31.2654C20.7467 30.7227 20.446 30.0774 20.1894 29.3294L21.7074 28.7134C22.1034 28.5594 22.47 28.519 22.8074 28.5924C23.1447 28.6657 23.3867 28.8344 23.5334 29.0984C23.8634 29.707 24.2117 30.1507 24.5784 30.4294C24.9524 30.7007 25.3887 30.8364 25.8874 30.8364C26.2687 30.8364 26.5987 30.774 26.8774 30.6494C27.1634 30.5174 27.398 30.3524 27.5814 30.1544C27.772 29.949 27.915 29.718 28.0104 29.4614C28.1057 29.2047 28.1534 28.9444 28.1534 28.6804C28.1534 28.3357 28.1277 28.0277 28.0764 27.7564C28.0324 27.4777 27.9004 27.2394 27.6804 27.0414C27.4604 26.8434 27.1267 26.693 26.6794 26.5904C26.2394 26.4804 25.6234 26.4254 24.8314 26.4254V24.0714C25.4987 24.0714 26.0377 24.02 26.4484 23.9174C26.859 23.8147 27.1744 23.6754 27.3944 23.4994C27.6217 23.316 27.772 23.096 27.8454 22.8394C27.9187 22.5827 27.9554 22.3004 27.9554 21.9924C27.9554 21.3617 27.8014 20.8777 27.4934 20.5404C27.1927 20.1957 26.7307 20.0234 26.1074 20.0234C25.6014 20.0234 25.1724 20.159 24.8204 20.4304C24.4757 20.6944 24.2374 21.0244 24.1054 21.4204C23.9514 21.8237 23.7497 22.0914 23.5004 22.2234C23.251 22.3554 22.8954 22.3847 22.4334 22.3114L20.6294 21.9924Z" fill="#141A31"/>
<circle cx="26.0518" cy="68" r="9" fill="url(#paint3_linear_486_2724)"/>
<defs>
<linearGradient id="paint0_linear_486_2724" x1="1.09567e-06" y1="3.12499" x2="57.9375" y2="9.91016" gradientUnits="userSpaceOnUse">
<stop stop-color="#9D7DC8"/>
<stop offset="1" stop-color="#386DC6"/>
</linearGradient>
<linearGradient id="paint1_linear_486_2724" x1="3.39649" y1="6.04134" x2="53.7571" y2="11.957" gradientUnits="userSpaceOnUse">
<stop stop-color="#9D7DC8"/>
<stop offset="1" stop-color="#386DC6"/>
</linearGradient>
<linearGradient id="paint2_linear_486_2724" x1="6.56641" y1="8.77669" x2="49.8786" y2="13.8553" gradientUnits="userSpaceOnUse">
<stop stop-color="#AD89DC"/>
<stop offset="1" stop-color="#386DC6"/>
</linearGradient>
<linearGradient id="paint3_linear_486_2724" x1="17.0518" y1="60.125" x2="37.0889" y2="62.3769" gradientUnits="userSpaceOnUse">
<stop stop-color="#9D7DC8"/>
<stop offset="1" stop-color="#386DC6"/>
</linearGradient>
</defs>
</svg>
