<svg width="53" height="77" viewBox="0 0 53 77" fill="none" xmlns="http://www.w3.org/2000/svg">
<path d="M26.0514 0.4C40.234 0.4 51.7028 11.4292 51.7028 25C51.7028 38.5708 40.234 49.6 26.0514 49.6C11.8688 49.6 0.4 38.5708 0.4 25C0.4 11.4292 11.8688 0.4 26.0514 0.4Z" stroke="url(#paint0_linear_486_2745)" stroke-width="0.8"/>
<path d="M26.0428 3.63301C38.3969 3.63301 48.3891 13.2116 48.3891 24.9997C48.3891 36.7878 38.3969 46.3663 26.0428 46.3663C13.6886 46.3663 3.69648 36.7878 3.69648 24.9997C3.69648 13.2116 13.6886 3.63301 26.0428 3.63301Z" stroke="url(#paint1_linear_486_2745)" stroke-width="0.6"/>
<path d="M45.518 25.11C45.518 14.8007 36.7984 6.44336 26.0422 6.44336C15.286 6.44336 6.56641 14.8007 6.56641 25.11C6.56641 35.4193 15.286 43.7767 26.0422 43.7767C36.7984 43.7767 45.518 35.4193 45.518 25.11Z" fill="url(#paint2_linear_486_2745)"/>
<path d="M26.0194 30.9244C26.3714 30.9244 26.6977 30.8584 26.9984 30.7264C27.3064 30.5944 27.5704 30.4147 27.7904 30.1874C28.0104 29.9527 28.1827 29.6814 28.3074 29.3734C28.4394 29.058 28.5054 28.717 28.5054 28.3504C28.5054 27.9397 28.443 27.573 28.3184 27.2504C28.201 26.9277 28.0324 26.6564 27.8124 26.4364C27.5924 26.2164 27.3247 26.0477 27.0094 25.9304C26.7014 25.813 26.3567 25.7544 25.9754 25.7544C25.6307 25.7544 25.3154 25.8167 25.0294 25.9414C24.7434 26.0587 24.494 26.231 24.2814 26.4584C24.076 26.6857 23.9147 26.957 23.7974 27.2724C23.68 27.5877 23.6214 27.9434 23.6214 28.3394C23.6214 28.7354 23.669 29.091 23.7644 29.4064C23.8597 29.7217 24.0064 29.993 24.2044 30.2204C24.4024 30.4477 24.6517 30.6237 24.9524 30.7484C25.253 30.8657 25.6087 30.9244 26.0194 30.9244ZM25.4694 23.5764C25.9827 23.3857 26.5547 23.2904 27.1854 23.2904C27.7647 23.2904 28.3367 23.3857 28.9014 23.5764C29.466 23.767 29.972 24.0604 30.4194 24.4564C30.8667 24.8524 31.226 25.3547 31.4974 25.9634C31.776 26.5647 31.9154 27.276 31.9154 28.0974C31.9154 28.8454 31.776 29.5567 31.4974 30.2314C31.2187 30.8987 30.8227 31.4854 30.3094 31.9914C29.8034 32.49 29.191 32.886 28.4724 33.1794C27.7537 33.4727 26.958 33.6194 26.0854 33.6194C25.1907 33.6194 24.3877 33.48 23.6764 33.2014C22.965 32.9154 22.36 32.5194 21.8614 32.0134C21.37 31.5074 20.9924 30.9024 20.7284 30.1984C20.4717 29.4944 20.3434 28.7207 20.3434 27.8774C20.3434 26.3007 20.952 24.6984 22.1694 23.0704L25.7774 18.1974C25.946 17.9847 26.188 17.8014 26.5034 17.6474C26.826 17.4934 27.1927 17.4164 27.6034 17.4164H30.6394L25.8874 23.0924L25.4694 23.5764Z" fill="#141A31"/>
<circle cx="26.0518" cy="68" r="9" fill="url(#paint3_linear_486_2745)"/>
<defs>
<linearGradient id="paint0_linear_486_2745" x1="1.09567e-06" y1="3.12499" x2="57.9375" y2="9.91016" gradientUnits="userSpaceOnUse">
<stop stop-color="#9D7DC8"/>
<stop offset="1" stop-color="#386DC6"/>
</linearGradient>
<linearGradient id="paint1_linear_486_2745" x1="3.39649" y1="6.04134" x2="53.7571" y2="11.957" gradientUnits="userSpaceOnUse">
<stop stop-color="#9D7DC8"/>
<stop offset="1" stop-color="#386DC6"/>
</linearGradient>
<linearGradient id="paint2_linear_486_2745" x1="6.56641" y1="8.77669" x2="49.8786" y2="13.8553" gradientUnits="userSpaceOnUse">
<stop stop-color="#AD89DC"/>
<stop offset="1" stop-color="#386DC6"/>
</linearGradient>
<linearGradient id="paint3_linear_486_2745" x1="17.0518" y1="60.125" x2="37.0889" y2="62.3769" gradientUnits="userSpaceOnUse">
<stop stop-color="#9D7DC8"/>
<stop offset="1" stop-color="#386DC6"/>
</linearGradient>
</defs>
</svg>
