<svg width="90" height="90" viewBox="0 0 90 90" fill="none" xmlns="http://www.w3.org/2000/svg">
<g id="fi_4167861">
<path id="Vector" d="M85.2462 75.9375C85.5148 75.9372 85.7776 75.859 86.0031 75.7122C86.2287 75.5655 86.4074 75.3565 86.518 75.1103C86.6286 74.864 86.6663 74.5908 86.6266 74.3236C86.587 74.0563 86.4716 73.8062 86.2943 73.6031L81.4171 67.9781C81.2862 67.8281 81.125 67.7079 80.9443 67.6255C80.7635 67.543 80.5675 67.5003 80.369 67.5H70.5867C70.3428 67.5015 70.1036 67.5672 69.8927 67.6905C69.6819 67.8139 69.5068 67.9906 69.3849 68.2031L67.3446 71.7188H60.0916V68.9062C60.0916 68.5333 59.9444 68.1756 59.6823 67.9119C59.4203 67.6482 59.0648 67.5 58.6942 67.5H56.6958C56.5571 67.0807 56.389 66.6719 56.1927 66.2766L57.702 64.7578C57.8315 64.6264 57.934 64.4706 58.0035 64.2992C58.073 64.1279 58.1083 63.9444 58.1072 63.7594C58.1083 63.5743 58.073 63.3908 58.0035 63.2195C57.934 63.0482 57.8315 62.8923 57.702 62.7609L53.7331 58.7953C53.4713 58.5334 53.1171 58.3864 52.7479 58.3864C52.3787 58.3864 52.0245 58.5334 51.7627 58.7953L50.3652 60.2016C49.9154 59.9154 49.4487 59.6571 48.9677 59.4281V57.6562C48.9677 57.2833 48.8205 56.9256 48.5584 56.6619C48.2963 56.3982 47.9409 56.25 47.5703 56.25H41.9244C41.5538 56.25 41.1984 56.3982 40.9363 56.6619C40.6742 56.9256 40.527 57.2833 40.527 57.6562V59.5125C40.1116 59.7255 39.7101 59.965 39.3251 60.2297L37.9277 58.8234C37.6658 58.5615 37.3116 58.4145 36.9424 58.4145C36.5733 58.4145 36.2191 58.5615 35.9572 58.8234L31.9884 62.7891C31.8589 62.9205 31.7564 63.0763 31.6869 63.2476C31.6173 63.419 31.5821 63.6024 31.5831 63.7875C31.5821 63.9726 31.6173 64.156 31.6869 64.3274C31.7564 64.4987 31.8589 64.6545 31.9884 64.7859L33.4977 66.3047C33.3014 66.7 33.1332 67.1088 32.9946 67.5281H30.7446C30.374 67.5281 30.0186 67.6763 29.7565 67.94C29.4944 68.2037 29.3472 68.5614 29.3472 68.9344V71.7469H22.0943L20.04 68.2313C19.918 68.0187 19.7429 67.842 19.5321 67.7186C19.3213 67.5953 19.082 67.5296 18.8381 67.5281H9.0558C8.85738 67.5284 8.66129 67.5711 8.48057 67.6536C8.29985 67.736 8.13865 67.8562 8.0077 68.0063L3.1305 73.6313C2.96115 73.8358 2.853 74.0846 2.81862 74.3486C2.78424 74.6126 2.82505 74.881 2.9363 75.1226C3.04756 75.3642 3.22468 75.569 3.44707 75.7133C3.66947 75.8575 3.928 75.9353 4.19258 75.9375H13.9749V78.75H4.19258C3.92402 78.7503 3.66125 78.8285 3.4357 78.9753C3.21016 79.122 3.0314 79.331 2.92083 79.5772C2.81025 79.8235 2.77254 80.0967 2.8122 80.3639C2.85186 80.6312 2.96723 80.8813 3.14448 81.0844L8.02167 86.7094C8.15263 86.8594 8.31383 86.9796 8.49455 87.062C8.67527 87.1445 8.87136 87.1872 9.06978 87.1875H18.8521C19.096 87.186 19.3352 87.1203 19.5461 86.997C19.7569 86.8736 19.932 86.6969 20.0539 86.4844L22.0943 82.9688H34.2383L35.9153 84.6422C36.1771 84.9041 36.5313 85.0511 36.9005 85.0511C37.2697 85.0511 37.6239 84.9041 37.8857 84.6422L39.2832 83.2359C39.6682 83.5006 40.0696 83.7401 40.4851 83.9531V85.7812C40.4851 86.1542 40.6323 86.5119 40.8944 86.7756C41.1564 87.0393 41.5119 87.1875 41.8825 87.1875H47.4724C47.8431 87.1875 48.1985 87.0393 48.4606 86.7756C48.7227 86.5119 48.8699 86.1542 48.8699 85.7812V83.9531C49.3509 83.7241 49.8176 83.4658 50.2674 83.1797L51.6649 84.5859C51.9267 84.8479 52.2809 84.9949 52.6501 84.9949C53.0193 84.9949 53.3735 84.8479 53.6353 84.5859L55.4101 82.9688H67.3446L69.3988 86.4844C69.5208 86.6969 69.6959 86.8736 69.9067 86.997C70.1175 87.1203 70.3568 87.186 70.6007 87.1875H80.383C80.5814 87.1872 80.7775 87.1445 80.9582 87.062C81.139 86.9796 81.3002 86.8594 81.4311 86.7094L86.3083 81.0844C86.4864 80.8804 86.602 80.629 86.6411 80.3604C86.6803 80.0919 86.6414 79.8176 86.5291 79.5708C86.4168 79.324 86.2359 79.1152 86.0083 78.9695C85.7806 78.8239 85.516 78.7476 85.2462 78.75H75.4639V75.9375H85.2462ZM21.2837 80.1562C21.0398 80.1577 20.8006 80.2234 20.5898 80.3468C20.3789 80.4701 20.2038 80.6468 20.0819 80.8594L18.0276 84.375H9.64274L7.26703 81.5625H15.3724C15.743 81.5625 16.0985 81.4143 16.3606 81.1506C16.6226 80.8869 16.7699 80.5292 16.7699 80.1562V74.5312C16.7699 74.1583 16.6226 73.8006 16.3606 73.5369C16.0985 73.2732 15.743 73.125 15.3724 73.125H7.26703L9.69864 70.3125H18.0835L20.1378 73.8281C20.2597 74.0407 20.4348 74.2174 20.6457 74.3407C20.8565 74.4641 21.0957 74.5298 21.3396 74.5312H29.3472C29.3472 74.9042 29.4944 75.2619 29.7565 75.5256C30.0186 75.7893 30.374 75.9375 30.7446 75.9375H32.9527C33.0913 76.3568 33.2594 76.7656 33.4557 77.1609L31.9465 78.75C31.774 78.9348 31.6544 79.163 31.6003 79.4105C31.5462 79.6581 31.5596 79.9157 31.639 80.1562H21.2837ZM51.4972 80.4094C51.2829 80.1848 51.0007 80.0381 50.6946 79.9923C50.3886 79.9465 50.0762 80.0041 49.8062 80.1562L49.6804 80.2406L49.1913 80.5359C48.5721 80.9756 47.8947 81.3259 47.179 81.5766C46.8713 81.653 46.5986 81.8325 46.4056 82.0855C46.2126 82.3384 46.1108 82.6499 46.1169 82.9688V84.375H43.3219V82.9688C43.332 82.6494 43.2336 82.3361 43.0431 82.0805C42.8526 81.8249 42.5813 81.6422 42.2738 81.5625C41.7134 81.3642 41.1894 81.0744 40.7226 80.7047L40.1357 80.3391L39.968 80.2266L39.8422 80.1562C39.5752 80.0007 39.2645 79.9383 38.9587 79.979C38.6528 80.0197 38.3689 80.1612 38.1513 80.3813L36.8935 81.6328L34.9371 79.6781L36.1948 78.4266C36.4037 78.1966 36.5307 77.9033 36.556 77.5928C36.5813 77.2823 36.5034 76.9721 36.3345 76.7109C35.8727 75.9206 35.5245 75.0684 35.3004 74.1797C35.2212 73.8703 35.0396 73.5973 34.7856 73.4055C34.5316 73.2138 34.2203 73.1149 33.9029 73.125H32.212C32.2036 73.0099 32.1801 72.8964 32.1421 72.7875V70.3125H33.9868C34.3041 70.3226 34.6155 70.2237 34.8695 70.032C35.1235 69.8402 35.305 69.5672 35.3843 69.2578C35.6084 68.3691 35.9566 67.5169 36.4184 66.7266C36.5782 66.4579 36.6444 66.1433 36.6065 65.8325C36.5685 65.5217 36.4285 65.2326 36.2088 65.0109L34.951 63.7594L36.9355 61.7766L38.1932 63.0281C38.4108 63.2482 38.6947 63.3896 39.0006 63.4303C39.3065 63.471 39.6171 63.4087 39.8841 63.2531L40.7645 62.6906C41.2214 62.3398 41.7309 62.0645 42.2738 61.875C42.5813 61.7953 42.8526 61.6126 43.0431 61.357C43.2336 61.1014 43.332 60.7881 43.3219 60.4688V59.0625H46.1169V60.4688C46.1068 60.7881 46.2052 61.1014 46.3957 61.357C46.5862 61.6126 46.8575 61.7953 47.165 61.875C47.8808 62.1257 48.5581 62.4759 49.1774 62.9156L49.8062 63.2953C50.0732 63.4509 50.3839 63.5132 50.6898 63.4725C50.9956 63.4318 51.2795 63.2904 51.4972 63.0703L52.7549 61.8187L54.7393 63.8016L53.4816 65.0531C53.2618 65.2748 53.1219 65.5639 53.0839 65.8747C53.0459 66.1855 53.1121 66.5001 53.272 66.7687C53.7338 67.5591 54.082 68.4113 54.3061 69.3C54.3853 69.6094 54.5669 69.8824 54.8209 70.0741C55.0749 70.2658 55.3862 70.3648 55.7036 70.3547H57.2967V73.1672H55.6617C55.3443 73.1571 55.033 73.256 54.779 73.4477C54.525 73.6394 54.3434 73.9125 54.2642 74.2219C54.04 75.1105 53.6919 75.9628 53.23 76.7531C53.0702 77.0218 53.004 77.3364 53.042 77.6472C53.0799 77.9579 53.2199 78.2471 53.4397 78.4687L54.6974 79.7203L52.713 81.7031L51.4972 80.4094ZM74.0664 81.5625H82.1718L79.7402 84.375H71.3553L69.301 80.8594C69.1791 80.6468 69.004 80.4701 68.7932 80.3468C68.5823 80.2234 68.3431 80.1577 68.0992 80.1562H58.0094C58.0889 79.9157 58.1022 79.6581 58.0481 79.4105C57.994 79.163 57.8744 78.9348 57.702 78.75L56.1927 77.2312C56.389 76.8359 56.5571 76.4271 56.6958 76.0078H58.6942C59.0648 76.0078 59.4203 75.8597 59.6823 75.5959C59.9444 75.3322 60.0916 74.9745 60.0916 74.6016H68.1551C68.399 74.6001 68.6382 74.5344 68.8491 74.411C69.0599 74.2877 69.235 74.111 69.3569 73.8984L71.4112 70.3125H79.7961L82.2277 73.125H74.0664C73.6958 73.125 73.3403 73.2732 73.0782 73.5369C72.8162 73.8006 72.6689 74.1583 72.6689 74.5312V80.1562C72.6689 80.5292 72.8162 80.8869 73.0782 81.1506C73.3403 81.4143 73.6958 81.5625 74.0664 81.5625Z" fill="#AD89DC"/>
<path id="Vector_2" d="M44.8311 64.6875C43.4492 64.6875 42.0982 65.0999 40.9492 65.8725C39.8001 66.6451 38.9045 67.7432 38.3756 69.028C37.8468 70.3128 37.7084 71.7266 37.978 73.0905C38.2476 74.4544 38.9131 75.7073 39.8903 76.6906C40.8675 77.6739 42.1125 78.3436 43.468 78.6149C44.8234 78.8862 46.2283 78.747 47.5051 78.2148C48.7819 77.6826 49.8731 76.7814 50.6409 75.6251C51.4087 74.4688 51.8185 73.1094 51.8185 71.7188C51.8185 69.8539 51.0824 68.0655 49.772 66.7469C48.4616 65.4283 46.6843 64.6875 44.8311 64.6875ZM44.8311 75.9375C44.002 75.9375 43.1914 75.6901 42.5019 75.2265C41.8125 74.7629 41.2752 74.1041 40.9578 73.3332C40.6405 72.5623 40.5575 71.7141 40.7193 70.8957C40.881 70.0774 41.2803 69.3256 41.8666 68.7356C42.453 68.1456 43.2 67.7438 44.0132 67.5811C44.8265 67.4183 45.6694 67.5018 46.4355 67.8211C47.2016 68.1404 47.8563 68.6812 48.317 69.3749C48.7777 70.0687 49.0236 70.8844 49.0236 71.7188C49.0236 72.8376 48.5819 73.9107 47.7956 74.7019C47.0094 75.493 45.943 75.9375 44.8311 75.9375Z" fill="#AD89DC"/>
<path id="Vector_3" d="M82.521 2.81211H6.98735C5.87545 2.81211 4.80909 3.25658 4.02286 4.04775C3.23662 4.83892 2.79492 5.91198 2.79492 7.03086V49.359C2.79492 50.4779 3.23662 51.5509 4.02286 52.3421C4.80909 53.1333 5.87545 53.5777 6.98735 53.5777H82.5908C83.7027 53.5777 84.7691 53.1333 85.5553 52.3421C86.3416 51.5509 86.7833 50.4779 86.7833 49.359V7.03086C86.7833 6.47088 86.6726 5.91649 86.4576 5.40001C86.2425 4.88353 85.9275 4.4153 85.5307 4.02262C85.134 3.62994 84.6635 3.32066 84.1468 3.11283C83.6301 2.90501 83.0774 2.80278 82.521 2.81211ZM83.9184 49.2887C83.9308 49.4766 83.9031 49.6649 83.8372 49.8412C83.7714 50.0174 83.6689 50.1775 83.5365 50.3106C83.4042 50.4438 83.2452 50.5469 83.07 50.6132C82.8949 50.6795 82.7077 50.7073 82.521 50.6949H6.98735C6.80064 50.7073 6.61344 50.6795 6.43829 50.6132C6.26314 50.5469 6.10408 50.4438 5.97176 50.3106C5.83945 50.1775 5.73693 50.0174 5.67106 49.8412C5.6052 49.6649 5.57752 49.4766 5.58987 49.2887V7.03086C5.57752 6.84297 5.6052 6.6546 5.67106 6.47835C5.73693 6.3021 5.83945 6.14204 5.97176 6.00889C6.10408 5.87575 6.26314 5.77258 6.43829 5.70631C6.61344 5.64003 6.80064 5.61218 6.98735 5.62461H82.5908C82.7775 5.61218 82.9647 5.64003 83.1399 5.70631C83.315 5.77258 83.4741 5.87575 83.6064 6.00889C83.7387 6.14204 83.8413 6.3021 83.9071 6.47835C83.973 6.6546 84.0007 6.84297 83.9883 7.03086L83.9184 49.2887Z" fill="#AD89DC"/>
<path id="Vector_4" d="M33.693 24.5535C33.8111 24.7828 33.9896 24.9749 34.209 25.1089C34.4284 25.2428 34.6802 25.3134 34.9368 25.3129H54.5015C54.7581 25.3134 55.0099 25.2428 55.2293 25.1089C55.4487 24.9749 55.6272 24.7828 55.7452 24.5535C55.8533 24.3312 55.9012 24.0841 55.8841 23.8372C55.8669 23.5902 55.7852 23.3523 55.6474 23.1473L45.8651 9.08476C45.7363 8.8991 45.5648 8.74747 45.3653 8.64277C45.1658 8.53807 44.9441 8.4834 44.7191 8.4834C44.4941 8.4834 44.2724 8.53807 44.0729 8.64277C43.8734 8.74747 43.702 8.8991 43.5732 9.08476L33.7909 23.1473C33.653 23.3523 33.5714 23.5902 33.5542 23.8372C33.537 24.0841 33.5849 24.3312 33.693 24.5535ZM44.7191 12.291L51.8183 22.5004H37.6199L44.7191 12.291Z" fill="#AD89DC"/>
<path id="Vector_5" d="M23.757 30.9375H9.78224C9.41161 30.9375 9.05615 31.0857 8.79408 31.3494C8.532 31.6131 8.38477 31.9708 8.38477 32.3438V46.4062C8.38477 46.7792 8.532 47.1369 8.79408 47.4006C9.05615 47.6643 9.41161 47.8125 9.78224 47.8125H23.757C24.1276 47.8125 24.4831 47.6643 24.7452 47.4006C25.0073 47.1369 25.1545 46.7792 25.1545 46.4062V32.3438C25.1545 31.9708 25.0073 31.6131 24.7452 31.3494C24.4831 31.0857 24.1276 30.9375 23.757 30.9375ZM22.3595 45H11.1797V33.75H22.3595V45Z" fill="#AD89DC"/>
<path id="Vector_6" d="M72.669 30.9375C71.0107 30.9375 69.3896 31.4324 68.0107 32.3595C66.6318 33.2866 65.5571 34.6044 64.9224 36.1461C64.2878 37.6879 64.1218 39.3844 64.4453 41.0211C64.7688 42.6578 65.5674 44.1612 66.7401 45.3412C67.9127 46.5212 69.4067 47.3248 71.0332 47.6504C72.6597 47.9759 74.3457 47.8088 75.8778 47.1702C77.4099 46.5316 78.7195 45.4502 79.6408 44.0626C80.5621 42.6751 81.0539 41.0438 81.0539 39.375C81.0539 37.1372 80.1705 34.9911 78.598 33.4088C77.0256 31.8264 74.8928 30.9375 72.669 30.9375ZM72.669 45C71.5635 45 70.4827 44.6701 69.5635 44.052C68.6442 43.4339 67.9277 42.5554 67.5046 41.5276C67.0816 40.4998 66.9709 39.3688 67.1865 38.2776C67.4022 37.1865 67.9346 36.1842 68.7164 35.3975C69.4981 34.6109 70.4942 34.0751 71.5785 33.8581C72.6628 33.641 73.7868 33.7524 74.8082 34.1782C75.8296 34.6039 76.7027 35.3249 77.3169 36.2499C77.9311 37.1749 78.2589 38.2625 78.2589 39.375C78.2589 40.8668 77.67 42.2976 76.6217 43.3525C75.5734 44.4074 74.1516 45 72.669 45Z" fill="#AD89DC"/>
<path id="Vector_7" d="M54.502 14.0625H71.2717V18.2812H68.4767C68.2301 18.2813 67.9878 18.347 67.7746 18.4718C67.5613 18.5965 67.3847 18.7759 67.2626 18.9915C67.1406 19.2072 67.0774 19.4516 67.0796 19.6998C67.0817 19.948 67.1491 20.1912 67.2749 20.4047L71.4673 27.4359C71.5911 27.6458 71.7669 27.8196 71.9777 27.9404C72.1884 28.0611 72.4267 28.1246 72.6692 28.1246C72.9116 28.1246 73.15 28.0611 73.3607 27.9404C73.5714 27.8196 73.7473 27.6458 73.871 27.4359L78.0634 20.4047C78.1892 20.1912 78.2566 19.948 78.2588 19.6998C78.2609 19.4516 78.1978 19.2072 78.0757 18.9915C77.9536 18.7759 77.777 18.5965 77.5637 18.4718C77.3505 18.347 77.1083 18.2813 76.8616 18.2812H74.0666V12.6562C74.0666 12.2833 73.9194 11.9256 73.6573 11.6619C73.3953 11.3982 73.0398 11.25 72.6692 11.25H54.502C54.1313 11.25 53.7759 11.3982 53.5138 11.6619C53.2517 11.9256 53.1045 12.2833 53.1045 12.6562C53.1045 13.0292 53.2517 13.3869 53.5138 13.6506C53.7759 13.9143 54.1313 14.0625 54.502 14.0625ZM72.6692 23.9906L70.9503 21.0937H74.3881L72.6692 23.9906Z" fill="#AD89DC"/>
<path id="Vector_8" d="M15.5675 27.4359C15.6913 27.6458 15.8671 27.8196 16.0778 27.9404C16.2886 28.0611 16.5269 28.1246 16.7694 28.1246C17.0118 28.1246 17.2501 28.0611 17.4609 27.9404C17.6716 27.8196 17.8474 27.6458 17.9712 27.4359L22.1636 20.4047C22.2894 20.1912 22.3568 19.948 22.359 19.6998C22.3611 19.4516 22.2979 19.2072 22.1759 18.9915C22.0538 18.7759 21.8772 18.5965 21.6639 18.4718C21.4507 18.347 21.2084 18.2813 20.9618 18.2812H18.1668V14.0625H34.9365C35.3072 14.0625 35.6626 13.9143 35.9247 13.6506C36.1868 13.3869 36.334 13.0292 36.334 12.6562C36.334 12.2833 36.1868 11.9256 35.9247 11.6619C35.6626 11.3982 35.3072 11.25 34.9365 11.25H16.7694C16.3987 11.25 16.0433 11.3982 15.7812 11.6619C15.5191 11.9256 15.3719 12.2833 15.3719 12.6562V18.2812H12.5769C12.3303 18.2813 12.088 18.347 11.8748 18.4718C11.6615 18.5965 11.4849 18.7759 11.3628 18.9915C11.2408 19.2072 11.1776 19.4516 11.1797 19.6998C11.1819 19.948 11.2493 20.1912 11.3751 20.4047L15.5675 27.4359ZM18.4882 21.0937L16.7694 23.9906L15.0505 21.0937H18.4882Z" fill="#AD89DC"/>
<path id="Vector_9" d="M60.8045 38.1654L53.8171 33.9466C53.6049 33.82 53.3632 33.7522 53.1166 33.7501C52.8699 33.7479 52.6271 33.8115 52.4128 33.9343C52.1984 34.0571 52.0202 34.2349 51.8962 34.4494C51.7723 34.664 51.7069 34.9078 51.7069 35.156V37.9685H37.7321V35.156C37.7321 34.9078 37.6667 34.664 37.5428 34.4494C37.4188 34.2349 37.2406 34.0571 37.0263 33.9343C36.8119 33.8115 36.5691 33.7479 36.3224 33.7501C36.0758 33.7522 35.8341 33.82 35.6219 33.9466L28.6345 38.1654C28.426 38.2899 28.2533 38.4669 28.1333 38.6789C28.0133 38.8909 27.9502 39.1308 27.9502 39.3748C27.9502 39.6188 28.0133 39.8586 28.1333 40.0706C28.2533 40.2826 28.426 40.4596 28.6345 40.5841L35.6219 44.8029C35.8376 44.9317 36.0838 44.9997 36.3346 44.9998C36.5747 44.999 36.8105 44.9361 37.0194 44.8169C37.2353 44.6948 37.415 44.5172 37.5402 44.3022C37.6655 44.0873 37.7317 43.8427 37.7321 43.5935V40.781H51.7069V43.5935C51.7073 43.8427 51.7735 44.0873 51.8988 44.3022C52.024 44.5172 52.2037 44.6948 52.4196 44.8169C52.6285 44.9361 52.8643 44.999 53.1044 44.9998C53.3552 44.9997 53.6014 44.9317 53.8171 44.8029L60.8045 40.5841C61.013 40.4596 61.1857 40.2826 61.3057 40.0706C61.4257 39.8586 61.4888 39.6188 61.4888 39.3748C61.4888 39.1308 61.4257 38.8909 61.3057 38.6789C61.1857 38.4669 61.013 38.2899 60.8045 38.1654ZM34.9372 41.1044L32.0584 39.3748L34.9372 37.6451V41.1044ZM54.5018 41.1044V37.6451L57.3806 39.3748L54.5018 41.1044Z" fill="#AD89DC"/>
</g>
</svg>
