<svg width="90" height="60" viewBox="0 0 90 60" fill="none" xmlns="http://www.w3.org/2000/svg">
<g id="Group 1000003645">
<path id="Vector" d="M16.6183 0.346103C12.5701 0.346103 8.46024 2.09568 7.77562 3.05242C7.59702 3.44832 7.18285 6.64797 8.16514 6.64797C8.49257 6.64797 8.64279 6.71111 9.59531 6.21624C13.1673 4.66565 15.4304 4.70199 15.7579 4.70199C19.7763 4.2731 22.0974 7.30985 21.7402 11.2358V13.5426C18.3468 12.6519 16.4081 12.6212 15.4556 12.6212C10.5144 12.2913 5.9501 15.1788 5.9501 21.5263C5.9501 28.4875 11.5559 29.9762 13.7289 29.8772C16.9734 29.9102 20.07 28.2934 22.1239 25.4891C23.7611 29.5471 24.8034 29.278 24.8331 29.278C25.1308 29.278 25.3682 29.1465 25.6063 28.9816L27.304 27.6606C27.6016 27.4627 27.8381 27.1351 27.8679 26.7392C27.8381 25.7824 26.2896 24.2978 26.4086 20.9657V10.6752C26.5872 7.83797 25.7573 5.06154 24.0308 2.91711C21.9769 1.00361 19.2675 0.082172 16.6183 0.346103ZM74.2848 0.346103C68.3315 0.346103 64.9109 4.46847 65.0002 8.65838C65.0002 14.3989 70.2361 16.2185 70.8314 16.4165C75.8619 18.165 76.5484 18.2284 77.9474 19.5481C79.1381 20.9007 78.9886 23.5419 77.2323 24.6966C76.7263 25.0265 74.551 26.4755 69.6396 25.3538C68.0024 24.9909 67.142 24.563 65.8025 23.9362C65.4453 23.8042 64.6107 23.5725 64.6107 24.7932V26.4106C64.6107 27.1694 65.0263 27.8591 65.6514 28.189C68.7768 29.9375 72.5276 30.0061 73.3313 30.0061C73.4504 30.0061 80.2948 30.0101 82.5868 24.8899C83.0601 23.8341 84.2858 19.9798 81.9938 16.6807C80.0887 14.2063 78.4514 13.9421 73.5697 12.2926C73.153 12.1606 69.5517 11.134 69.5815 8.32975C69.4029 4.7337 73.8097 4.53935 74.7324 4.60534C78.4532 4.53935 80.2957 6.08505 81.3078 6.18402C81.7543 6.18402 81.9647 5.8902 81.9647 5.23037V3.70967C81.9945 3.34677 81.8759 2.9885 81.6973 2.69158C80.5066 0.976031 75.9517 0.346103 74.2848 0.346103ZM29.1004 1.17089C28.773 1.23687 28.5351 1.60055 28.5946 1.96345C28.6541 2.39234 28.7132 2.82329 28.862 3.25218L35.5304 27.6284C35.6792 28.4202 36.1513 29.2811 37.1931 29.1491H39.6349C41.1232 29.3141 41.3318 27.7289 41.3616 27.564L45.7393 7.24078L50.1752 27.5962C50.205 27.7611 50.4143 29.3463 51.8728 29.1813H54.3437C55.4152 29.3133 55.9215 28.4524 56.0703 27.6606C63.5715 0.904637 63.0629 2.72354 63.1224 2.45961C63.2415 1.07397 62.5264 1.17011 62.4073 1.2031H59.7562C58.4168 1.03815 58.153 2.39389 58.0935 2.7238L53.1518 23.8718L48.6869 2.7238C48.4785 1.10722 47.2869 1.17011 46.9893 1.2031H44.6987C43.3889 1.07114 43.0613 2.22893 42.972 2.7238L38.5361 23.5754L33.7746 2.7238C33.6556 2.06397 33.267 1.03892 32.1061 1.17089H29.1004ZM16.4381 16.4487C18.5813 16.4817 20.4312 16.8405 21.7111 17.1704C21.7111 18.82 21.7653 19.7453 21.4379 21.2299C21.0212 22.8135 19.1794 25.6873 14.8335 25.7533C12.3331 25.8853 10.6964 23.7042 10.8453 21.2299C10.6964 17.2709 14.3842 16.2838 16.4381 16.4487ZM83.4647 36.6108C80.6863 36.6537 77.4069 37.3435 74.9185 39.2785C74.1505 39.869 74.2851 40.689 75.1394 40.5801C77.9374 40.2073 84.1653 39.3704 85.2785 40.9474C86.3948 42.5244 84.0442 49.0303 83.0054 51.9402C82.6839 52.8079 83.3636 53.1671 84.0809 52.5072C88.7364 48.1854 89.946 39.1254 88.9935 37.8222C88.5158 37.1706 86.243 36.5679 83.4647 36.6108ZM0.64216 39.9099C-0.00693228 40.0089 -0.286503 40.9208 0.392169 41.6433C12.0516 53.7643 27.4582 59.6983 44.5649 59.6983C56.7662 59.6983 70.9307 55.286 80.709 46.9722C82.3253 45.5898 80.9484 43.5185 79.2904 44.3367C68.3275 49.6978 56.4203 52.2817 45.5823 52.2817C29.5204 52.2817 13.9714 48.5651 1.39213 40.1226C1.11679 39.9378 0.858524 39.877 0.64216 39.9099Z" fill="#AD89DC"/>
</g>
</svg>
