<svg width="75" height="75" viewBox="0 0 75 75" fill="none" xmlns="http://www.w3.org/2000/svg">
<g id="data-analysis 1">
<path id="Vector" d="M70.3125 52.7344C71.2449 52.7344 72.1391 52.364 72.7984 51.7047C73.4577 51.0454 73.8281 50.1512 73.8281 49.2188V4.6875C73.8281 3.7551 73.4577 2.86089 72.7984 2.20158C72.1391 1.54227 71.2449 1.17188 70.3125 1.17188H4.6875C3.7551 1.17188 2.86089 1.54227 2.20158 2.20158C1.54227 2.86089 1.17188 3.7551 1.17188 4.6875V49.2188C1.17188 50.1512 1.54227 51.0454 2.20158 51.7047C2.86089 52.364 3.7551 52.7344 4.6875 52.7344H25.3125C27.5757 56.3449 30.9324 59.1387 34.8937 60.709L31.1555 64.4531H26.9531V60.9375C26.9531 60.0051 26.5827 59.1109 25.9234 58.4516C25.2641 57.7923 24.3699 57.4219 23.4375 57.4219H9.375C8.4426 57.4219 7.54838 57.7923 6.88908 58.4516C6.22977 59.1109 5.85937 60.0051 5.85937 60.9375V70.3125C5.85937 71.2449 6.22977 72.1391 6.88908 72.7984C7.54838 73.4577 8.4426 73.8281 9.375 73.8281H23.4375C24.3699 73.8281 25.2641 73.4577 25.9234 72.7984C26.5827 72.1391 26.9531 71.2449 26.9531 70.3125V66.7969H31.6406C31.9514 66.7968 32.2494 66.6733 32.4691 66.4535L37.4156 61.507C39.9989 62.1624 42.6889 62.2836 45.3207 61.8633C47.9525 61.443 50.4708 60.4899 52.7215 59.0625L55.7684 62.1094L55.425 62.4527C55.2053 62.6725 55.0819 62.9705 55.0819 63.2812C55.0819 63.592 55.2053 63.89 55.425 64.1098L63.3434 72.0281C63.9138 72.5986 64.5911 73.0511 65.3365 73.3599C66.0818 73.6686 66.8807 73.8275 67.6875 73.8275C68.4943 73.8275 69.2932 73.6686 70.0385 73.3599C70.7839 73.0511 71.4612 72.5986 72.0316 72.0281C72.6021 71.4576 73.0546 70.7804 73.3634 70.035C73.6721 69.2896 73.831 68.4908 73.831 67.684C73.831 66.8772 73.6721 66.0783 73.3634 65.333C73.0546 64.5876 72.6021 63.9103 72.0316 63.3398L64.1133 55.4215C63.8935 55.2018 63.5955 55.0784 63.2848 55.0784C62.974 55.0784 62.676 55.2018 62.4562 55.4215L62.1094 55.7648L59.0789 52.7344H70.3125ZM24.6094 70.3125C24.6094 70.6233 24.4859 70.9214 24.2661 71.1411C24.0464 71.3609 23.7483 71.4844 23.4375 71.4844H9.375C9.0642 71.4844 8.76613 71.3609 8.54636 71.1411C8.32659 70.9214 8.20312 70.6233 8.20312 70.3125V60.9375C8.20312 60.6267 8.32659 60.3286 8.54636 60.1089C8.76613 59.8891 9.0642 59.7656 9.375 59.7656H23.4375C23.7483 59.7656 24.0464 59.8891 24.2661 60.1089C24.4859 60.3286 24.6094 60.6267 24.6094 60.9375V70.3125ZM4.6875 50.3906C4.3767 50.3906 4.07863 50.2672 3.85886 50.0474C3.63909 49.8276 3.51562 49.5296 3.51562 49.2188V4.6875C3.51562 4.3767 3.63909 4.07863 3.85886 3.85886C4.07863 3.63909 4.3767 3.51562 4.6875 3.51562H70.3125C70.6233 3.51562 70.9214 3.63909 71.1411 3.85886C71.3609 4.07863 71.4844 4.3767 71.4844 4.6875V49.2188C71.4844 49.5296 71.3609 49.8276 71.1411 50.0474C70.9214 50.2672 70.6233 50.3906 70.3125 50.3906H60.3211C61.4098 48.0028 62.0141 45.4229 62.0991 42.8C62.1842 40.1771 61.7483 37.5634 60.8166 35.1101C59.8849 32.6568 58.4759 30.4126 56.6712 28.5074C54.8666 26.6022 52.702 25.0737 50.3027 24.0105L56.25 18.0633V21.0938H58.5937V15.2344C58.5937 14.9236 58.4703 14.6255 58.2505 14.4057C58.0307 14.186 57.7327 14.0625 57.4219 14.0625H51.5625V16.4062H54.593L47.891 23.1082C46.2551 22.6231 44.5634 22.3513 42.8578 22.2996L37.3219 13.4414C37.2165 13.2729 37.0701 13.1339 36.8962 13.0375C36.7224 12.9412 36.5269 12.8906 36.3281 12.8906H31.6406V9.375C31.6406 8.4426 31.2702 7.54839 30.6109 6.88908C29.9516 6.22977 29.0574 5.85938 28.125 5.85938H14.0625C13.1301 5.85938 12.2359 6.22977 11.5766 6.88908C10.9173 7.54839 10.5469 8.4426 10.5469 9.375V18.75C10.5469 19.6824 10.9173 20.5766 11.5766 21.2359C12.2359 21.8952 13.1301 22.2656 14.0625 22.2656H28.125C29.0574 22.2656 29.9516 21.8952 30.6109 21.2359C31.2702 20.5766 31.6406 19.6824 31.6406 18.75V15.2344H35.6789L40.1391 22.3711C35.0891 22.8989 30.4323 25.3382 27.123 29.1891L25.4824 27.3457C25.3734 27.2232 25.2399 27.125 25.0905 27.0574C24.9411 26.9898 24.7792 26.9543 24.6152 26.9531H24.6094C24.447 26.9531 24.2863 26.9869 24.1376 27.0522C23.989 27.1176 23.8555 27.2131 23.7457 27.3328L10.8551 41.3953L12.5824 42.9797L24.5965 29.8734L25.6617 31.0734C22.7532 35.356 21.6512 40.613 22.5949 45.7031H8.20312V14.0625H5.85937V46.875C5.85937 47.1858 5.98284 47.4839 6.20261 47.7036C6.42238 47.9234 6.72045 48.0469 7.03125 48.0469H23.148C23.3995 48.8467 23.7021 49.6296 24.0539 50.3906H4.6875ZM29.2969 9.375V18.75C29.2969 19.0608 29.1734 19.3589 28.9536 19.5786C28.7339 19.7984 28.4358 19.9219 28.125 19.9219H14.0625C13.7517 19.9219 13.4536 19.7984 13.2339 19.5786C13.0141 19.3589 12.8906 19.0608 12.8906 18.75V9.375C12.8906 9.0642 13.0141 8.76613 13.2339 8.54636C13.4536 8.32659 13.7517 8.20312 14.0625 8.20312H28.125C28.4358 8.20312 28.7339 8.32659 28.9536 8.54636C29.1734 8.76613 29.2969 9.0642 29.2969 9.375ZM24.6094 42.1875C24.6094 38.7109 25.6403 35.3123 27.5718 32.4216C29.5033 29.5309 32.2487 27.2779 35.4606 25.9474C38.6726 24.617 42.207 24.2689 45.6168 24.9471C49.0266 25.6254 52.1588 27.2995 54.6171 29.7579C57.0755 32.2162 58.7496 35.3484 59.4279 38.7582C60.1061 42.168 59.758 45.7024 58.4276 48.9144C57.0971 52.1263 54.8441 54.8717 51.9534 56.8032C49.0627 58.7347 45.6641 59.7656 42.1875 59.7656C37.5271 59.7604 33.0591 57.9067 29.7637 54.6113C26.4683 51.3159 24.6146 46.8479 24.6094 42.1875ZM70.3711 64.9969C70.7306 65.3483 71.0167 65.7675 71.2131 66.2303C71.4094 66.6931 71.5119 67.1902 71.5148 67.6929C71.5176 68.1956 71.4207 68.6939 71.2296 69.1588C71.0386 69.6238 70.7572 70.0463 70.4017 70.4017C70.0463 70.7572 69.6238 71.0386 69.1588 71.2297C68.6938 71.4207 68.1956 71.5176 67.6929 71.5148C67.1902 71.5119 66.6931 71.4094 66.2303 71.2131C65.7675 71.0167 65.3483 70.7306 64.9969 70.3711L57.907 63.2812L63.2812 57.907L70.3711 64.9969ZM57.4219 60.4523L54.6644 57.6949C55.7801 56.7961 56.7961 55.7801 57.6949 54.6645L60.4523 57.4219L57.4219 60.4523Z" fill="#AD89DC"/>
<path id="Vector_2" d="M42.1875 26.9531C39.1744 26.9531 36.229 27.8466 33.7237 29.5206C31.2185 31.1946 29.2658 33.5738 28.1128 36.3576C26.9597 39.1413 26.658 42.2044 27.2459 45.1596C27.8337 48.1148 29.2846 50.8293 31.4152 52.9598C33.5457 55.0904 36.2602 56.5413 39.2154 57.1292C42.1706 57.717 45.2337 57.4153 48.0174 56.2622C50.8012 55.1092 53.1805 53.1565 54.8544 50.6513C56.5284 48.146 57.4219 45.2006 57.4219 42.1875C57.4172 38.1485 55.8107 34.2763 52.9547 31.4203C50.0987 28.5643 46.2265 26.9578 42.1875 26.9531ZM41.6766 29.3227L34.0348 36.9645L31.8551 34.5129C33.0003 32.9688 34.477 31.701 36.1766 30.8028C37.8763 29.9046 39.7557 29.3988 41.6766 29.3227ZM42.1875 55.0781C39.8139 55.0755 37.4872 54.4177 35.4636 53.177C33.4401 51.9363 31.7984 50.1611 30.7195 48.0469H44.5313V45.7031H29.7961C28.922 42.6795 29.2027 39.4389 30.5836 36.6105L33.1078 39.4512C33.2141 39.5706 33.3436 39.6671 33.4885 39.7346C33.6334 39.8021 33.7906 39.8392 33.9504 39.8438H33.9844C34.2952 39.8437 34.5932 39.7202 34.8129 39.5004L44.7574 29.5559C47.8883 30.1931 50.6709 31.9703 52.5657 34.5429C54.4604 37.1155 55.3323 40.3 55.0122 43.479C54.6921 46.6579 53.2029 49.6047 50.8332 51.7479C48.4636 53.8911 45.3825 55.0779 42.1875 55.0781Z" fill="#AD89DC"/>
<path id="Vector_3" d="M15.2344 10.5469H26.9531V12.8906H15.2344V10.5469Z" fill="#AD89DC"/>
<path id="Vector_4" d="M15.2344 15.2344H26.9531V17.5781H15.2344V15.2344Z" fill="#AD89DC"/>
<path id="Vector_5" d="M10.5469 62.1094H22.2656V64.4531H10.5469V62.1094Z" fill="#AD89DC"/>
<path id="Vector_6" d="M10.5469 66.7969H22.2656V69.1406H10.5469V66.7969Z" fill="#AD89DC"/>
</g>
</svg>
