<svg width="90" height="91" viewBox="0 0 90 91" fill="none" xmlns="http://www.w3.org/2000/svg">
<g id="fi_9940881">
<g id="Group">
<path id="Vector" d="M29.0328 36.5887C28.3841 36.5887 27.7673 36.5044 27.1836 36.3343C26.5998 36.1653 26.0976 35.9774 25.6769 35.7718L24.9004 37.8599C25.1658 37.9934 25.5711 38.1597 26.1185 38.3592C26.6659 38.5587 27.3785 38.695 28.2574 38.7676V40.9288H30.5307V38.7133C31.1199 38.6163 31.6166 38.4595 32.0197 38.2417C32.4228 38.0233 32.75 37.7634 33.0033 37.4609C33.2555 37.1583 33.4361 36.8286 33.5441 36.4717C33.6531 36.1148 33.7071 35.7552 33.7071 35.3922C33.7071 34.8597 33.6134 34.3937 33.4273 33.9941C33.2401 33.5951 32.9823 33.2471 32.6508 32.9507C32.3204 32.6547 31.9294 32.391 31.4778 32.1604C31.0274 31.9305 30.5373 31.7177 30.0075 31.5237C29.6584 31.4024 29.361 31.2904 29.1143 31.1868C28.8676 31.0837 28.6605 30.9779 28.492 30.8687C28.3235 30.7601 28.2001 30.636 28.1219 30.4963C28.0437 30.3578 28.0041 30.191 28.0041 29.997C28.0041 29.6828 28.1307 29.4285 28.3841 29.2345C28.6363 29.0411 29.0515 28.9441 29.6286 28.9441C30.2058 28.9441 30.7564 29.0045 31.2796 29.1259C31.8028 29.2467 32.2631 29.3919 32.6607 29.5615L33.2192 27.3826C32.9548 27.2617 32.5969 27.1404 32.1464 27.019C31.6948 26.8982 31.1563 26.8074 30.5307 26.7469V24.8584H28.2574V26.8195C27.7276 26.9165 27.2706 27.0711 26.8862 27.2828C26.5007 27.4945 26.1879 27.7516 25.9478 28.0542C25.7066 28.3573 25.5293 28.6931 25.4147 29.0622C25.3002 29.4312 25.244 29.8158 25.244 30.2154C25.244 30.7357 25.3365 31.1807 25.5238 31.5498C25.7099 31.9194 25.9566 32.2308 26.2628 32.4852C26.5701 32.739 26.9126 32.954 27.2915 33.1296C27.6704 33.3053 28.0592 33.4655 28.4557 33.6106C28.8643 33.7558 29.2255 33.8922 29.5383 34.019C29.8511 34.1465 30.1099 34.2767 30.3148 34.4097C30.5186 34.5433 30.675 34.6912 30.784 34.8547C30.8919 35.0182 30.9459 35.2149 30.9459 35.4449C30.9459 35.8078 30.8104 36.0894 30.5395 36.2888C30.2696 36.4889 29.7663 36.5887 29.0328 36.5887Z" fill="#AD89DC"/>
<path id="Vector_2" d="M22.5374 46.7953H36.0712C38.714 46.7953 40.8644 44.6319 40.8644 41.972V23.8136C40.8644 21.1536 38.714 18.9902 36.0712 18.9902H22.5374C19.8946 18.9902 17.7441 21.1536 17.7441 23.8136V41.972C17.7441 44.6319 19.8946 46.7953 22.5374 46.7953ZM20.5637 23.8136C20.5637 22.7186 21.4492 21.8275 22.5374 21.8275H36.0712C37.1594 21.8275 38.0449 22.7186 38.0449 23.8136V41.972C38.0449 43.067 37.1594 43.958 36.0712 43.958H22.5374C21.4492 43.958 20.5637 43.067 20.5637 41.972V23.8136Z" fill="#AD89DC"/>
<path id="Vector_3" d="M81.184 63.2517H79.2103V16.1534H81.184C81.9626 16.1534 82.5937 15.5183 82.5937 14.7347C82.5937 13.9512 81.9626 13.3161 81.184 13.3161H63.4208V9.06023C63.4208 8.27666 62.7897 7.6416 62.011 7.6416H28.1765C27.3978 7.6416 26.7667 8.27666 26.7667 9.06023V13.3161H9.00352C8.22484 13.3161 7.59375 13.9512 7.59375 14.7347C7.59375 15.5183 8.22484 16.1534 9.00352 16.1534H10.9772V63.2517H9.00352C8.22484 63.2517 7.59375 63.8868 7.59375 64.6703C7.59375 65.4539 8.22484 66.089 9.00352 66.089H10.9772V68.075C10.9772 70.7349 13.1277 72.8984 15.7704 72.8984H31.1129L30.1589 81.5375C30.1143 81.9388 30.2421 82.3388 30.5092 82.6403C30.7768 82.9407 31.159 83.1124 31.5599 83.1124H37.199C37.8059 83.1124 38.3444 82.7212 38.5366 82.1427L41.5989 72.8984H48.5887L51.6509 82.1427C51.843 82.7212 52.3816 83.1124 52.9885 83.1124H58.6276C59.0285 83.1124 59.4107 82.9407 59.6783 82.6403C59.9454 82.3389 60.0732 81.9388 60.0286 81.5375L59.0746 72.8984H74.4171C77.0598 72.8984 79.2103 70.7349 79.2103 68.075V66.089H81.184C81.9627 66.089 82.5938 65.4539 82.5938 64.6703C82.5938 63.8868 81.9626 63.2517 81.184 63.2517ZM29.5862 10.4789H60.6013V13.3161H29.5862V10.4789ZM28.1765 16.1534H76.3907V63.2517H13.7968V16.1534H28.1765ZM36.183 80.2752H33.1349L33.9494 72.8984H38.6264L36.183 80.2752ZM57.0526 80.2752H54.0045L51.5611 72.8984H56.2381L57.0526 80.2752ZM76.3907 68.075C76.3907 69.17 75.5052 70.0611 74.417 70.0611H15.7704C14.6823 70.0611 13.7968 69.17 13.7968 68.075V66.089H76.3907L76.3907 68.075Z" fill="#AD89DC"/>
<path id="Vector_4" d="M19.1539 59.2793H71.0336C71.8123 59.2793 72.4434 58.6443 72.4434 57.8607V52.1862C72.4434 51.4026 71.8123 50.7676 71.0336 50.7676H19.1539C18.3752 50.7676 17.7441 51.4026 17.7441 52.1862V57.8607C17.7441 58.6443 18.3752 59.2793 19.1539 59.2793ZM20.5637 53.6048H69.6238V56.4421H20.5637V53.6048Z" fill="#AD89DC"/>
<path id="Vector_5" d="M48.4772 34.3122C48.8379 34.3122 49.1986 34.1737 49.4739 33.8966L55.2441 28.0902L59.8864 32.7617C60.4371 33.3159 61.3292 33.3159 61.8799 32.7617L69.6238 24.9693V26.0842C69.6238 26.8678 70.2549 27.5028 71.0335 27.5028C71.8122 27.5028 72.4433 26.8678 72.4433 26.0842V21.5446C72.4433 20.761 71.8122 20.126 71.0335 20.126H66.5223C65.7436 20.126 65.1125 20.761 65.1125 21.5446C65.1125 22.3282 65.7436 22.9632 66.5223 22.9632H67.6303L60.8832 29.7527L56.2408 25.0812C55.6901 24.527 54.798 24.527 54.2473 25.0812L47.4804 31.8906C46.9297 32.4447 46.9297 33.3425 47.4804 33.8966C47.7557 34.1737 48.1164 34.3122 48.4772 34.3122Z" fill="#AD89DC"/>
<path id="Vector_6" d="M46.2223 41.1205H68.7787C69.5573 41.1205 70.1884 40.4854 70.1884 39.7018C70.1884 38.9183 69.5573 38.2832 68.7787 38.2832H46.2223C45.4436 38.2832 44.8125 38.9183 44.8125 39.7018C44.8125 40.4854 45.4436 41.1205 46.2223 41.1205Z" fill="#AD89DC"/>
<path id="Vector_7" d="M46.2213 46.7953H57.4995C58.2782 46.7953 58.9093 46.1602 58.9093 45.3766C58.9093 44.5931 58.2782 43.958 57.4995 43.958H46.2213C45.4426 43.958 44.8115 44.5931 44.8115 45.3766C44.8115 46.1602 45.4426 46.7953 46.2213 46.7953Z" fill="#AD89DC"/>
</g>
</g>
</svg>
