<svg width="90" height="90" viewBox="0 0 90 90" fill="none" xmlns="http://www.w3.org/2000/svg">
<g id="fi_2752481">
<g id="Group">
<path id="Vector" d="M75.4632 1.40625H55.8985C53.5871 1.40625 51.7061 3.29906 51.7061 5.625V8.4375C48.6233 8.4375 46.1162 10.9603 46.1162 14.0625C46.1162 17.1647 48.6233 19.6875 51.7061 19.6875V26.7188H62.8859V23.9062C62.8859 22.3552 64.1395 21.0938 65.6809 21.0938C67.2223 21.0938 68.4758 22.3552 68.4758 23.9062V26.7188H75.4632C77.7746 26.7188 79.6556 24.8259 79.6556 22.5V5.625C79.6556 3.29906 77.7746 1.40625 75.4632 1.40625ZM76.8607 22.5C76.8607 23.2748 76.2346 23.9062 75.4632 23.9062H71.2708C71.2708 20.8041 68.7637 18.2812 65.6809 18.2812C62.598 18.2812 60.091 20.8041 60.091 23.9062H54.5011V16.875H51.7061C50.1647 16.875 48.9112 15.6136 48.9112 14.0625C48.9112 12.5114 50.1647 11.25 51.7061 11.25H54.5011V5.625C54.5011 4.85016 55.1271 4.21875 55.8985 4.21875H75.4632C76.2346 4.21875 76.8607 4.85016 76.8607 5.625V22.5Z" fill="#AD89DC"/>
<path id="Vector_2" d="M51.7065 29.5312C48.6237 29.5312 46.1166 32.0541 46.1166 35.1562H40.5267V28.125H37.7318C36.1903 28.125 34.9368 26.8636 34.9368 25.3125C34.9368 23.7614 36.1903 22.5 37.7318 22.5H40.5267V9.84375H36.7801C21.8942 9.84375 9.78223 22.0317 9.78223 37.0111C9.78223 45.1927 13.3919 52.8567 19.6847 58.0373L25.1545 62.5416V66.3539C23.532 66.9361 22.3595 68.483 22.3595 70.3139C22.3595 72.2588 23.6801 73.8844 25.4619 74.3695C25.2677 74.8547 25.1545 75.382 25.1545 75.9375C25.1545 77.7966 26.3633 79.3603 28.0249 79.9214C28.6034 84.7983 32.733 88.5938 37.7318 88.5938C42.7305 88.5938 46.8601 84.7983 47.4386 79.9214C49.1002 79.3603 50.309 77.7966 50.309 75.9375C50.309 75.382 50.1959 74.8547 50.0016 74.3681C51.7834 73.8816 53.104 72.2573 53.104 70.3125C53.104 68.4816 51.9315 66.9347 50.309 66.3525V62.5402L55.7788 58.0359C62.0716 52.8567 65.6813 45.1927 65.6813 37.0111V35.1562H57.2964C57.2964 32.0541 54.7894 29.5312 51.7065 29.5312ZM36.7801 12.6562H37.7318V19.6875C34.6489 19.6875 32.1419 22.2103 32.1419 25.3125C32.1419 28.4147 34.6489 30.9375 37.7318 30.9375V35.1562H32.1419C32.1419 32.0541 29.6348 29.5312 26.5519 29.5312C23.4691 29.5312 20.962 32.0541 20.962 35.1562H12.6471C13.5917 22.59 24.0547 12.6562 36.7801 12.6562ZM21.454 55.8605C16.0583 51.4181 12.8637 44.9409 12.5967 37.9688H23.757V35.1562C23.757 33.6052 25.0105 32.3438 26.5519 32.3438C28.0934 32.3438 29.3469 33.6052 29.3469 35.1562V37.9688H37.7318V43.5938C34.6489 43.5938 32.1419 46.1166 32.1419 49.2188C32.1419 52.3209 34.6489 54.8438 37.7318 54.8438V66.0938H27.9494V61.2084L21.454 55.8605ZM37.7318 85.7812C34.3582 85.7812 31.5353 83.3611 30.8855 80.1562H44.578C43.9282 83.3611 41.1053 85.7812 37.7318 85.7812ZM46.1166 77.3438H29.3469C28.5755 77.3438 27.9494 76.7123 27.9494 75.9375C27.9494 75.1627 28.5755 74.5312 29.3469 74.5312H46.1166C46.888 74.5312 47.5141 75.1627 47.5141 75.9375C47.5141 76.7123 46.888 77.3438 46.1166 77.3438ZM48.9116 71.7188H46.1166H29.3469H26.5519C25.7805 71.7188 25.1545 71.0873 25.1545 70.3125C25.1545 69.5377 25.7805 68.9062 26.5519 68.9062H48.9116C49.683 68.9062 50.309 69.5377 50.309 70.3125C50.309 71.0873 49.683 71.7188 48.9116 71.7188ZM54.0096 55.8605L47.5141 61.2084V66.0938H40.5267V52.0312H37.7318C36.1903 52.0312 34.9368 50.7698 34.9368 49.2188C34.9368 47.6677 36.1903 46.4062 37.7318 46.4062H40.5267V37.9688H48.9116V35.1562C48.9116 33.6052 50.1651 32.3438 51.7065 32.3438C53.2479 32.3438 54.5015 33.6052 54.5015 35.1562V37.9688H62.8668C62.5999 44.9409 59.4052 51.4181 54.0096 55.8605Z" fill="#AD89DC"/>
</g>
</g>
</svg>
