<svg width="90" height="90" viewBox="0 0 90 90" fill="none" xmlns="http://www.w3.org/2000/svg">
<g id="fi_2329087">
<g id="Group">
<path id="Vector" d="M79.6562 48.5578V20.9813C84.3894 20.295 88.041 16.1986 88.041 11.25C88.041 5.82328 83.6529 1.40625 78.2587 1.40625C72.8644 1.40625 68.4763 5.82328 68.4763 11.25H1.39746V67.5H43.393C44.1197 79.2506 53.8252 88.5938 65.6814 88.5938C78.0099 88.5938 88.041 78.4997 88.041 66.0938C88.041 59.0077 84.7611 52.6852 79.6562 48.5578ZM78.2587 4.21875C82.1115 4.21875 85.2461 7.37297 85.2461 11.25C85.2461 15.127 82.1115 18.2812 78.2587 18.2812C74.4058 18.2812 71.2713 15.127 71.2713 11.25C71.2713 7.37297 74.4058 4.21875 78.2587 4.21875ZM4.19241 14.0625H68.8886C69.2226 15.1847 69.7536 16.2183 70.4356 17.1352L61.8886 25.7358C61.3408 25.4714 60.7371 25.3125 60.0915 25.3125C59.4458 25.3125 58.8421 25.4714 58.2957 25.7358L55.4798 22.9022C55.7411 22.3509 55.899 21.7434 55.899 21.0938C55.899 18.7678 54.018 16.875 51.7066 16.875C49.3952 16.875 47.5142 18.7678 47.5142 21.0938C47.5142 21.7434 47.6721 22.3509 47.9348 22.9008L40.9265 29.9531C40.3787 29.6902 39.775 29.5312 39.1293 29.5312C36.8179 29.5312 34.9369 31.4241 34.9369 33.75C34.9369 36.0759 36.8179 37.9688 39.1293 37.9688C41.4408 37.9688 43.3218 36.0759 43.3218 33.75C43.3218 33.1003 43.1638 32.4928 42.9011 31.943L49.9095 24.8906C50.4573 25.1536 51.061 25.3125 51.7066 25.3125C52.3523 25.3125 52.956 25.1536 53.5024 24.8892L56.3183 27.7228C56.057 28.2741 55.899 28.8816 55.899 29.5312C55.899 31.8572 57.78 33.75 60.0915 33.75C62.4029 33.75 64.2839 31.8572 64.2839 29.5312C64.2839 28.8816 64.126 28.2741 63.8633 27.7242L72.4116 19.1236C73.6903 20.0883 75.208 20.7422 76.8612 20.9827V46.6397C73.5673 44.7145 69.7564 43.5938 65.6814 43.5938C59.0014 43.5938 53.0119 46.5722 48.9117 51.262V45H40.5268V61.875H43.7298C43.5565 62.7933 43.4517 63.7341 43.393 64.6875H4.19241V14.0625ZM60.0915 28.125C60.8615 28.125 61.489 28.755 61.489 29.5312C61.489 30.3075 60.8615 30.9375 60.0915 30.9375C59.3215 30.9375 58.694 30.3075 58.694 29.5312C58.694 28.755 59.3215 28.125 60.0915 28.125ZM50.3091 21.0938C50.3091 20.3175 50.9366 19.6875 51.7066 19.6875C52.4766 19.6875 53.1041 20.3175 53.1041 21.0938C53.1041 21.87 52.4766 22.5 51.7066 22.5C50.9366 22.5 50.3091 21.87 50.3091 21.0938ZM40.5268 33.75C40.5268 34.5262 39.8993 35.1562 39.1293 35.1562C38.3593 35.1562 37.7318 34.5262 37.7318 33.75C37.7318 32.9737 38.3593 32.3438 39.1293 32.3438C39.8993 32.3438 40.5268 32.9737 40.5268 33.75ZM65.6814 77.3438C59.5171 77.3438 54.5016 72.2967 54.5016 66.0938C54.5016 59.8908 59.5171 54.8438 65.6814 54.8438C71.8456 54.8438 76.8612 59.8908 76.8612 66.0938C76.8612 72.2967 71.8456 77.3438 65.6814 77.3438ZM46.1167 55.2248C45.4473 56.4398 44.8939 57.7238 44.4551 59.0625H43.3218V47.8125H46.1167V55.2248ZM64.2839 46.478V52.103C57.2322 52.8117 51.7066 58.815 51.7066 66.0938C51.7066 68.1511 52.1594 70.1016 52.9518 71.865L48.1039 74.6817C46.8434 72.083 46.1167 69.1748 46.1167 66.0938C46.1167 55.7128 54.148 47.2036 64.2839 46.478ZM65.6814 85.7812C58.9539 85.7812 53.0091 82.3458 49.4874 77.1258L54.3548 74.2978C56.8954 77.8388 61.0194 80.1562 65.6814 80.1562C70.3434 80.1562 74.4673 77.8388 77.0079 74.2978L81.8753 77.1258C78.3537 82.3458 72.4088 85.7812 65.6814 85.7812ZM83.2588 74.6817L78.411 71.865C79.2034 70.1016 79.6562 68.1511 79.6562 66.0938C79.6562 58.815 74.1305 52.8103 67.0789 52.103V46.478C77.2148 47.2036 85.2461 55.7128 85.2461 66.0938C85.2461 69.1748 84.5194 72.083 83.2588 74.6817Z" fill="#AD89DC"/>
<path id="Vector_2" d="M65.6817 57.6562C61.0575 57.6562 57.2969 61.4405 57.2969 66.0938C57.2969 70.747 61.0575 74.5312 65.6817 74.5312C70.306 74.5312 74.0666 70.747 74.0666 66.0938C74.0666 61.4405 70.306 57.6562 65.6817 57.6562ZM65.6817 71.7188C62.5989 71.7188 60.0918 69.1959 60.0918 66.0938C60.0918 62.9916 62.5989 60.4688 65.6817 60.4688C68.7646 60.4688 71.2716 62.9916 71.2716 66.0938C71.2716 69.1959 68.7646 71.7188 65.6817 71.7188Z" fill="#AD89DC"/>
<path id="Vector_3" d="M6.9873 16.875H9.78226V19.6875H6.9873V16.875Z" fill="#AD89DC"/>
<path id="Vector_4" d="M12.5771 16.875H32.1418V19.6875H12.5771V16.875Z" fill="#AD89DC"/>
<path id="Vector_5" d="M6.9873 22.5H9.78226V25.3125H6.9873V22.5Z" fill="#AD89DC"/>
<path id="Vector_6" d="M12.5771 22.5H32.1418V25.3125H12.5771V22.5Z" fill="#AD89DC"/>
<path id="Vector_7" d="M6.9873 28.125H9.78226V30.9375H6.9873V28.125Z" fill="#AD89DC"/>
<path id="Vector_8" d="M12.5771 28.125H32.1418V30.9375H12.5771V28.125Z" fill="#AD89DC"/>
<path id="Vector_9" d="M6.9873 33.75H9.78226V36.5625H6.9873V33.75Z" fill="#AD89DC"/>
<path id="Vector_10" d="M12.5771 33.75H32.1418V36.5625H12.5771V33.75Z" fill="#AD89DC"/>
<path id="Vector_11" d="M6.9873 61.875H15.3722V47.8125H6.9873V61.875ZM9.78226 50.625H12.5772V59.0625H9.78226V50.625Z" fill="#AD89DC"/>
<path id="Vector_12" d="M18.167 61.875H26.5519V50.625H18.167V61.875ZM20.9619 53.4375H23.7569V59.0625H20.9619V53.4375Z" fill="#AD89DC"/>
<path id="Vector_13" d="M29.3467 61.875H37.7315V39.375H29.3467V61.875ZM32.1416 42.1875H34.9366V59.0625H32.1416V42.1875Z" fill="#AD89DC"/>
</g>
</g>
</svg>
