<svg width="81" height="81" viewBox="0 0 81 81" fill="none" xmlns="http://www.w3.org/2000/svg">
<g id="ep:data-line">
<path id="Vector" d="M28.56 60.1504H13C12.337 60.1504 11.7011 59.887 11.2322 59.4182C10.7634 58.9493 10.5 58.3134 10.5 57.6504V15.1504H5.5C4.83696 15.1504 4.20107 14.887 3.73223 14.4182C3.26339 13.9493 3 13.3134 3 12.6504C3 11.9873 3.26339 11.3515 3.73223 10.8826C4.20107 10.4138 4.83696 10.1504 5.5 10.1504H75.5C76.163 10.1504 76.7989 10.4138 77.2678 10.8826C77.7366 11.3515 78 11.9873 78 12.6504C78 13.3134 77.7366 13.9493 77.2678 14.4182C76.7989 14.887 76.163 15.1504 75.5 15.1504H70.5V57.6504C70.5 58.3134 70.2366 58.9493 69.7678 59.4182C69.2989 59.887 68.663 60.1504 68 60.1504H52.47L61.13 75.1504H55.36L46.7 60.1504H34.33L25.67 75.1504H19.9L28.56 60.1504ZM65.5 15.1504H15.5V55.1504H65.5V15.1504ZM27.27 41.9204C27.0376 42.1528 26.7616 42.3372 26.4579 42.463C26.1542 42.5888 25.8287 42.6535 25.5 42.6535C25.1713 42.6535 24.8458 42.5888 24.5421 42.463C24.2384 42.3372 23.9624 42.1528 23.73 41.9204C23.4976 41.688 23.3132 41.412 23.1874 41.1083C23.0616 40.8046 22.9968 40.4791 22.9968 40.1504C22.9968 39.8217 23.0616 39.4962 23.1874 39.1925C23.3132 38.8888 23.4976 38.6128 23.73 38.3804L35.265 26.8504L45.065 34.2004L53.55 23.5904C53.7486 23.3166 54.0007 23.086 54.291 22.9124C54.5813 22.7389 54.9039 22.6261 55.239 22.5808C55.5742 22.5356 55.9151 22.5588 56.2411 22.6491C56.567 22.7394 56.8713 22.8949 57.1354 23.1062C57.3995 23.3174 57.618 23.5801 57.7776 23.8783C57.9373 24.1765 58.0348 24.504 58.0642 24.8409C58.0936 25.1779 58.0543 25.5173 57.9488 25.8386C57.8432 26.16 57.6735 26.4565 57.45 26.7104L45.94 41.1054L35.735 33.4504L27.27 41.9154V41.9204Z" fill="#BFA4E4"/>
</g>
</svg>
