<svg
    xmlns="http://www.w3.org/2000/svg"
    width="1440"
    height="805"
    viewBox="0 0 1440 805"
    fill="none"
    class="svg-backg"
>
    <path
        d="M831.006 402.811C832.112 400.076 833.086 397.502 834.226 394.725L831.006 402.811ZM739.23 4.30466C738.809 4.17769 738.412 4.02326 737.991 3.90314C738.449 3.94433 738.901 3.9958 739.356 4.03698C739.742 4.11248 740.099 4.21544 740.482 4.29093C740.079 4.27721 739.636 4.31153 739.23 4.30466ZM717.978 2.78783C719.844 3.30603 721.644 3.92031 723.491 4.46939C721.394 4.46939 719.326 4.44193 717.155 4.53459M718.145 1.24356C717.797 1.14747 717.468 1.0205 717.12 0.927837C717.601 0.97245 718.044 1.06511 718.523 1.11316C718.851 1.17493 719.168 1.25729 719.493 1.32249C719.035 1.30533 718.606 1.25729 718.145 1.24699V1.24356ZM728.47 4.4179C727.099 3.97521 725.702 3.56684 724.32 3.14131C725.979 3.21681 727.595 3.34035 729.251 3.41928C730.696 3.76245 732.231 3.99237 733.657 4.36644C731.917 4.39732 730.201 4.40075 728.467 4.42134L728.47 4.4179ZM822.081 419.942C821.9 421.109 821.724 422.265 821.54 423.435C821.082 424.592 820.601 425.783 820.149 426.932C820.405 425.717 820.653 424.513 820.915 423.288C821.275 422.207 821.712 421.026 822.081 419.938V419.942ZM823.224 412.55L823.075 413.511L822.821 414.242C822.908 413.851 822.977 413.483 823.063 413.092C823.115 412.917 823.176 412.728 823.224 412.55ZM697.378 -0.218357C699.212 0.289539 701.029 0.821457 702.835 1.36367C700.836 1.38083 698.861 1.37054 696.822 1.43574M697.527 -1.72145C697.248 -1.79695 696.983 -1.89304 696.701 -1.96511C697.058 -1.93079 697.395 -1.86901 697.752 -1.83127C698.026 -1.77979 698.291 -1.71459 698.564 -1.66655C698.216 -1.68027 697.882 -1.71116 697.527 -1.72145ZM707.875 1.3019C706.545 0.879799 705.168 0.519466 703.823 0.117954C705.367 0.196884 706.905 0.282681 708.451 0.361607C709.871 0.680759 711.363 0.900387 712.763 1.24013C711.13 1.26758 709.491 1.29504 707.875 1.3019ZM717.155 4.53459C715.64 3.94433 714.197 3.25455 712.647 2.7192L717.155 4.53459ZM826.104 408.363C825.952 409.945 825.802 411.517 825.647 413.102C824.906 414.949 824.181 416.781 823.452 418.617C823.694 417.042 823.93 415.477 824.184 413.881C824.806 412.069 825.474 410.192 826.104 408.363ZM826.899 400.13C826.79 401.239 826.686 402.327 826.583 403.418C826.11 404.77 825.647 406.112 825.18 407.454C825.341 406.404 825.494 405.364 825.67 404.29C826.064 402.924 826.499 401.507 826.899 400.13ZM827.544 393.442C827.524 393.645 827.507 393.837 827.487 394.036L827.003 395.666C827.179 394.935 827.372 394.173 827.544 393.439V393.442ZM677.033 -4.70019C676.838 -4.75167 676.648 -4.81001 676.452 -4.86148C676.676 -4.83746 676.892 -4.80315 677.117 -4.78256C677.316 -4.74481 677.511 -4.70362 677.713 -4.66587C677.483 -4.67274 677.261 -4.6899 677.033 -4.70019ZM687.37 -1.82784C686.085 -2.22592 684.743 -2.5382 683.447 -2.91912C684.867 -2.83677 686.318 -2.79902 687.733 -2.70979C689.014 -2.41466 690.353 -2.19846 691.623 -1.88961C690.227 -1.89647 688.772 -1.82784 687.37 -1.82784ZM696.819 1.43574C695.157 0.824894 693.559 0.114525 691.871 -0.451714L696.819 1.43574ZM706.792 5.24495C704.768 4.41104 702.674 3.67665 700.615 2.88736C703.005 2.83245 705.364 2.81872 707.737 2.7844C709.716 3.42614 711.714 4.04385 713.65 4.75079C711.369 4.90865 709.067 5.09396 706.789 5.24495H706.792ZM830.067 396.977C830.001 398.816 829.935 400.656 829.866 402.502C828.936 404.794 828.095 406.973 827.182 409.245C827.354 407.416 827.524 405.594 827.714 403.744C828.501 401.489 829.264 399.255 830.067 396.977ZM830.381 388.387C830.318 389.935 830.266 391.458 830.214 392.986C829.511 394.959 828.881 396.839 828.193 398.799C828.331 397.316 828.463 395.837 828.624 394.321C829.209 392.34 829.785 390.381 830.381 388.387ZM830.666 380.611C830.62 381.661 830.589 382.68 830.554 383.703C830.088 385.237 829.673 386.706 829.215 388.229C829.298 387.33 829.367 386.458 829.477 385.522C829.872 383.885 830.263 382.261 830.669 380.611H830.666ZM830.885 374.619L830.877 374.839L830.73 375.443L830.885 374.619ZM656.666 -7.69609L656.398 -7.76816L656.626 -7.7407L656.934 -7.68237L656.663 -7.69609H656.666ZM666.985 -4.97473C665.758 -5.34193 664.474 -5.61303 663.235 -5.96307C664.523 -5.88757 665.865 -5.88414 667.141 -5.78805C668.238 -5.5444 669.324 -5.28702 670.412 -5.02964C669.304 -5.05709 668.111 -4.96787 666.988 -4.97816L666.985 -4.97473ZM676.601 -1.68027C674.914 -2.27053 673.275 -2.94658 671.567 -3.49909C673.376 -3.46134 675.115 -3.33094 676.887 -3.23828C678.687 -2.75784 680.481 -2.27396 682.258 -1.7592C680.374 -1.73518 678.511 -1.73175 676.604 -1.68027H676.601ZM686.644 1.9505C684.628 1.15091 682.537 0.474854 680.489 -0.273262C682.744 -0.307579 684.991 -0.335037 687.252 -0.37965C689.144 0.210609 691.004 0.859207 692.868 1.50094C690.831 1.60389 688.694 1.83382 686.647 1.95393L686.644 1.9505ZM695.886 6.02739C693.858 5.08366 691.903 4.02326 689.826 3.15846C692.142 3.04178 694.411 2.98001 696.663 2.93884C698.918 3.76245 701.156 4.61351 703.377 5.48517C700.894 5.64989 698.426 5.79403 695.886 6.02396V6.02739ZM834.226 394.722C834.301 396.826 834.425 398.837 834.526 400.882L834.226 394.722ZM833.996 385.69C834.048 387.697 834.096 389.712 834.151 391.719C834.042 392.001 833.944 392.265 833.826 392.553C832.867 394.88 832.08 397.001 831.142 399.3C831.214 397.296 831.28 395.295 831.363 393.267C832.273 390.7 833.063 388.291 833.999 385.69H833.996ZM833.771 376.959C833.811 378.775 833.86 380.566 833.912 382.364C833.878 382.464 833.849 382.557 833.811 382.653C832.985 384.938 832.314 387.018 831.507 389.279C831.565 387.512 831.62 385.752 831.703 383.946C832.42 381.582 833.037 379.351 833.774 376.959H833.771ZM833.558 368.72C833.581 370.237 833.63 371.705 833.673 373.181C833.022 375.278 832.504 377.189 831.87 379.266C831.911 377.876 831.945 376.493 832.023 375.031C832.556 372.896 833.011 370.875 833.558 368.72ZM833.379 361.359C833.385 362.364 833.417 363.322 833.446 364.286C833.06 365.793 832.76 367.169 832.38 368.662C832.449 367.605 832.544 366.5 832.61 365.446C832.878 364.063 833.103 362.749 833.379 361.359ZM833.448 354.44V354.76C833.402 354.969 833.374 355.158 833.33 355.367L833.336 355.302C833.374 355.01 833.408 354.732 833.448 354.44ZM646.698 -8.12849C645.544 -8.4648 644.328 -8.68786 643.168 -9.01388C644.288 -8.93838 645.472 -8.96239 646.58 -8.86974C647.686 -8.62952 648.729 -8.27262 649.829 -8.01867C648.789 -8.06329 647.758 -8.11476 646.698 -8.12849ZM656.505 -4.80658C654.863 -5.36595 653.242 -5.96307 651.583 -6.49156C653.245 -6.45037 654.863 -6.34056 656.508 -6.26849C658.259 -5.81207 660.027 -5.37967 661.761 -4.89237C660.004 -4.85462 658.262 -4.84433 656.505 -4.81001V-4.80658ZM666.585 -1.35769C664.589 -2.1264 662.501 -2.72351 660.482 -3.44418C662.587 -3.46477 664.739 -3.53684 666.844 -3.554C668.771 -2.96717 670.622 -2.25337 672.52 -1.62193C670.568 -1.57045 668.575 -1.46064 666.582 -1.35769H666.585ZM676.077 2.7192C673.966 1.78234 671.901 0.763119 669.756 -0.10511C672.037 -0.204632 674.237 -0.194332 676.452 -0.211491C678.698 0.581238 680.953 1.35337 683.165 2.20101C680.809 2.36573 678.456 2.52359 676.077 2.71577V2.7192ZM685.786 7.05005C683.528 5.9519 681.178 5.0116 678.885 3.96835C681.425 3.77961 683.971 3.58743 686.509 3.40212C688.697 4.28407 690.82 5.27241 692.96 6.23672C690.604 6.46322 688.176 6.77894 685.786 7.04661V7.05005ZM837.878 374.358L838.454 380.721C837.411 383.435 836.32 386.198 835.225 388.967C835.168 386.853 835.11 384.743 835.061 382.611C836.072 379.787 836.971 377.08 837.878 374.362V374.358ZM837.086 365.59C837.256 367.57 837.44 369.526 837.622 371.489C836.772 374.036 835.87 376.637 834.975 379.235C834.92 377.296 834.86 375.367 834.825 373.39L834.874 373.229C835.692 370.594 836.377 368.102 837.089 365.59H837.086ZM836.323 357.158C836.464 358.946 836.631 360.666 836.798 362.399C836.135 364.753 835.427 367.155 834.724 369.554C834.67 367.876 834.606 366.211 834.592 364.451C834.698 364.042 834.776 363.672 834.88 363.263C835.421 361.156 835.862 359.169 836.323 357.155V357.158ZM835.663 349.018C835.767 350.535 835.871 352.052 835.994 353.517C835.531 355.552 835.027 357.629 834.537 359.694C834.543 358.119 834.583 356.482 834.583 354.917C834.696 354.358 834.776 353.854 834.886 353.291C835.185 351.815 835.41 350.432 835.66 349.015L835.663 349.018ZM835.22 340.72C835.286 341.808 835.341 342.913 835.395 344.029C835.162 345.381 834.891 346.774 834.649 348.136L834.684 344.948C834.765 344.389 834.814 343.881 834.894 343.322C835.027 342.426 835.104 341.592 835.217 340.72H835.22ZM834.857 333.96L834.868 334.18L834.802 334.715C834.819 334.464 834.834 334.221 834.857 333.96ZM626.524 -9.71051C628.454 -9.15801 630.317 -8.4648 632.227 -7.87111C630.527 -7.84709 628.84 -7.84365 627.115 -7.78188M626.703 -11.1313C625.556 -11.4573 624.402 -11.7661 623.25 -12.0784C624.289 -12.0029 625.297 -11.8759 626.323 -11.7798C627.365 -11.5534 628.362 -11.2479 629.398 -11.0111C628.5 -11.0455 627.619 -11.1107 626.706 -11.1278L626.703 -11.1313ZM636.523 -7.94661C634.937 -8.46137 633.361 -9.00358 631.76 -9.49089C633.266 -9.43941 634.749 -9.35705 636.256 -9.30214C637.949 -8.87318 639.671 -8.49226 641.347 -8.0324C639.729 -7.98779 638.128 -7.97063 636.523 -7.94661ZM646.701 -4.64872C644.708 -5.38311 642.626 -5.93562 640.61 -6.62196C642.56 -6.62882 644.582 -6.74207 646.508 -6.71805C648.487 -6.13465 650.37 -5.36938 652.323 -4.73794C650.463 -4.72765 648.614 -4.73794 646.701 -4.64872ZM656.37 -0.606144C654.261 -1.48123 652.196 -2.43868 650.062 -3.25887C652.182 -3.33437 654.256 -3.34466 656.344 -3.36868C658.57 -2.61027 660.828 -1.90677 663.028 -1.09345C660.81 -0.932159 658.596 -0.774296 656.372 -0.606144H656.37ZM666.184 3.52222C663.912 2.47898 661.559 1.5936 659.255 0.608688C661.637 0.447399 664.062 0.231201 666.444 0.0699081C668.702 0.945 670.865 1.98481 673.079 2.93541C670.801 3.10356 668.514 3.28201 666.184 3.52222ZM675.579 8.33008C673.307 7.13584 671.095 5.83178 668.776 4.72333C671.201 4.48654 673.549 4.35271 675.91 4.19485C678.312 5.25182 680.734 6.27104 683.099 7.38979C680.602 7.69177 678.099 8.00063 675.582 8.33008H675.579ZM841.731 363.068C842.08 365.271 842.423 367.481 842.774 369.681C841.691 372.515 840.49 375.47 839.39 378.322C839.188 376.115 838.984 373.905 838.788 371.685C839.747 368.84 840.79 365.902 841.731 363.071V363.068ZM840.352 354.31C840.674 356.421 841.008 358.5 841.34 360.583C840.441 363.287 839.439 366.098 838.529 368.816C838.336 366.736 838.14 364.67 837.961 362.553C838.739 359.828 839.591 357.018 840.349 354.31H840.352ZM839.01 345.786C839.295 347.776 839.615 349.677 839.926 351.599C839.211 354.149 838.402 356.801 837.676 359.365C837.495 357.474 837.302 355.607 837.155 353.627C837.757 351.033 838.425 348.363 839.01 345.786ZM837.789 337.265C838.033 339.107 838.27 340.971 838.532 342.766C838.002 345.099 837.388 347.532 836.853 349.876C836.734 347.999 836.662 346.012 836.544 344.132C836.945 341.86 837.4 339.523 837.789 337.265ZM836.735 328.455C836.936 330.079 837.132 331.722 837.322 333.37C837 335.264 836.605 337.241 836.28 339.138C836.196 337.505 836.107 335.878 836.02 334.252C836.245 332.337 836.519 330.36 836.737 328.455H836.735ZM835.747 320.188C835.882 321.359 836.026 322.519 836.164 323.689C836.012 325.01 835.816 326.389 835.666 327.714C835.606 326.568 835.536 325.439 835.482 324.276C835.559 322.927 835.669 321.534 835.747 320.188ZM834.929 313.359L834.998 313.946C834.989 314.142 834.969 314.344 834.96 314.54C834.952 314.324 834.935 314.125 834.926 313.908V313.363L834.929 313.359ZM606.886 -14.1066C606.045 -14.3433 605.232 -14.6453 604.389 -14.8753C605.028 -14.8238 605.647 -14.738 606.284 -14.6797C607.222 -14.4772 608.135 -14.2267 609.071 -14.0208C608.34 -14.0448 607.62 -14.0894 606.886 -14.1066ZM616.666 -11.1038C615.151 -11.5842 613.628 -12.051 612.101 -12.5074C613.438 -12.4525 614.768 -12.3907 616.113 -12.3529C617.737 -11.9514 619.399 -11.622 621.015 -11.193C619.578 -11.1827 618.103 -11.1175 616.666 -11.1072V-11.1038ZM627.109 -7.77845C625.058 -8.50941 622.95 -9.12369 620.882 -9.81004L627.109 -7.77845ZM636.783 -3.94178C634.698 -4.77569 632.627 -5.63705 630.522 -6.42292C632.477 -6.47783 634.407 -6.49842 636.351 -6.53617C638.557 -5.8155 640.797 -5.17034 642.975 -4.3982C640.913 -4.24377 638.836 -4.07562 636.786 -3.94178H636.783ZM646.94 0.0904961C644.587 -0.956181 642.128 -1.7798 639.746 -2.76127C642.013 -2.89511 644.328 -3.09415 646.572 -3.19366C648.859 -2.34603 651.044 -1.29248 653.297 -0.376213C651.188 -0.238945 649.095 -0.11541 646.94 0.0904961ZM656.393 4.75422C654.106 3.61489 651.848 2.41035 649.53 1.34308C651.776 1.14404 653.985 0.999908 656.2 0.845478C658.61 1.85441 661.052 2.805 663.431 3.8757C661.087 4.1674 658.728 4.47282 656.39 4.75765L656.393 4.75422ZM666.006 9.53461C663.604 8.23742 661.113 7.12554 658.679 5.89012C661.11 5.60529 663.61 5.23466 666.029 4.96012C668.457 6.09259 670.79 7.40351 673.166 8.63551C670.792 8.91691 668.442 9.17428 666.006 9.53461ZM845.567 351.839C846.083 354.094 846.59 356.362 847.105 358.613C846.011 361.52 844.729 364.616 843.606 367.553C843.246 365.285 842.886 363.013 842.532 360.731C843.505 357.807 844.614 354.746 845.567 351.843V351.839ZM843.589 343.143C844.076 345.336 844.574 347.495 845.072 349.663C844.159 352.457 843.076 355.429 842.14 358.246C841.795 356.074 841.44 353.912 841.109 351.702C841.901 348.888 842.814 345.937 843.589 343.143ZM841.648 334.612C842.097 336.729 842.581 338.747 843.053 340.792C842.319 343.462 841.435 346.297 840.68 348.987C840.346 346.952 840.003 344.945 839.707 342.821C840.323 340.12 841.046 337.292 841.648 334.608V334.612ZM839.833 325.95C840.245 327.985 840.643 330.051 841.063 332.042C840.504 334.557 839.816 337.227 839.24 339.76C838.969 337.69 838.748 335.494 838.48 333.418C838.903 330.964 839.422 328.394 839.833 325.95ZM838.149 316.997C838.517 318.908 838.877 320.844 839.237 322.776C838.872 324.976 838.393 327.309 838.016 329.519C837.786 327.573 837.555 325.638 837.322 323.699C837.573 321.496 837.907 319.19 838.149 316.997ZM836.51 308.284C836.821 309.958 837.138 311.616 837.452 313.277C837.25 315.12 836.959 317.079 836.752 318.932C836.55 317.258 836.343 315.6 836.15 313.898C836.248 312.055 836.415 310.123 836.51 308.284ZM834.966 300.072C835.185 301.321 835.424 302.522 835.655 303.733C835.591 305.013 835.467 306.372 835.401 307.656C835.246 306.417 835.084 305.199 834.952 303.908C834.94 302.652 834.975 301.331 834.963 300.075L834.966 300.072ZM833.762 293.689C833.785 293.826 833.814 293.949 833.837 294.08C833.84 294.406 833.834 294.749 833.837 295.075L833.734 294.265C833.711 293.908 833.693 293.544 833.67 293.191C833.702 293.356 833.736 293.517 833.765 293.685L833.762 293.689ZM831.162 274.052L831.317 274.629C831.36 275.099 831.427 275.535 831.473 276.005C831.415 275.706 831.355 275.401 831.294 275.102C831.245 274.763 831.211 274.392 831.162 274.052ZM587.23 -17.1127C586.515 -17.3049 585.821 -17.5417 585.11 -17.7305C585.548 -17.6927 585.977 -17.6412 586.415 -17.6035C587.235 -17.4285 588.042 -17.2294 588.86 -17.0544C588.315 -17.0716 587.774 -17.099 587.232 -17.1162L587.23 -17.1127ZM596.961 -14.2816C595.53 -14.7174 594.084 -15.1189 592.644 -15.5376C593.802 -15.4827 594.98 -15.4655 596.132 -15.4106C597.69 -15.0366 599.288 -14.7517 600.838 -14.3536C599.573 -14.3742 598.24 -14.2816 596.964 -14.2816H596.961ZM607.611 -10.9322C605.636 -11.6083 603.657 -12.2775 601.667 -12.9123C603.366 -12.8917 605.016 -12.7922 606.684 -12.7167C608.553 -12.1917 610.382 -11.5774 612.237 -11.018C610.693 -10.9871 609.161 -10.9734 607.611 -10.9288V-10.9322ZM617.317 -7.30144C615.263 -8.08044 613.213 -8.87661 611.142 -9.611C612.919 -9.64188 614.699 -9.67277 616.487 -9.72081C618.67 -9.03103 620.905 -8.44764 623.068 -7.70982C621.182 -7.62059 619.218 -7.41126 617.317 -7.30144ZM627.812 -3.28289C625.364 -4.31583 622.846 -5.1875 620.372 -6.15868C622.59 -6.27536 624.759 -6.31997 626.924 -6.36115C629.191 -5.54783 631.386 -4.58352 633.623 -3.71529C631.691 -3.57802 629.764 -3.45448 627.812 -3.28632V-3.28289ZM637.31 1.15091C635.011 0.0802078 632.742 -1.05913 630.418 -2.06462C632.489 -2.22935 634.548 -2.38035 636.607 -2.53135C639.018 -1.5636 641.471 -0.695366 643.856 0.330719C641.702 0.567509 639.473 0.903824 637.313 1.15091H637.31ZM647.421 5.86953C644.873 4.5792 642.246 3.47075 639.668 2.25249C642.07 1.99168 644.461 1.74802 646.822 1.53869C649.233 2.61625 651.551 3.89285 653.919 5.05621C651.762 5.31359 649.61 5.56754 647.418 5.86953H647.421ZM656.721 11.0652C654.354 9.73022 652.035 8.28203 649.63 7.02945C651.839 6.73432 654.031 6.46665 656.22 6.19554C658.694 7.43096 661.202 8.5909 663.647 9.88123C661.355 10.2553 659.01 10.6945 656.718 11.0686L656.721 11.0652ZM1416.83 465.477C1417.49 464.963 1418.13 464.438 1418.78 463.923C1418.13 464.441 1417.49 464.963 1416.83 465.477ZM849.395 340.641C850.069 342.886 850.74 345.144 851.414 347.381C850.319 350.391 849.018 353.613 847.866 356.681C847.339 354.375 846.812 352.059 846.287 349.739C847.261 346.771 848.476 343.552 849.392 340.641H849.395ZM846.815 332.035C847.465 334.238 848.122 336.41 848.781 338.589C847.871 341.489 846.754 344.609 845.795 347.56C845.282 345.322 844.767 343.102 844.266 340.83C845.058 337.961 846.071 334.849 846.815 332.035ZM844.269 323.548C844.885 325.72 845.53 327.783 846.167 329.876C845.441 332.652 844.502 335.659 843.73 338.483C843.235 336.352 842.728 334.258 842.264 332.035C842.883 329.262 843.695 326.269 844.269 323.545V323.548ZM841.847 314.876C842.425 317.007 842.996 319.179 843.586 321.273C843.039 323.905 842.27 326.788 841.68 329.468C841.242 327.282 840.85 324.958 840.418 322.762C840.85 320.188 841.452 317.409 841.847 314.876ZM839.528 305.936C840.07 307.995 840.605 310.079 841.138 312.151C840.775 314.54 840.219 317.162 839.819 319.591C839.422 317.47 839.024 315.346 838.621 313.232C838.883 310.854 839.292 308.284 839.525 305.94L839.528 305.936ZM837.239 297.117C837.725 299.032 838.223 300.919 838.719 302.814C838.517 304.969 838.154 307.319 837.927 309.509C837.555 307.556 837.178 305.621 836.821 303.634C836.925 301.509 837.158 299.217 837.241 297.117H837.239ZM835.009 288.524C835.424 290.198 835.853 291.808 836.282 293.424C836.222 295.25 836.046 297.23 835.963 299.083C835.631 297.385 835.297 295.703 834.992 293.929C834.966 292.168 835.044 290.267 835.007 288.524H835.009ZM833.783 283.802L833.811 283.915C833.852 285.295 833.869 286.708 833.863 288.153C833.618 286.945 833.388 285.706 833.146 284.492C833.045 283.201 833.011 281.804 832.904 280.521C833.195 281.616 833.509 282.669 833.783 283.802ZM831.706 267.806C832.219 269.303 832.737 270.796 833.244 272.302C833.339 274.344 833.434 276.389 833.543 278.41C833.172 277.058 832.818 275.679 832.449 274.323C832.239 272.096 831.936 270.006 831.706 267.806ZM829.022 259.958C829.342 260.867 829.653 261.801 829.967 262.724C830.119 264.08 830.286 265.411 830.427 266.777C830.252 266.118 830.079 265.452 829.9 264.8C829.633 263.143 829.298 261.595 829.022 259.958ZM567.721 -20.1361C567.156 -20.2871 566.597 -20.4553 566.033 -20.5994L566.678 -20.541C567.363 -20.4003 568.046 -20.2459 568.731 -20.1018L567.718 -20.1361H567.721ZM577.366 -17.4799C576.032 -17.8746 574.679 -18.2109 573.342 -18.5884C574.304 -18.5369 575.298 -18.5575 576.251 -18.4923C577.999 -18.0805 579.782 -17.7648 581.519 -17.3255C580.139 -17.3873 578.771 -17.4696 577.366 -17.4799ZM588.255 -14.1031C586.553 -14.6694 584.891 -15.342 583.18 -15.8773C584.459 -15.8464 585.718 -15.7847 586.988 -15.7401C588.788 -15.2528 590.562 -14.7037 592.35 -14.1855C590.979 -14.1477 589.617 -14.1272 588.255 -14.0997V-14.1031ZM597.958 -10.6748C595.947 -11.4092 593.928 -12.1127 591.907 -12.8094C593.505 -12.8265 595.129 -12.8917 596.731 -12.9158C599.086 -12.1985 601.5 -11.6288 603.836 -10.8567C601.892 -10.819 599.942 -10.7709 597.96 -10.6714L597.958 -10.6748ZM608.74 -6.66314C606.353 -7.63089 603.933 -8.50255 601.526 -9.41539C603.51 -9.49775 605.451 -9.51148 607.401 -9.53893C609.636 -8.76679 611.825 -7.8814 614.039 -7.06122C612.271 -6.92738 610.511 -6.80384 608.74 -6.66657V-6.66314ZM618.328 -2.45927C616.035 -3.47506 613.751 -4.51488 611.439 -5.47919C613.325 -5.61303 615.217 -5.7606 617.115 -5.90816C619.655 -4.94041 622.245 -4.08934 624.762 -3.0564C622.636 -2.88481 620.491 -2.68233 618.331 -2.45584L618.328 -2.45927ZM628.915 2.20101C626.271 0.917545 623.538 -0.135994 620.865 -1.34396C623.152 -1.57045 625.375 -1.70086 627.61 -1.85186C630.023 -0.825771 632.365 0.378769 634.752 1.47349C632.811 1.71028 630.87 1.9505 628.915 2.20444V2.20101ZM638.237 7.16329C635.844 5.89012 633.476 4.54831 631.057 3.34378C633.076 3.08983 635.101 2.82902 637.123 2.57507C639.706 3.78304 642.327 4.91208 644.884 6.18868C642.69 6.49068 640.466 6.82355 638.237 7.16329ZM648.291 12.5134C645.633 11 642.908 9.66502 640.227 8.22026C642.641 7.8565 644.97 7.60599 647.323 7.32115C649.794 8.59089 652.179 10.0562 654.604 11.4289C652.507 11.7824 650.405 12.1393 648.294 12.5099L648.291 12.5134ZM852.932 328.744C853.79 331.036 854.648 333.335 855.512 335.614C854.349 338.926 853.289 342.131 852.076 345.494C851.385 343.202 850.694 340.899 850.008 338.596C851.062 335.23 851.935 332.055 852.934 328.744H852.932ZM849.732 320.216C850.564 322.474 851.408 324.691 852.246 326.918C851.276 330.144 850.409 333.263 849.392 336.544C848.721 334.317 848.044 332.103 847.382 329.842C848.243 326.551 848.923 323.452 849.732 320.216ZM846.57 311.791C847.365 314.022 848.188 316.129 849.003 318.273C848.226 321.41 847.546 324.447 846.722 327.635C846.074 325.504 845.412 323.414 844.79 321.19C845.458 317.971 845.951 314.955 846.573 311.788L846.57 311.791ZM843.52 303.047C844.28 305.243 845.02 307.522 845.784 309.701C845.193 312.748 844.695 315.686 844.064 318.781C843.471 316.589 842.912 314.265 842.322 312.065C842.791 308.977 843.096 306.081 843.52 303.047ZM840.53 294.083C841.25 296.228 841.967 298.397 842.69 300.549C842.296 303.417 841.985 306.187 841.553 309.1C841 306.962 840.447 304.821 839.888 302.69C840.165 299.746 840.291 296.986 840.53 294.083ZM837.55 285.157C838.221 287.213 838.903 289.227 839.586 291.249C839.373 293.925 839.231 296.513 838.992 299.231C838.471 297.244 837.947 295.271 837.44 293.249C837.532 290.48 837.492 287.885 837.552 285.161L837.55 285.157ZM834.595 276.3C835.199 278.205 835.824 280.017 836.447 281.849C836.403 284.258 836.412 286.602 836.346 289.042C835.876 287.278 835.401 285.528 834.955 283.678C834.88 281.152 834.695 278.785 834.595 276.297V276.3ZM830.335 255.737C831.133 257.618 831.925 259.515 832.717 261.41C832.849 263.603 832.93 265.871 833.042 268.091C832.392 266.19 831.749 264.279 831.093 262.391C830.845 260.167 830.6 257.933 830.335 255.737ZM826.672 247.01C827.369 248.633 828.054 250.288 828.74 251.938C828.964 253.699 829.14 255.531 829.353 257.305C828.78 255.614 828.207 253.922 827.625 252.25C827.308 250.504 827 248.74 826.672 247.007V247.01ZM823.057 238.393C823.579 239.591 824.086 240.83 824.595 242.055C824.78 242.988 824.932 243.966 825.114 244.907C824.593 243.362 824.091 241.784 823.541 240.311C823.377 239.677 823.222 239.028 823.057 238.397V238.393ZM819.627 230.222C819.774 230.548 819.91 230.905 820.054 231.238C820.088 231.372 820.12 231.513 820.154 231.646C820.039 231.355 819.921 231.07 819.806 230.778L819.625 230.222H819.627ZM548.379 -23.1766C548.021 -23.2693 547.664 -23.3654 547.304 -23.4546C547.78 -23.3585 548.26 -23.2624 548.736 -23.1629L548.379 -23.1732V-23.1766ZM558.888 -20.4347C557.35 -20.8774 555.78 -21.2274 554.234 -21.6495C555.342 -21.5843 556.428 -21.4745 557.523 -21.3818C558.945 -21.0524 560.359 -20.6852 561.776 -20.3386C560.811 -20.3695 559.858 -20.4209 558.885 -20.4381L558.888 -20.4347ZM569.04 -17.2878C567.441 -17.7957 565.872 -18.3962 564.267 -18.8801C565.327 -18.8492 566.387 -18.8012 567.453 -18.7737C569.166 -18.3207 570.874 -17.8437 572.582 -17.3633C571.395 -17.3255 570.215 -17.3015 569.042 -17.2843L569.04 -17.2878ZM579.166 -13.9109C577.063 -14.6419 574.949 -15.3248 572.838 -16.018C574.298 -16.0249 575.802 -16.1038 577.248 -16.0832C579.606 -15.3866 581.994 -14.762 584.335 -14.0173C582.619 -13.9933 580.908 -13.983 579.163 -13.9109H579.166ZM589.793 -10.0571C587.549 -10.9219 585.312 -11.7936 583.057 -12.6103C584.718 -12.6652 586.363 -12.6858 588.013 -12.7236C590.208 -11.996 592.376 -11.193 594.556 -10.4175C592.964 -10.287 591.374 -10.1669 589.793 -10.0605V-10.0571ZM599.668 -5.98366C597.315 -6.972 594.962 -7.9672 592.592 -8.90063C594.289 -9.00702 596.037 -9.19576 597.733 -9.29528C600.414 -8.3138 603.15 -7.49019 605.808 -6.44008C603.772 -6.30281 601.748 -6.17926 599.671 -5.98022L599.668 -5.98366ZM610.373 -1.46064C607.784 -2.64458 605.146 -3.67754 602.537 -4.79971C604.55 -4.98159 606.528 -5.112 608.516 -5.25613C610.926 -4.27809 613.285 -3.16278 615.672 -2.12297C613.901 -1.89991 612.133 -1.66998 610.373 -1.46064ZM619.975 3.32319C617.513 2.09806 615.073 0.807735 612.588 -0.355621C614.414 -0.564957 616.28 -0.836071 618.115 -1.0557C620.839 0.152267 623.607 1.24699 626.305 2.53046C624.206 2.77754 622.121 3.0109 619.975 3.31976V3.32319ZM630.389 8.50853C627.705 7.07407 624.96 5.82149 622.256 4.45909C624.428 4.15367 626.562 3.90315 628.704 3.64234C631.184 4.85031 633.592 6.24702 636.042 7.54078C634.159 7.86336 632.267 8.19624 630.392 8.50853H630.389ZM639.833 13.965C637.353 12.5031 634.908 10.9416 632.399 9.56893C634.263 9.26351 636.155 8.92033 638.03 8.59776C640.722 10.0288 643.438 11.3946 646.108 12.8908C644.026 13.2374 641.958 13.5635 639.833 13.965ZM856.405 317.028C857.453 319.348 858.504 321.664 859.556 323.97C858.45 327.227 857.266 330.566 856.108 333.878C855.23 331.551 854.354 329.217 853.482 326.877C854.472 323.576 855.466 320.278 856.405 317.028ZM852.569 308.575C853.594 310.875 854.631 313.126 855.662 315.391C854.746 318.569 853.761 321.822 852.796 325.051C851.938 322.769 851.074 320.508 850.221 318.191C851.019 314.969 851.814 311.75 852.569 308.579V308.575ZM848.761 300.192C849.755 302.488 850.774 304.643 851.782 306.849C851.054 309.941 850.262 313.105 849.49 316.249C848.652 314.039 847.799 311.88 846.984 309.571C847.592 306.427 848.194 303.291 848.761 300.192ZM845.063 291.413C846.025 293.695 846.964 296.087 847.926 298.356C847.385 301.345 846.789 304.396 846.207 307.429C845.418 305.127 844.655 302.714 843.865 300.411C844.28 297.395 844.686 294.385 845.061 291.413H845.063ZM841.391 282.477C842.322 284.739 843.252 287.01 844.182 289.268C843.831 292.113 843.422 295.027 843.033 297.91C842.27 295.634 841.51 293.349 840.749 291.07C840.977 288.191 841.198 285.315 841.391 282.477ZM837.708 273.52C838.604 275.741 839.505 277.913 840.409 280.092C840.237 282.769 840.009 285.521 839.805 288.236C839.067 286.043 838.321 283.864 837.596 281.619C837.642 278.905 837.691 276.194 837.711 273.52H837.708ZM834.013 264.533C834.86 266.698 835.729 268.74 836.593 270.809C836.585 273.273 836.521 275.809 836.49 278.308C835.945 276.712 835.395 275.13 834.868 273.455C834.713 272.957 834.537 272.508 834.379 272.024C834.266 269.515 834.151 267.01 834.013 264.533ZM829.059 244.629C830.108 246.701 831.15 248.795 832.193 250.891C832.368 253.16 832.389 255.662 832.538 257.968C831.646 255.823 830.753 253.678 829.848 251.557C829.56 249.285 829.37 246.863 829.059 244.629ZM824.616 235.754C825.603 237.686 826.577 239.659 827.553 241.622C827.838 243.589 827.985 245.764 828.256 247.758C827.403 245.71 826.554 243.654 825.687 241.636C825.307 239.714 825.01 237.652 824.616 235.751V235.754ZM820.111 226.749C820.99 228.431 821.845 230.184 822.703 231.931C823.037 233.465 823.285 235.133 823.605 236.684C822.79 234.683 821.98 232.662 821.122 230.764C820.768 229.46 820.471 228.046 820.108 226.749H820.111ZM815.768 218.386C816.284 219.337 816.825 220.215 817.332 221.197C817.721 222.525 818.13 223.819 818.513 225.16C817.957 224 817.395 222.861 816.842 221.691C816.471 220.617 816.146 219.453 815.768 218.386ZM540.64 -23.4134C539.318 -23.784 537.97 -24.0448 536.646 -24.4017C537.426 -24.3468 538.195 -24.261 538.975 -24.1993C540.05 -23.9522 541.101 -23.6227 542.175 -23.3688C541.662 -23.3825 541.153 -23.4031 540.64 -23.4168V-23.4134ZM549.983 -20.4964C548.488 -20.9529 547.008 -21.4642 545.51 -21.9069C546.362 -21.876 547.221 -21.8485 548.076 -21.8314C549.695 -21.4161 551.313 -21.0043 552.929 -20.5719C551.958 -20.5754 550.956 -20.5033 549.983 -20.4999V-20.4964ZM560.754 -17.1025C558.531 -17.854 556.284 -18.506 554.052 -19.2164C555.628 -19.2095 557.165 -19.1237 558.715 -19.0654C560.803 -18.4683 562.882 -17.8368 564.959 -17.202C563.559 -17.1711 562.165 -17.1505 560.757 -17.1059L560.754 -17.1025ZM570.986 -13.4751C568.916 -14.2404 566.871 -15.1052 564.792 -15.8293C566.119 -15.8567 567.447 -15.8842 568.78 -15.9219C570.923 -15.239 573.054 -14.5149 575.188 -13.7908C573.806 -13.7153 572.375 -13.554 570.989 -13.4717L570.986 -13.4751ZM581.406 -9.43254C578.909 -10.4312 576.401 -11.3989 573.889 -12.3495C575.612 -12.4387 577.311 -12.4868 579.001 -12.5245C581.582 -11.6186 584.185 -10.7949 586.746 -9.83062C584.969 -9.70365 583.198 -9.58354 581.406 -9.43254ZM591.947 -5.14632C589.436 -6.23761 586.901 -7.23968 584.376 -8.27949C586.104 -8.41676 587.829 -8.54372 589.554 -8.67756C591.947 -7.751 594.309 -6.71804 596.688 -5.74C595.124 -5.56842 593.514 -5.32134 591.947 -5.14632ZM602.064 -0.424263C599.461 -1.64939 596.866 -2.90883 594.245 -4.07219C596.016 -4.2575 597.773 -4.42909 599.513 -4.57322C602.28 -3.40643 605.094 -2.38377 607.839 -1.14492C605.918 -0.914993 604.003 -0.685074 602.064 -0.424263ZM612.585 4.48311C609.889 3.12072 607.133 1.97109 604.42 0.673897C606.335 0.426811 608.242 0.186588 610.151 -0.0502014C612.646 1.09943 615.088 2.41721 617.559 3.63547C615.92 3.89285 614.227 4.22573 612.585 4.48311ZM622.429 9.86749C619.802 8.42617 617.202 6.89218 614.555 5.52636C616.323 5.25182 618.086 4.99444 619.828 4.76108C622.596 6.14407 625.389 7.44127 628.134 8.88946C626.236 9.21204 624.344 9.52432 622.429 9.86749ZM632.497 15.4166C629.813 13.8689 627.091 12.4447 624.39 10.9485C626.346 10.6053 628.295 10.269 630.239 9.93613C632.779 11.3122 635.268 12.8462 637.779 14.315C636.037 14.6582 634.242 15.0666 632.494 15.4166H632.497ZM859.844 305.449C861.088 307.779 862.329 310.103 863.573 312.412C862.536 315.61 861.223 319.083 860.12 322.34C859.052 320 857.983 317.652 856.92 315.288C857.854 312.052 858.965 308.623 859.841 305.446L859.844 305.449ZM855.371 297.103C856.598 299.423 857.825 301.688 859.054 303.973C858.199 307.093 857.09 310.477 856.183 313.654C855.132 311.345 854.075 309.059 853.027 306.709C853.773 303.548 854.683 300.205 855.374 297.103H855.371ZM850.924 288.802C852.122 291.139 853.338 293.315 854.544 295.555C853.873 298.596 852.966 301.89 852.243 304.982C851.209 302.728 850.164 300.531 849.15 298.167C849.706 295.085 850.414 291.832 850.924 288.802ZM846.576 280.075C847.739 282.398 848.891 284.828 850.052 287.148C849.565 290.082 848.862 293.263 848.329 296.249C847.339 293.884 846.368 291.43 845.38 289.069C845.746 286.108 846.253 282.982 846.576 280.075ZM842.232 271.238C843.376 273.561 844.513 275.895 845.657 278.201C845.352 281.012 844.842 284.063 844.496 286.925C843.526 284.577 842.558 282.216 841.59 279.852C841.772 277.021 842.088 274.021 842.232 271.235V271.238ZM837.869 262.36C838.984 264.677 840.104 266.924 841.224 269.189C841.095 271.852 840.775 274.756 840.608 277.467C839.655 275.164 838.696 272.882 837.754 270.521C837.763 267.841 837.892 264.996 837.869 262.357V262.36ZM833.837 254.165C834.799 256.207 835.776 258.129 836.746 260.082C836.781 262.566 836.637 265.288 836.64 267.813C836.043 266.386 835.441 264.968 834.854 263.472C834.531 262.645 834.18 261.883 833.849 261.073C833.739 258.507 833.656 255.905 833.474 253.441C833.592 253.688 833.719 253.911 833.834 254.162L833.837 254.165ZM827.277 233.016C828.538 235.15 829.794 237.309 831.049 239.467C831.32 242.237 831.692 244.862 831.931 247.679C830.845 245.5 829.762 243.321 828.673 241.169C828.265 238.362 827.72 235.768 827.28 233.012L827.277 233.016ZM821.972 223.942C823.187 225.984 824.391 228.067 825.598 230.143C826.018 232.659 826.508 235.068 826.899 237.628C825.865 235.545 824.834 233.458 823.789 231.406C823.233 228.839 822.556 226.464 821.975 223.939L821.972 223.942ZM816.468 214.529C817.634 216.423 818.772 218.431 819.91 220.418C820.414 222.535 820.961 224.584 821.445 226.732C820.434 224.663 819.432 222.569 818.383 220.61C817.773 218.527 817.09 216.581 816.465 214.525L816.468 214.529ZM811.252 206.217C812.131 207.604 813.032 208.911 813.908 210.304C814.458 212.055 815.025 213.777 815.561 215.548C814.835 214.272 814.107 212.988 813.386 211.687C812.698 209.814 811.952 208.064 811.252 206.217ZM806.555 198.987C807.059 199.766 807.563 200.545 808.07 201.317C808.465 202.329 808.865 203.335 809.257 204.354C808.885 203.705 808.522 203.043 808.154 202.394C807.632 201.231 807.082 200.14 806.555 198.987ZM521.958 -26.4368C521.166 -26.653 520.388 -26.9138 519.599 -27.1231L519.979 -27.0922C520.895 -26.8863 521.802 -26.6289 522.721 -26.4162L521.96 -26.4368H521.958ZM531.145 -23.7051C529.751 -24.1169 528.357 -24.5527 526.96 -24.9508C527.594 -24.9234 528.247 -24.9337 528.881 -24.8993C530.618 -24.4669 532.363 -24.0689 534.094 -23.6159C533.112 -23.6468 532.141 -23.7017 531.145 -23.7051ZM542.529 -20.3146C540.453 -20.9906 538.353 -21.5362 536.271 -22.178C537.659 -22.1574 539.033 -22.0991 540.413 -22.0579C542.195 -21.5568 543.949 -20.9185 545.723 -20.3935C544.655 -20.3626 543.595 -20.3386 542.529 -20.3146ZM552.313 -16.9068C550.346 -17.6001 548.393 -18.3997 546.42 -19.0585C547.503 -19.0723 548.6 -19.11 549.695 -19.1443C551.964 -18.4477 554.234 -17.7408 556.491 -17.0064C555.106 -16.9858 553.727 -16.9789 552.313 -16.9068ZM563.303 -12.8917C560.826 -13.8389 558.332 -14.7174 555.846 -15.6165C557.43 -15.6852 558.986 -15.6989 560.552 -15.7298C562.974 -14.9096 565.399 -14.0997 567.81 -13.2349C566.304 -13.1182 564.803 -13.005 563.303 -12.8917ZM573.633 -8.84229C571.22 -9.84092 568.801 -10.819 566.376 -11.7696C567.818 -11.8691 569.27 -11.9823 570.724 -12.1059C573.239 -11.1793 575.736 -10.1772 578.238 -9.19576C576.712 -9.0928 575.191 -9.00015 573.633 -8.84572V-8.84229ZM584.278 -4.18543C581.634 -5.36252 578.987 -6.54303 576.332 -7.66177C577.982 -7.8162 579.598 -7.92259 581.222 -8.0324C583.943 -6.94111 586.697 -5.98023 589.401 -4.82374L584.281 -4.182L584.278 -4.18543ZM594.85 0.478287C592.154 -0.808613 589.418 -1.89647 586.711 -3.12159C588.367 -3.32063 590.038 -3.53684 591.705 -3.75304C594.332 -2.61027 596.915 -1.31651 599.524 -0.108536C597.975 0.0767784 596.434 0.24493 594.85 0.478287ZM605.117 5.75971C602.424 4.37672 599.749 2.91824 597.045 1.60733C598.68 1.37054 600.282 1.18866 601.889 0.996479C604.668 2.30397 607.476 3.5085 610.238 4.88805C608.533 5.17975 606.825 5.47488 605.12 5.76315L605.117 5.75971ZM615.433 11.0686C612.686 9.57579 609.907 8.23743 607.148 6.80296C608.893 6.51469 610.653 6.19897 612.409 5.89698C615.062 7.24565 617.66 8.80366 620.292 10.2347C618.679 10.5024 617.078 10.7529 615.433 11.0652V11.0686ZM625.608 16.8819C622.913 15.2828 620.229 13.6355 617.516 12.1359C619.114 11.8373 620.684 11.5834 622.259 11.3157C625.004 12.8188 627.757 14.291 630.484 15.8456C628.86 16.1922 627.23 16.5422 625.611 16.8819H625.608ZM862.994 293.568C864.423 295.885 865.857 298.181 867.288 300.477C866.208 303.963 865.261 307.316 864.112 310.871C862.85 308.527 861.589 306.18 860.327 303.812C861.281 300.329 862.107 296.98 862.994 293.568ZM857.879 285.332C859.291 287.645 860.708 289.886 862.122 292.161C861.24 295.573 860.483 298.857 859.538 302.337C858.291 300.017 857.041 297.721 855.797 295.356C856.549 291.956 857.191 288.668 857.879 285.332ZM852.782 277.13C854.17 279.464 855.567 281.626 856.964 283.857C856.284 287.192 855.714 290.404 854.971 293.809C853.738 291.527 852.5 289.313 851.281 286.925C851.831 283.603 852.292 280.387 852.785 277.13H852.782ZM847.759 268.421C849.119 270.747 850.469 273.15 851.826 275.487C851.342 278.743 850.965 281.877 850.423 285.198C849.231 282.8 848.047 280.336 846.858 277.951C847.209 274.715 847.463 271.595 847.756 268.424L847.759 268.421ZM842.711 259.649C844.05 261.986 845.389 264.316 846.731 266.633C846.443 269.811 846.279 272.834 845.939 276.077C844.761 273.692 843.583 271.297 842.408 268.894C842.561 265.747 842.607 262.734 842.711 259.653V259.649ZM837.619 250.806C838.938 253.146 840.26 255.408 841.582 257.69C841.489 260.778 841.538 263.685 841.397 266.839C840.234 264.481 839.062 262.148 837.904 259.728C837.861 256.681 837.705 253.791 837.619 250.802V250.806ZM833.857 244.272C834.69 245.775 835.528 247.189 836.363 248.623C836.461 251.574 836.683 254.354 836.737 257.36C836.101 256.087 835.464 254.824 834.834 253.489C834.344 252.453 833.829 251.495 833.33 250.483C833.1 247.546 832.743 244.79 832.475 241.907C832.933 242.707 833.405 243.455 833.857 244.272ZM825.292 221.615C826.819 223.86 828.339 226.132 829.86 228.403C830.174 231.08 830.45 233.815 830.73 236.537C829.382 234.22 828.037 231.9 826.68 229.611C826.234 226.924 825.77 224.254 825.292 221.612V221.615ZM819.204 212.562C820.71 214.755 822.202 217.01 823.7 219.244C824.158 221.705 824.569 224.237 825.001 226.739C823.662 224.429 822.329 222.103 820.975 219.852C820.393 217.408 819.812 214.965 819.204 212.562ZM812.888 203.173C814.383 205.277 815.846 207.532 817.315 209.755C817.871 211.904 818.375 214.145 818.91 216.327C817.594 214.062 816.275 211.801 814.924 209.646C814.248 207.484 813.579 205.301 812.885 203.173H812.888ZM806.86 194.965C808.139 196.718 809.426 198.427 810.708 200.164C811.342 202.051 811.918 204.048 812.537 205.963C811.379 204.193 810.224 202.418 809.069 200.627C808.335 198.74 807.609 196.825 806.86 194.961V194.965ZM800.896 186.9C801.987 188.365 803.076 189.848 804.168 191.324C804.758 192.755 805.305 194.278 805.884 195.726C804.862 194.148 803.842 192.552 802.814 190.998C802.172 189.639 801.544 188.249 800.896 186.9ZM795.018 178.952C795.787 179.958 796.544 181.011 797.307 182.048C797.575 182.593 797.829 183.187 798.097 183.736C797.224 182.398 796.354 181.056 795.467 179.772C795.315 179.501 795.168 179.223 795.018 178.956V178.952ZM503.367 -29.491L503.163 -29.5459L503.41 -29.4876H503.364L503.367 -29.491ZM513.387 -26.6735C511.803 -27.1265 510.219 -27.5761 508.632 -28.0119C509.191 -27.9845 509.738 -27.9227 510.294 -27.8849C512.111 -27.4423 513.94 -27.0751 515.754 -26.6083C514.965 -26.6289 514.182 -26.6632 513.387 -26.6735ZM524.492 -23.5541C522.582 -24.1478 520.656 -24.5974 518.743 -25.1704C519.711 -25.1464 520.676 -25.1155 521.644 -25.0915C523.314 -24.6385 524.97 -24.0826 526.635 -23.609C525.918 -23.585 525.2 -23.561 524.489 -23.5541H524.492ZM534.474 -20.1189C532.354 -20.8327 530.246 -21.622 528.121 -22.305C529.048 -22.305 529.993 -22.3496 530.914 -22.3358C533.302 -21.6289 535.698 -20.9563 538.08 -20.2082C536.879 -20.1807 535.686 -20.1704 534.477 -20.1189H534.474ZM545.352 -16.3784C542.958 -17.25 540.557 -18.0222 538.16 -18.8526C539.54 -18.8938 540.911 -18.9178 542.287 -18.9556C544.534 -18.2281 546.763 -17.425 549.001 -16.6563C547.777 -16.5534 546.558 -16.4573 545.349 -16.3784H545.352ZM555.97 -12.3392C553.493 -13.3104 551.025 -14.3536 548.546 -15.2768C549.718 -15.3454 550.924 -15.4758 552.094 -15.5273C554.732 -14.5973 557.367 -13.6295 559.999 -12.6446C558.66 -12.5485 557.327 -12.4593 555.973 -12.3392H555.97ZM566.617 -7.9672C564.008 -9.06192 561.393 -10.1429 558.778 -11.1862C560.218 -11.3063 561.647 -11.4092 563.081 -11.519C565.713 -10.5101 568.36 -9.58011 570.981 -8.51284C569.521 -8.3241 568.06 -8.13192 566.617 -7.9672ZM577.55 -3.34809C574.753 -4.6041 571.945 -5.74 569.14 -6.93424C570.563 -7.08867 572.018 -7.30144 573.432 -7.44557C576.179 -6.30967 578.901 -5.06052 581.637 -3.85942C580.277 -3.6947 578.924 -3.53683 577.553 -3.34809H577.55ZM587.912 1.63135C585.216 0.341019 582.529 -1.02138 579.828 -2.25337C581.251 -2.44211 582.662 -2.6137 584.079 -2.78872C586.861 -1.54987 589.669 -0.437984 592.437 0.86607C590.93 1.12345 589.407 1.39798 587.912 1.63477V1.63135ZM598.752 6.84071C595.849 5.3685 592.923 4.05072 590.009 2.63684C591.558 2.39662 593.128 2.12208 594.666 1.89902C597.428 3.22367 600.152 4.73363 602.9 6.13034C601.52 6.36027 600.143 6.59019 598.75 6.84071H598.752ZM608.988 12.3624C606.289 10.8867 603.611 9.27037 600.898 7.87366C602.246 7.63687 603.588 7.40694 604.933 7.17702C607.706 8.60462 610.497 9.97044 613.259 11.4564C611.848 11.7412 610.396 12.081 608.988 12.3624ZM619.471 18.1791C616.585 16.5456 613.691 14.9499 610.797 13.3644C612.309 13.0659 613.818 12.7776 615.31 12.5099C618.112 14.0439 620.897 15.6568 623.682 17.2835C622.279 17.5786 620.882 17.8703 619.474 18.1791H619.471ZM865.943 281.616C867.582 283.939 869.218 286.228 870.854 288.527C869.843 291.966 868.829 295.408 867.749 298.915C866.298 296.588 864.849 294.268 863.397 291.914C864.296 288.424 865.108 285.03 865.94 281.612L865.943 281.616ZM860.163 273.479C861.79 275.813 863.409 278.05 865.033 280.332C864.218 283.699 863.403 287.069 862.525 290.504C861.088 288.198 859.651 285.926 858.216 283.568C858.91 280.15 859.527 276.825 860.163 273.476V273.479ZM854.403 265.305C856.01 267.666 857.612 269.879 859.216 272.148C858.597 275.442 857.977 278.737 857.301 282.096C855.881 279.807 854.464 277.573 853.05 275.185C853.545 271.842 853.966 268.585 854.403 265.305ZM848.687 256.691C850.265 259.045 851.84 261.468 853.418 263.826C852.995 267.038 852.569 270.253 852.091 273.527C850.703 271.132 849.314 268.682 847.926 266.293C848.22 263.047 848.447 259.879 848.687 256.695V256.691ZM842.935 248.019C844.502 250.401 846.071 252.762 847.641 255.113C847.414 258.218 847.174 261.338 846.898 264.502C845.518 262.117 844.136 259.718 842.757 257.305C842.849 254.169 842.892 251.097 842.938 248.019H842.935ZM837.126 239.265C838.684 241.67 840.242 243.97 841.797 246.31C841.763 249.296 841.705 252.305 841.628 255.346C840.254 252.975 838.877 250.634 837.506 248.191C837.406 245.181 837.267 242.223 837.126 239.265ZM833.878 234.368C834.546 235.411 835.211 236.396 835.879 237.388C836.026 240.229 836.141 243.112 836.248 246.008C835.767 245.188 835.286 244.371 834.808 243.506C833.941 241.945 833.042 240.49 832.161 238.977C831.879 236.108 831.568 233.28 831.251 230.462C832.127 231.77 833.014 233.019 833.878 234.368ZM823.409 210.744C825.18 213.033 826.945 215.363 828.714 217.683C829.074 220.287 829.255 223.143 829.581 225.799C827.982 223.414 826.387 221.022 824.783 218.664C824.296 216.066 823.924 213.293 823.409 210.747V210.744ZM816.603 201.842C818.366 204.1 820.12 206.43 821.874 208.736C822.378 211.152 822.715 213.825 823.187 216.289C821.586 213.894 819.99 211.468 818.375 209.134C817.755 206.749 817.246 204.182 816.603 201.842ZM809.605 192.737C811.31 194.851 812.995 197.103 814.682 199.33C815.322 201.595 815.869 204.014 816.482 206.32C814.901 203.993 813.32 201.687 811.719 199.457C810.985 197.267 810.357 194.889 809.602 192.737H809.605ZM802.828 184.611C804.315 186.409 805.801 188.184 807.29 189.958C808.067 192.127 808.816 194.347 809.576 196.55C808.102 194.563 806.627 192.576 805.158 190.579C804.358 188.636 803.646 186.519 802.828 184.608V184.611ZM795.994 176.416C797.299 177.964 798.601 179.536 799.902 181.1C800.755 183.046 801.625 184.958 802.46 186.934C801.063 185.033 799.666 183.118 798.261 181.258C797.486 179.69 796.781 177.964 795.994 176.416ZM788.993 168.022C790.024 169.213 791.046 170.469 792.069 171.711C792.861 173.225 793.705 174.621 794.485 176.159C793.25 174.474 792.011 172.792 790.755 171.19C790.156 170.16 789.592 169.041 788.99 168.022H788.993ZM782.758 160.867C783.089 161.241 783.42 161.581 783.751 161.955C784.325 162.895 784.918 163.784 785.488 164.728C785.065 164.209 784.638 163.691 784.212 163.163C783.72 162.425 783.253 161.601 782.758 160.867ZM495.879 -29.6729C494.566 -30.0366 493.25 -30.3695 491.937 -30.723C492.325 -30.699 492.708 -30.6578 493.097 -30.6338C494.603 -30.2734 496.115 -30.0058 497.622 -29.6317C497.04 -29.642 496.458 -29.6626 495.876 -29.6729H495.879ZM506.221 -26.8005C504.652 -27.2707 503.082 -27.7237 501.51 -28.1766C502.028 -28.1595 502.549 -28.1492 503.068 -28.1389C504.629 -27.7305 506.181 -27.2501 507.742 -26.8245C507.244 -26.8314 506.725 -26.7971 506.221 -26.7971V-26.8005ZM516.857 -23.3516C514.769 -24.0277 512.684 -24.7346 510.596 -25.3798C511.448 -25.3729 512.287 -25.3352 513.133 -25.3146C515.371 -24.6763 517.615 -24.0998 519.847 -23.4271C518.85 -23.3997 517.856 -23.3791 516.857 -23.3516ZM527.571 -19.8753C525.287 -20.6715 522.994 -21.3406 520.705 -22.1025C521.868 -22.1231 523.032 -22.154 524.204 -22.1951C526.324 -21.5328 528.42 -20.7126 530.534 -20.0194C529.558 -19.9885 528.561 -19.9302 527.573 -19.8753H527.571ZM538.492 -15.8499C536.052 -16.7627 533.619 -17.7957 531.176 -18.6673C532.207 -18.7154 533.218 -18.7257 534.238 -18.7463C536.795 -17.8849 539.356 -17.0167 541.907 -16.1107C540.767 -16.018 539.632 -15.9391 538.492 -15.8499ZM549.099 -11.7593C546.541 -12.7819 543.978 -13.7462 541.418 -14.7208C542.647 -14.8101 543.877 -14.9061 545.113 -15.0057C547.725 -14.0585 550.331 -13.1045 552.935 -12.1024C551.665 -12.0029 550.389 -11.8897 549.099 -11.7558V-11.7593ZM560.394 -7.18819C557.586 -8.38587 554.772 -9.5149 551.958 -10.6577C553.24 -10.7812 554.493 -10.8636 555.751 -10.9494C558.461 -9.88897 561.163 -8.73933 563.867 -7.62059C562.707 -7.47303 561.552 -7.33233 560.394 -7.18819ZM570.811 -2.50045C568.129 -3.71528 565.448 -4.95757 562.761 -6.12436C563.971 -6.26849 565.183 -6.42292 566.401 -6.58078C569.284 -5.37281 572.182 -4.30555 575.056 -3.03237C573.65 -2.86765 572.251 -2.71322 570.811 -2.50045ZM582.187 2.61282C579.209 1.18179 576.211 -0.046772 573.227 -1.41603C574.618 -1.61507 575.983 -1.77293 577.348 -1.93765C580.113 -0.691933 582.852 0.725372 585.608 2.02943C584.465 2.22504 583.324 2.42064 582.187 2.61282ZM592.563 7.90454C589.804 6.4941 587.054 4.97385 584.289 3.62518C585.421 3.43987 586.567 3.2374 587.711 3.03836C590.625 4.43507 593.548 5.7803 596.454 7.23878C595.164 7.45155 593.88 7.65402 592.563 7.90454ZM603.464 13.5394C600.518 11.9574 597.56 10.4852 594.608 8.96152C595.956 8.71443 597.278 8.4948 598.606 8.27517C601.411 9.69934 604.193 11.2882 606.989 12.7913C605.811 13.0453 604.633 13.2958 603.464 13.5394ZM614.045 19.3391C611.159 17.685 608.268 16.0995 605.374 14.5278C606.505 14.2979 607.654 14.0473 608.801 13.7968C611.698 15.3651 614.587 16.9918 617.478 18.6115C616.338 18.8483 615.203 19.0782 614.048 19.3391H614.045ZM868.849 269.852C870.695 272.172 872.536 274.44 874.382 276.732C873.457 280.068 872.294 283.644 871.3 287.048C869.644 284.721 867.988 282.412 866.332 280.054C867.147 276.681 868.103 273.157 868.849 269.852ZM862.41 261.842C864.247 264.179 866.076 266.403 867.907 268.682C867.173 271.942 866.217 275.445 865.419 278.774C863.775 276.461 862.127 274.196 860.483 271.828C861.102 268.527 861.854 265.075 862.41 261.842ZM855.99 253.733C857.81 256.097 859.619 258.345 861.436 260.631C860.892 263.819 860.137 267.24 859.535 270.497C857.908 268.181 856.281 265.895 854.651 263.493C855.074 260.267 855.621 256.894 855.99 253.736V253.733ZM849.594 245.263C851.391 247.628 853.188 250.044 854.982 252.401C854.631 255.504 854.075 258.839 853.669 262.01C852.062 259.605 850.452 257.144 848.845 254.735C849.072 251.605 849.421 248.328 849.597 245.263H849.594ZM843.154 236.736C844.948 239.131 846.74 241.495 848.528 243.856C848.367 246.856 848.007 250.095 847.794 253.156C846.187 250.747 844.58 248.338 842.975 245.895C843.01 242.872 843.166 239.697 843.154 236.736ZM836.651 228.125C838.445 230.555 840.225 232.868 842.011 235.222C842.034 238.108 841.864 241.238 841.838 244.179C840.234 241.77 838.63 239.409 837.023 236.921C836.873 234.021 836.841 230.963 836.648 228.122L836.651 228.125ZM833.901 224.484C834.407 225.174 834.909 225.83 835.413 226.488C835.611 229.241 835.623 232.243 835.778 235.051C835.447 234.556 835.119 234.073 834.788 233.554C833.532 231.595 832.245 229.773 830.972 227.882C830.649 225.119 830.439 222.188 830.073 219.481C831.349 221.149 832.633 222.758 833.901 224.484ZM820.826 199.364C822.824 201.66 824.82 204 826.819 206.327C827.308 209.316 827.91 212.14 828.351 215.198C826.545 212.834 824.742 210.452 822.934 208.112C822.303 205.088 821.502 202.322 820.826 199.364ZM813.142 190.438C815.146 192.703 817.139 195.071 819.138 197.405C819.797 200.225 820.543 202.916 821.162 205.799C819.348 203.407 817.537 200.984 815.711 198.667C814.91 195.829 813.98 193.214 813.142 190.438ZM805.305 181.547C807.269 183.709 809.231 185.929 811.189 188.17C811.99 190.764 812.842 193.276 813.611 195.922C811.837 193.643 810.054 191.413 808.266 189.216C807.318 186.584 806.281 184.124 805.305 181.547ZM797.584 173.269C799.43 175.256 801.279 177.229 803.122 179.213C804.044 181.598 804.994 183.938 805.893 186.375C804.214 184.361 802.535 182.35 800.856 180.335C799.796 177.919 798.667 175.644 797.584 173.273V173.269ZM789.658 164.772C791.427 166.632 793.186 168.547 794.949 170.448C795.928 172.549 796.919 174.625 797.878 176.766C796.248 174.8 794.623 172.816 792.99 170.905C791.899 168.815 790.764 166.828 789.658 164.776V164.772ZM781.361 155.87C783.031 157.586 784.696 159.419 786.361 161.234C787.262 162.868 788.152 164.515 789.042 166.169C787.576 164.429 786.101 162.754 784.627 161.083C783.55 159.319 782.447 157.61 781.361 155.87ZM774.072 148.671C775.235 149.834 776.402 150.984 777.565 152.119C778.389 153.406 779.201 154.728 780.019 156.028C778.953 154.875 777.894 153.705 776.831 152.535C775.918 151.231 774.988 149.961 774.072 148.671ZM767.263 141.948C767.819 142.497 768.378 143.053 768.934 143.598C769.236 144.014 769.533 144.446 769.835 144.865C769.187 144.158 768.539 143.423 767.885 142.727L767.261 141.948H767.263ZM478.634 -32.6928C477.637 -32.957 476.647 -33.1801 475.65 -33.4409L476.238 -33.3963C477.203 -33.1698 478.167 -32.9124 479.129 -32.6791C478.962 -32.6825 478.798 -32.6859 478.631 -32.6894L478.634 -32.6928ZM488.881 -29.8342C487.378 -30.2666 485.871 -30.7916 484.371 -31.2137C484.477 -31.2069 484.59 -31.2103 484.696 -31.2069C486.453 -30.7607 488.21 -30.2734 489.964 -29.8101C489.601 -29.817 489.244 -29.8307 488.881 -29.8342ZM499.453 -26.6049C497.547 -27.1952 495.64 -27.7854 493.737 -28.3517C494.364 -28.3414 494.992 -28.3208 495.623 -28.307C497.679 -27.7374 499.741 -27.2672 501.798 -26.6701C501.014 -26.6392 500.234 -26.6186 499.456 -26.6049H499.453ZM510.656 -23.1835C508.263 -23.9762 505.876 -24.6179 503.485 -25.3764C504.289 -25.3832 505.118 -25.4416 505.922 -25.445C508.194 -24.7621 510.461 -23.9556 512.733 -23.2384C512.042 -23.2212 511.351 -23.2144 510.656 -23.1835ZM521.2 -19.3811C518.862 -20.2082 516.523 -21.1279 514.187 -21.9206C514.994 -21.9481 515.794 -21.9618 516.601 -21.9858C519.06 -21.1896 521.523 -20.4347 523.979 -19.5973C523.049 -19.515 522.125 -19.4429 521.2 -19.3811ZM532.274 -15.3694C529.598 -16.3784 526.923 -17.3152 524.247 -18.2795C525.258 -18.3413 526.298 -18.4614 527.309 -18.5198C529.981 -17.5863 532.651 -16.5877 535.324 -15.6062C534.307 -15.5307 533.296 -15.4655 532.274 -15.3729V-15.3694ZM543.388 -11.0455C540.715 -12.1127 538.042 -13.2246 535.37 -14.2507C536.337 -14.3296 537.296 -14.3983 538.258 -14.4738C540.916 -13.4751 543.578 -12.4456 546.236 -11.3989C545.283 -11.272 544.332 -11.1518 543.39 -11.0455H543.388ZM554.352 -6.42635C551.518 -7.62746 548.681 -8.85601 545.847 -10.0091C546.841 -10.1155 547.866 -10.2836 548.86 -10.39C551.84 -9.19576 554.83 -8.11133 557.808 -6.85875C556.659 -6.71805 555.512 -6.58421 554.355 -6.42635H554.352ZM565.722 -1.63223C562.767 -2.95687 559.812 -4.10307 556.854 -5.37281C557.966 -5.52038 559.069 -5.65421 560.175 -5.79148C562.925 -4.61783 565.667 -3.32064 568.412 -2.08865C567.51 -1.92736 566.609 -1.7695 565.719 -1.63223H565.722ZM576.533 3.58057C573.619 2.20101 570.71 0.687626 567.795 -0.633591C568.743 -0.777725 569.708 -0.956177 570.647 -1.08658C573.694 0.296402 576.752 1.57644 579.793 3.02462C578.708 3.2065 577.625 3.38496 576.533 3.58057ZM587.535 8.88602C584.571 7.41724 581.611 6.0171 578.647 4.59979L582.014 4.02326C584.805 5.3685 587.581 6.8716 590.363 8.2889C589.433 8.47079 588.465 8.70414 587.535 8.88946V8.88602ZM598.588 14.5793C595.564 12.9972 592.543 11.3569 589.516 9.84347C590.495 9.65129 591.452 9.50373 592.411 9.34244C595.403 10.8764 598.401 12.3898 601.388 13.9821L598.588 14.5793ZM609.204 20.372C606.281 18.79 603.36 17.1222 600.434 15.5848C601.388 15.3857 602.344 15.1798 603.303 14.9739C606.24 16.5559 609.181 18.0933 612.11 19.7509C611.148 19.9499 610.189 20.1421 609.204 20.3686V20.372ZM871.436 257.913C873.48 260.198 875.516 262.443 877.558 264.708C876.645 268.232 875.796 271.695 874.805 275.301C872.942 272.982 871.081 270.693 869.218 268.349C870.01 264.814 870.718 261.365 871.436 257.913ZM864.325 250.027C866.367 252.343 868.388 254.536 870.419 256.784C869.71 260.246 869.062 263.637 868.276 267.178C866.421 264.872 864.573 262.628 862.712 260.257C863.3 256.794 863.809 253.414 864.325 250.027ZM857.226 241.972C859.247 244.306 861.258 246.585 863.271 248.856C862.764 252.254 862.32 255.572 861.739 259.045C859.904 256.722 858.067 254.409 856.223 252.014C856.606 248.609 856.909 245.301 857.226 241.972ZM850.109 233.609C852.114 235.957 854.127 238.345 856.131 240.682C855.82 244.021 855.593 247.264 855.215 250.679C853.392 248.283 851.561 245.83 849.738 243.424C849.916 240.085 849.991 236.869 850.109 233.606V233.609ZM842.932 225.174C844.943 227.559 846.944 229.9 848.949 232.243C848.842 235.517 848.842 238.664 848.672 242.014C846.846 239.605 845.02 237.199 843.189 234.752C843.163 231.482 843.016 228.369 842.932 225.171V225.174ZM835.669 216.639C837.685 219.066 839.681 221.361 841.682 223.709C841.78 226.917 842.011 229.958 842.048 233.242C840.219 230.826 838.393 228.465 836.556 225.97C836.326 222.772 835.954 219.766 835.669 216.639ZM833.921 214.587C834.05 214.745 834.18 214.893 834.312 215.047C834.612 218.173 835.056 221.104 835.3 224.309C835.122 224.069 834.94 223.836 834.759 223.592C833.123 221.365 831.464 219.278 829.82 217.134C829.385 214.014 828.792 211.121 828.308 208.07C830.18 210.236 832.055 212.339 833.918 214.591L833.921 214.587ZM826.37 196.804C828.619 199.131 830.868 201.43 833.114 203.822C833.469 206.794 833.777 209.827 834.079 212.871C832.026 210.421 829.961 208.074 827.899 205.692C827.409 202.7 826.902 199.735 826.37 196.807V196.804ZM818.141 188.249C820.399 190.569 822.651 192.936 824.906 195.28C825.439 198.122 825.914 201.046 826.401 203.949C824.328 201.536 822.26 199.107 820.183 196.725C819.515 193.88 818.85 191.032 818.141 188.249ZM809.72 179.484C811.984 181.77 814.25 184.189 816.514 186.553C817.211 189.23 817.836 192.024 818.493 194.759C816.399 192.308 814.305 189.814 812.203 187.453C811.379 184.786 810.573 182.092 809.717 179.484H809.72ZM801.201 170.932C803.427 173.122 805.648 175.315 807.871 177.562C808.704 180.04 809.452 182.655 810.253 185.184C808.202 182.885 806.146 180.665 804.093 178.417C803.128 175.922 802.192 173.376 801.201 170.932ZM792.694 162.717C794.851 164.8 797.005 166.872 799.162 168.959C800.116 171.265 800.985 173.722 801.913 176.076C799.908 173.914 797.901 171.77 795.893 169.621C794.822 167.325 793.785 164.964 792.694 162.713V162.717ZM783.956 154.281C786.067 156.279 788.178 158.345 790.289 160.397C791.311 162.463 792.253 164.69 793.258 166.797C791.262 164.638 789.267 162.459 787.268 160.373C786.156 158.358 785.085 156.262 783.956 154.281ZM775.025 145.774C777.035 147.627 779.045 149.546 781.053 151.481C782.052 153.2 782.977 155.084 783.962 156.831C782.118 154.909 780.269 153.07 778.423 151.2C777.28 149.415 776.177 147.535 775.025 145.778V145.774ZM766.664 138.303C768.358 139.83 770.051 141.337 771.745 142.844C772.735 144.319 773.663 145.963 774.642 147.463C773.021 145.867 771.396 144.261 769.775 142.658C768.729 141.231 767.716 139.714 766.664 138.307V138.303ZM758.315 130.843C759.683 132.051 761.048 133.283 762.416 134.508C763.165 135.493 763.879 136.581 764.625 137.576C763.18 136.141 761.734 134.683 760.285 133.293C759.623 132.493 758.975 131.635 758.312 130.843H758.315ZM750.001 123.413C750.611 123.942 751.225 124.508 751.838 125.053C752.135 125.393 752.437 125.702 752.728 126.045C752.086 125.441 751.435 124.889 750.79 124.288C750.525 124.003 750.266 123.698 750.001 123.413ZM472.062 -32.8369C471.293 -33.0497 470.518 -33.2899 469.749 -33.5027C470.645 -33.2762 471.54 -33.0566 472.436 -32.8301L472.062 -32.8404V-32.8369ZM482.277 -29.8959C480.575 -30.4004 478.876 -30.874 477.177 -31.3647C477.577 -31.3544 477.977 -31.3476 478.378 -31.3407C480.198 -30.8534 482.015 -30.4484 483.832 -29.9405C483.32 -29.9405 482.79 -29.8994 482.274 -29.8959H482.277ZM493.788 -26.4505C491.551 -27.1643 489.322 -27.8266 487.087 -28.5095C487.605 -28.5095 488.12 -28.4855 488.636 -28.4718C490.805 -27.8472 492.973 -27.1403 495.142 -26.4882L493.788 -26.4505ZM504.093 -22.9398C501.878 -23.6879 499.661 -24.4807 497.449 -25.2013C498.025 -25.2151 498.604 -25.2322 499.185 -25.2528C501.567 -24.5184 503.946 -23.8424 506.328 -23.0702C505.591 -23.0462 504.836 -22.981 504.093 -22.9398ZM515.777 -18.9624C513.053 -19.9474 510.337 -20.8019 507.612 -21.7422C508.56 -21.7868 509.493 -21.7971 510.429 -21.8211C512.914 -20.994 515.403 -19.992 517.888 -19.1272L515.774 -18.9624H515.777ZM526.534 -14.9267C524.023 -15.8842 521.505 -16.948 518.997 -17.8677C519.645 -17.9158 520.296 -17.9673 520.947 -18.0222C523.619 -17.0784 526.292 -16.1107 528.965 -15.1189C528.158 -15.064 527.355 -15.0091 526.534 -14.9267ZM538.06 -10.3763C535.18 -11.5396 532.297 -12.6721 529.42 -13.7874C530.312 -13.8732 531.188 -13.9281 532.069 -13.9933C534.943 -12.9089 537.815 -11.845 540.689 -10.7057C539.811 -10.5925 538.935 -10.4827 538.06 -10.3763ZM549.424 -5.80864C546.495 -7.05779 543.578 -8.15594 540.654 -9.35361C541.484 -9.4497 542.316 -9.55952 543.154 -9.66933C545.988 -8.53 548.819 -7.28085 551.656 -6.09005C550.916 -6.00425 550.179 -5.92189 549.427 -5.80864H549.424ZM560.63 -0.764C557.692 -2.08522 554.749 -3.4682 551.814 -4.73451C552.606 -4.84433 553.384 -4.94041 554.167 -5.03307C557.194 -3.74617 560.224 -2.55536 563.248 -1.21012C562.372 -1.05913 561.5 -0.908131 560.63 -0.764ZM572 4.35614C568.936 2.91138 565.88 1.60732 562.822 0.220905C563.709 0.0767708 564.607 -0.077652 565.506 -0.238945C568.42 1.06854 571.332 2.5991 574.244 3.97179C573.498 4.09533 572.755 4.21544 572 4.35614ZM583.224 9.79886C580.225 8.31292 577.227 6.7858 574.232 5.36163C574.946 5.23122 575.655 5.11455 576.363 4.99444C579.37 6.42204 582.377 7.85993 585.384 9.34244C584.661 9.49686 583.938 9.65473 583.226 9.79886H583.224ZM594.389 15.4681C591.305 13.8758 588.217 12.3109 585.133 10.77C585.867 10.6225 586.613 10.4612 587.359 10.2965C590.435 11.827 593.508 13.409 596.581 15.0048C595.852 15.1592 595.124 15.3068 594.389 15.4715V15.4681ZM605.664 21.2299C602.554 19.5484 599.449 18.0762 596.339 16.4564C597.039 16.3054 597.736 16.1613 598.433 16.0103C601.382 17.5511 604.319 19.2395 607.266 20.8284C606.733 20.9623 606.191 21.103 605.664 21.2265V21.2299ZM873.731 245.874C875.995 248.146 878.247 250.373 880.505 252.621C879.664 256.139 878.843 259.635 877.918 263.235C875.856 260.946 873.797 258.685 871.729 256.375C872.461 252.806 873.077 249.361 873.731 245.878V245.874ZM865.938 238.112C868.207 240.425 870.442 242.6 872.691 244.838C872.055 248.283 871.43 251.719 870.716 255.246C868.659 252.968 866.614 250.751 864.547 248.403C865.068 244.907 865.488 241.53 865.938 238.112ZM858.15 230.126C860.391 232.449 862.634 234.769 864.863 237.044C864.426 240.418 863.999 243.781 863.49 247.233C861.453 244.924 859.409 242.583 857.361 240.215C857.678 236.79 857.9 233.469 858.147 230.123L858.15 230.126ZM850.331 221.907C852.566 224.251 854.809 226.629 857.038 228.959C856.805 232.257 856.566 235.555 856.267 238.928C854.23 236.554 852.186 234.127 850.147 231.739C850.253 228.407 850.288 225.16 850.331 221.907ZM842.44 213.616C844.689 216.001 846.924 218.335 849.162 220.679C849.127 223.877 849.078 227.099 848.983 230.373C846.938 227.981 844.896 225.596 842.846 223.163C842.748 219.93 842.595 216.773 842.44 213.616ZM834.456 205.225C836.72 207.665 838.949 209.951 841.193 212.309C841.357 215.401 841.489 218.534 841.599 221.698C839.545 219.292 837.506 216.952 835.439 214.46C835.139 211.341 834.808 208.276 834.456 205.229V205.225ZM824.492 185.901C826.96 188.197 829.428 190.496 831.896 192.84C832.311 195.716 832.538 198.849 832.898 201.794C830.597 199.367 828.293 196.989 825.989 194.608C825.456 191.753 825.071 188.685 824.489 185.901H824.492ZM815.477 177.449C817.948 179.741 820.425 182.085 822.902 184.405C823.501 187.212 823.976 190.205 824.529 193.081C822.211 190.665 819.889 188.225 817.568 185.84C816.848 183.077 816.238 180.146 815.477 177.449ZM806.204 168.756C808.692 171.011 811.189 173.417 813.683 175.768C814.469 178.506 815.192 181.344 815.938 184.148C813.588 181.691 811.241 179.172 808.888 176.814C807.989 174.134 807.14 171.378 806.204 168.76V168.756ZM796.893 160.411C799.315 162.562 801.737 164.656 804.162 166.842C805.132 169.505 806.106 172.164 807.039 174.889C804.735 172.593 802.434 170.397 800.127 168.142C799.058 165.551 797.999 162.943 796.896 160.411H796.893ZM787.504 152.202C789.883 154.271 792.259 156.351 794.638 158.437C795.787 161.015 796.971 163.523 798.085 166.166C795.801 163.949 793.515 161.742 791.228 159.546C790.001 157.065 788.757 154.625 787.504 152.198V152.202ZM777.793 143.712C780.14 145.709 782.49 147.806 784.843 149.875C786.153 152.36 787.541 154.683 788.823 157.226C786.536 154.999 784.247 152.741 781.954 150.592C780.592 148.242 779.178 146.008 777.793 143.712ZM768.015 135.41C770.198 137.226 772.381 139.024 774.57 140.894C775.932 143.104 777.352 145.184 778.694 147.445C776.664 145.548 774.633 143.756 772.6 141.9C771.102 139.659 769.533 137.603 768.015 135.41ZM758.552 127.716C760.496 129.302 762.44 130.884 764.384 132.459C765.769 134.419 767.189 136.289 768.557 138.29C766.783 136.711 765.008 135.115 763.234 133.533C761.699 131.515 760.098 129.697 758.552 127.716ZM748.788 119.782C750.49 121.141 752.201 122.548 753.906 123.942C755.11 125.441 756.322 126.9 757.518 128.423C755.893 126.961 754.269 125.476 752.645 124.069C751.369 122.593 750.067 121.237 748.791 119.782H748.788ZM739.025 111.979C740.18 112.878 741.335 113.736 742.49 114.666C743.371 115.637 744.247 116.611 745.125 117.593C744.189 116.8 743.253 116.066 742.317 115.28C741.225 114.151 740.12 113.097 739.028 111.982L739.025 111.979ZM731.514 106.323L731.825 106.56L732.237 106.975L732.119 106.879C731.917 106.69 731.713 106.515 731.511 106.327L731.514 106.323ZM466.276 -32.957C464.496 -33.4649 462.731 -33.9076 460.954 -34.3984C461.112 -34.3915 461.276 -34.3984 461.432 -34.3915C463.188 -33.9351 464.948 -33.4203 466.705 -32.9467C466.561 -32.9467 466.42 -32.9536 466.273 -32.957H466.276ZM477.142 -29.7415C475.345 -30.2872 473.531 -30.9426 471.733 -31.4745H471.837C473.816 -30.9186 475.8 -30.3352 477.779 -29.7621C477.565 -29.7552 477.352 -29.7484 477.139 -29.7449L477.142 -29.7415ZM487.939 -26.2858C485.624 -27.0339 483.305 -27.7854 480.998 -28.5061C481.338 -28.513 481.687 -28.537 482.029 -28.537C484.584 -27.7786 487.13 -27.13 489.687 -26.3304C489.106 -26.3166 488.524 -26.3063 487.939 -26.2858ZM499.505 -22.5829C496.939 -23.4614 494.393 -24.1958 491.827 -25.04C492.4 -25.0606 492.97 -25.0709 493.544 -25.0881C495.905 -24.3331 498.281 -23.458 500.646 -22.6687C500.263 -22.6378 499.882 -22.6035 499.502 -22.5795L499.505 -22.5829ZM510.564 -18.5609C507.926 -19.515 505.274 -20.5788 502.641 -21.4951C503.039 -21.5191 503.445 -21.5671 503.839 -21.5877C506.668 -20.6303 509.496 -19.7037 512.33 -18.6982C511.739 -18.6536 511.158 -18.6158 510.564 -18.5609ZM521.946 -14.3502C519.155 -15.414 516.37 -16.423 513.585 -17.4422L515.561 -17.5966C518.283 -16.6152 521.007 -15.5994 523.732 -14.5733C523.133 -14.4943 522.539 -14.4154 521.949 -14.3502H521.946ZM533.696 -9.82719C530.675 -11.042 527.66 -12.1882 524.642 -13.3516C525.203 -13.4099 525.776 -13.4957 526.329 -13.5438C529.302 -12.4079 532.279 -11.2102 535.254 -10.0228C534.733 -9.9576 534.218 -9.89583 533.694 -9.82719H533.696ZM544.862 -5.12916C541.968 -6.34742 539.065 -7.61373 536.176 -8.78738L537.858 -9.00014C540.847 -7.79218 543.828 -6.72491 546.82 -5.46204C546.175 -5.36595 545.507 -5.22868 544.862 -5.12916ZM556.788 -0.108536C553.58 -1.52241 550.392 -2.79215 547.192 -4.15112C547.889 -4.25407 548.571 -4.32957 549.254 -4.41193C552.249 -3.13189 555.253 -1.694 558.254 -0.359058L556.788 -0.108536ZM568.014 5.03562C565.042 3.66293 562.058 2.18042 559.095 0.859207L560.449 0.625851C563.507 2.00198 566.566 3.33005 569.627 4.76108C569.091 4.84687 568.559 4.92924 568.014 5.03562ZM579.672 10.5504C576.505 9.02673 573.339 7.53049 570.174 6.05828C570.745 5.94846 571.3 5.86266 571.862 5.77001C574.952 7.22849 578.048 8.71786 581.141 10.2415L579.672 10.5504ZM591.293 16.127C588.082 14.5175 584.891 13.0556 581.686 11.5044C582.141 11.4118 582.596 11.3122 583.054 11.2127C586.135 12.7398 589.223 14.3253 592.307 15.9108C591.97 15.9828 591.633 16.0515 591.29 16.127H591.293ZM602.488 22.0192C599.392 20.3926 596.287 18.6939 593.197 17.129C593.554 17.0501 593.905 16.978 594.263 16.9025C597.422 18.536 600.573 20.0185 603.735 21.7138C603.32 21.8202 602.902 21.9266 602.491 22.0227L602.488 22.0192ZM875.989 234.021C878.468 236.265 880.934 238.472 883.408 240.699C882.667 244.083 881.674 247.724 880.853 251.19C878.575 248.918 876.303 246.67 874.016 244.378C874.652 240.95 875.433 237.367 875.989 234.021ZM867.522 226.399C870.013 228.695 872.461 230.85 874.929 233.067C874.385 236.379 873.593 239.955 872.976 243.342C870.701 241.08 868.443 238.88 866.148 236.543C866.583 233.187 867.159 229.673 867.522 226.399ZM859.057 218.517C861.514 220.812 863.985 223.156 866.433 225.418C866.084 228.657 865.5 232.158 865.079 235.473C862.821 233.167 860.552 230.792 858.283 228.441C858.516 225.16 858.893 221.715 859.057 218.513V218.517ZM850.547 210.462C853.009 212.789 855.477 215.143 857.934 217.456C857.781 220.61 857.393 224.042 857.174 227.278C854.91 224.913 852.635 222.504 850.366 220.123C850.397 216.938 850.576 213.575 850.547 210.462ZM841.962 202.339C844.444 204.711 846.904 207.024 849.372 209.35C849.412 212.411 849.219 215.757 849.196 218.891C846.921 216.506 844.649 214.138 842.362 211.708C842.198 208.623 842.183 205.349 841.962 202.336V202.339ZM833.973 194.776C836.245 196.976 838.468 199.035 840.718 201.159C840.945 204.117 840.945 207.37 841.115 210.397C838.981 208.16 836.867 205.991 834.716 203.674C834.56 203.503 834.402 203.352 834.243 203.18C833.918 200.167 833.688 197.03 833.281 194.127C833.512 194.35 833.739 194.553 833.973 194.776ZM834.523 400.892C834.295 401.414 834.082 401.925 833.832 402.464L834.523 400.892ZM839.424 389.756C838.166 392.666 836.853 395.628 835.536 398.593C835.433 396.445 835.372 394.218 835.306 391.994C836.498 389.046 837.601 386.191 838.693 383.342C838.915 385.532 839.177 387.625 839.424 389.756ZM844.341 378.583C843.05 381.575 841.633 384.698 840.326 387.708C840.075 385.494 839.851 383.226 839.635 380.94C840.781 377.979 842.016 374.924 843.143 371.98C843.523 374.231 843.937 376.39 844.341 378.583ZM849.271 367.371C847.984 370.408 846.48 373.651 845.159 376.719C844.75 374.468 844.358 372.172 843.981 369.845C845.138 366.822 846.446 363.648 847.581 360.648C848.128 362.944 848.707 365.141 849.271 367.371ZM854.161 355.992C852.868 359.132 851.376 362.464 850.02 365.666C849.444 363.387 848.882 361.077 848.332 358.723C849.496 355.642 850.89 352.33 851.993 349.307C852.701 351.585 853.433 353.775 854.161 355.992ZM858.856 344.162C857.499 347.56 856.241 350.854 854.827 354.307C854.092 352.049 853.364 349.753 852.646 347.419C853.896 343.977 854.959 340.724 856.151 337.34C857.041 339.66 857.949 341.911 858.853 344.162H858.856ZM863.518 332.422C862.222 335.768 860.834 339.193 859.481 342.587C858.565 340.302 857.661 337.961 856.759 335.6C857.943 332.227 859.135 328.843 860.264 325.521C861.341 327.858 862.427 330.158 863.516 332.419L863.518 332.422ZM868.152 320.755C866.925 324.032 865.405 327.594 864.112 330.933C863.009 328.641 861.92 326.273 860.831 323.902C861.955 320.59 863.274 317.079 864.336 313.829C865.604 316.173 866.874 318.493 868.152 320.758V320.755ZM872.487 308.73C871.208 312.282 870.073 315.7 868.72 319.327C867.432 317.035 866.151 314.66 864.872 312.289C866.03 308.73 867.044 305.315 868.129 301.829C869.584 304.155 871.032 306.486 872.487 308.73ZM876.686 296.695C875.479 300.202 874.269 303.709 872.991 307.285C871.522 305.017 870.056 302.632 868.593 300.274C869.693 296.719 870.704 293.253 871.735 289.766C873.388 292.093 875.038 294.461 876.689 296.695H876.686ZM880.85 284.773C879.733 288.174 878.368 291.822 877.175 295.298C875.514 293.04 873.846 290.631 872.179 288.277C873.189 284.831 874.35 281.235 875.292 277.861C877.144 280.174 879.004 282.553 880.847 284.773H880.85ZM884.695 272.604C883.583 276.194 882.529 279.725 881.331 283.397C879.471 281.156 877.593 278.757 875.724 276.424C876.72 272.82 877.633 269.306 878.549 265.785C880.603 268.067 882.662 270.408 884.698 272.604H884.695ZM888.304 260.38C887.261 263.966 886.242 267.529 885.11 271.2C883.053 268.98 880.974 266.622 878.903 264.316C879.842 260.679 880.66 257.172 881.515 253.616C883.779 255.881 886.057 258.198 888.304 260.38ZM891.869 248.304C890.933 251.756 889.732 255.469 888.71 259.004C886.446 256.801 884.148 254.467 881.864 252.185C882.699 248.688 883.687 245.03 884.442 241.616C886.918 243.853 889.412 246.139 891.869 248.301V248.304ZM799.321 12.5786C890.04 28.1552 932.681 96.5873 892.269 246.952C889.795 244.773 887.281 242.47 884.784 240.215C914.687 103.097 877.478 34.6652 799.321 12.5786ZM780.621 10.0974C781.372 10.1661 782.176 10.1695 782.919 10.2415C870.989 27.359 914.938 94.8954 883.75 239.285C881.256 237.038 878.768 234.814 876.268 232.549C897.998 99.868 858.193 32.6679 780.618 10.094L780.621 10.0974ZM765.726 9.16056C767.563 9.22576 769.305 9.40078 771.111 9.5003C853.623 29.4558 897.085 95.7774 875.211 231.598C872.717 229.357 870.249 227.189 867.732 224.865C881.227 98.8591 840.323 33.2238 765.726 9.16056ZM753.869 9.03702C755.925 9.03702 758.047 8.95465 760.089 8.97181C837.204 31.5423 879.955 96.625 866.643 223.887C864.172 221.595 861.669 219.21 859.187 216.886C864.884 98.962 824.097 34.998 753.869 9.03702ZM741.243 9.17085C743.887 9.07476 746.43 9.09535 748.996 9.08849C821.099 33.8724 863.415 97.1912 858.064 215.826C855.575 213.486 853.076 211.104 850.582 208.746C849.098 98.4267 807.912 36.5183 741.24 9.17085H741.243ZM730.235 9.80915C732.649 9.65472 735.143 9.40765 737.542 9.2738C805.38 35.7462 847.5 97.1432 849.366 207.593C846.875 205.243 844.392 202.916 841.884 200.514C833.993 98.1967 792.987 38.4435 730.233 9.80915H730.235ZM718.474 10.6671C721.322 10.4097 724.098 10.2381 726.886 10.0528C790.47 37.939 832.19 97.1295 840.525 199.223C838.586 197.391 836.663 195.613 834.701 193.709C834.131 193.16 833.567 192.655 832.999 192.113C819.296 97.3354 778.06 40.077 718.474 10.6637V10.6671ZM707.933 11.7309C710.496 11.4461 713.091 11.1201 715.62 10.8764C775.742 39.648 817.436 96.3985 831.53 190.74C829.005 188.352 826.482 185.991 823.959 183.64C805.294 96.4259 764.283 41.6693 707.936 11.7309H707.933ZM697.026 13.1139C699.805 12.7467 702.565 12.3967 705.315 12.0638C761.973 41.4222 803.318 95.5749 822.346 182.13C819.797 179.738 817.246 177.322 814.7 174.961C791.674 95.0018 750.614 43.1621 697.026 13.1105V13.1139ZM687.018 14.3836C689.636 13.989 692.145 13.7179 694.688 13.4125C748.388 42.9116 789.592 94.1473 812.906 173.283C810.316 170.843 807.724 168.334 805.141 166.008C778.585 93.1727 737.876 44.2088 687.018 14.3871V14.3836ZM677.151 16.0927C679.686 15.6705 682.258 15.2004 684.798 14.768C735.604 44.0475 776.353 92.2976 803.116 164.141C800.596 161.9 798.082 159.762 795.565 157.538C766.117 91.3058 725.625 45.4476 677.149 16.0927H677.151ZM668.258 17.6335C670.556 17.2183 672.829 16.8305 675.101 16.4495C723.387 45.2623 763.773 90.4033 793.307 155.565C790.784 153.348 788.261 151.135 785.742 148.949C754.206 89.0889 714.341 46.2232 668.258 17.6335ZM659.183 19.2121C661.556 18.7488 663.843 18.3885 666.159 17.9973C711.91 45.9967 751.562 88.0045 783.077 146.618C780.529 144.371 777.977 142.085 775.434 139.937C742.349 86.2269 703.083 46.7105 659.183 19.2121ZM651.497 20.8559C653.417 20.4612 655.37 20.0254 657.305 19.6136C700.606 46.4429 739.402 84.964 772.246 137.174C769.893 135.222 767.549 133.389 765.198 131.447C731.35 83.4918 693.115 47.0983 651.497 20.8559ZM643.994 22.4619C645.855 22.0639 647.712 21.6658 649.564 21.2711C690.466 46.7997 728.116 82.0985 761.561 128.492C759.277 126.629 756.988 124.762 754.704 122.919C720.59 80.3689 683.456 47.239 643.994 22.4654V22.4619ZM637.359 23.8827C638.969 23.5223 640.55 23.1929 642.139 22.86C680.518 46.7448 716.705 78.5089 750.056 119.141C747.792 117.277 745.525 115.39 743.267 113.622C709.741 76.5426 674.297 46.8375 637.359 23.8827ZM631.317 25.1764C632.716 24.8539 634.073 24.5793 635.441 24.2945C671.057 46.2472 705.309 74.3874 737.781 109.405C736.039 108.09 734.296 106.8 732.554 105.469C699.863 73.0216 666.032 46.3845 631.317 25.1764ZM626.153 26.4427C627.258 26.1819 628.39 25.8834 629.505 25.6054C662.302 45.506 694.336 70.1527 725.345 100.046C723.943 98.9963 722.537 97.9188 721.138 96.879C690.002 69.0442 658.285 45.657 626.153 26.4462V26.4427ZM622.029 27.4757C622.783 27.2938 623.549 27.0982 624.309 26.906C653.089 44.0029 681.555 64.2844 709.548 88.2482C709.142 87.953 708.736 87.6922 708.33 87.404C679.729 64.2981 650.932 44.3255 622.026 27.4757H622.029ZM618.328 28.4023L620.226 27.9287C640.841 39.8745 661.395 53.4848 681.869 68.6118C660.658 53.725 639.47 40.3412 618.328 28.3988V28.4023ZM615.819 29.0303L616.461 28.8724C625.891 34.171 635.331 39.7647 644.778 45.6398C635.098 39.8196 625.444 34.2911 615.816 29.0303H615.819ZM614.713 27.8806L613.979 28.0625C610.745 26.3055 607.522 24.6479 604.294 22.963C604.694 22.8703 605.103 22.7639 605.509 22.6575C608.576 24.3494 611.646 26.1648 614.713 27.8772V27.8806ZM618.477 26.9403L616.58 27.4139C613.512 25.6912 610.442 23.8998 607.375 22.1943C607.96 22.0604 608.53 21.9437 609.097 21.8271C612.225 23.5018 615.353 25.1455 618.475 26.9403H618.477ZM622.613 25.9108C621.864 26.0996 621.118 26.2849 620.375 26.4668C617.288 24.6788 614.195 23.0522 611.102 21.3947C612.049 21.1785 612.977 20.9897 613.907 20.7976C616.81 22.4791 619.71 24.1984 622.613 25.9108ZM627.901 24.5965C626.749 24.8847 625.594 25.1799 624.456 25.4544C621.582 23.7488 618.711 22.057 615.834 20.3892C617.012 20.1284 618.169 19.8881 619.336 19.6411C622.198 21.2471 625.055 22.884 627.901 24.5999V24.5965ZM633.641 23.2306C632.333 23.5223 631.005 23.8449 629.683 24.1538C626.904 22.4688 624.119 20.8147 621.326 19.2155L625.435 18.337C628.174 19.9465 630.913 21.5663 633.641 23.2306ZM640.446 21.7825C638.825 22.1188 637.212 22.4448 635.564 22.8223C632.84 21.1476 630.098 19.545 627.359 17.9286C629.007 17.5889 630.674 17.2217 632.33 16.8682C635.052 18.4468 637.747 20.1249 640.446 21.7859V21.7825ZM647.776 20.221C645.955 20.6054 644.138 20.9863 642.307 21.3878C639.648 19.7371 637.013 18.0213 634.338 16.4324C636.138 16.0789 637.917 15.7563 639.683 15.4406C642.387 17.0124 645.094 18.5704 647.773 20.2176L647.776 20.221ZM655.621 18.5532C653.657 18.9684 651.675 19.4008 649.714 19.8092C647.076 18.1688 644.4 16.6417 641.733 15.0906C643.899 14.6891 646.027 14.339 648.161 13.9787C650.673 15.4372 653.132 17.0329 655.621 18.5532ZM664.174 16.8751C661.968 17.2766 659.742 17.7124 657.507 18.1551C655.102 16.6692 652.749 15.0494 650.33 13.6046C652.395 13.2512 654.469 12.8874 656.531 12.534C659.088 13.965 661.654 15.3651 664.174 16.8785V16.8751ZM673.235 15.3205C670.925 15.7049 668.627 16.0789 666.279 16.5147C663.771 14.9876 661.202 13.5909 658.648 12.1667C661.081 11.7824 663.535 11.3672 665.94 11.0171C668.408 12.3795 670.801 13.8929 673.238 15.3205H673.235ZM682.736 13.687C680.262 14.1057 677.768 14.5415 675.288 14.967C672.952 13.5772 670.677 12.0638 668.321 10.7117C670.718 10.3685 673.059 10.0974 675.409 9.81602C677.863 11.0789 680.328 12.328 682.736 13.687ZM692.516 12.1976C690.022 12.5374 687.502 12.9114 684.959 13.3027C682.618 11.9574 680.204 10.7495 677.808 9.5106C680.415 9.18115 683.038 8.83797 685.639 8.51883C687.969 9.67532 690.221 10.9725 692.516 12.1976ZM702.838 10.9039C700.194 11.2196 697.556 11.5319 694.866 11.8991C692.657 10.6911 690.526 9.34587 688.294 8.17908C690.814 7.91484 693.268 7.72609 695.716 7.54421C698.103 8.64236 700.497 9.73022 702.838 10.9039ZM713.094 9.62041C710.571 9.91897 707.993 10.2759 705.47 10.5744C703.233 9.42136 700.92 8.38842 698.625 7.33144C701.323 7.10495 703.99 6.92307 706.657 6.73776C708.84 7.6403 710.963 8.63893 713.094 9.62041ZM723.669 8.76934C721.068 8.93407 718.491 9.0679 715.804 9.32871C713.866 8.40901 712.011 7.36577 710.047 6.48724C712.356 6.35341 714.709 6.16809 716.976 6.08572C719.214 6.96768 721.457 7.84277 723.666 8.76591L723.669 8.76934ZM734.509 7.99377C732.027 8.16879 729.536 8.34724 727.044 8.52569C725.023 7.64716 722.94 6.85101 720.873 6.03425C723.395 5.95876 725.852 5.96219 728.326 5.9416C730.417 6.59019 732.496 7.24908 734.509 7.99377ZM744.229 7.5648C742.153 7.59226 740.045 7.65403 737.905 7.75355C736.335 7.14613 734.835 6.44949 733.233 5.88326C735.059 5.88668 736.983 5.77001 738.777 5.81462C740.606 6.38086 742.406 6.98827 744.229 7.5648ZM754.612 7.47558C752.789 7.4996 750.997 7.49274 749.169 7.52362C747.777 7.05347 746.358 6.62108 744.955 6.16122C746.712 6.22643 748.394 6.37743 750.13 6.47009C751.614 6.82012 753.154 7.09466 754.612 7.47558ZM762.221 7.41038C761.696 7.39664 761.129 7.43439 760.602 7.4241C760.19 7.30399 759.816 7.13927 759.407 7.01573C759.908 7.06034 760.447 7.06034 760.942 7.10838C761.383 7.19074 761.78 7.32115 762.221 7.40694V7.41038ZM873.826 308.534C875.125 304.917 876.334 301.389 877.558 297.844C1082.31 574.672 1278.96 551.326 1430.14 448.367C1270.51 564.51 1065.3 603.121 873.826 308.531V308.534ZM869.483 320.634C870.842 317.004 872.037 313.534 873.322 309.976C1061.17 598.577 1262.15 567.513 1420.53 456.902C1252.99 580.293 1042.41 626.779 869.483 320.634ZM864.826 332.361C866.139 328.977 867.668 325.384 868.916 322.062C1038.42 621.625 1243.84 583.646 1409.76 466.253C1233.98 596.099 1017.94 649.641 864.826 332.357V332.361ZM860.14 344.152C861.52 340.707 862.911 337.244 864.233 333.85C1015.49 646.542 1227.75 599.154 1402.34 473.367C1217.33 611.147 993.438 674.302 860.14 344.156V344.152ZM855.423 356.029C856.866 352.515 858.13 349.183 859.515 345.727C993.072 675.448 1216.87 612.819 1401.98 475.268C1205.95 624.143 969.24 702.891 855.423 356.029ZM850.518 367.488C851.886 364.272 853.453 360.865 854.755 357.711C971.607 712.178 1216.7 621.93 1415.4 466.6C1205.33 632.263 945.278 739.326 850.515 367.488H850.518ZM815.5 443.562C815.06 444.575 814.553 445.67 814.115 446.675C814.308 445.917 814.53 445.12 814.731 444.348C815.163 443.168 815.595 441.987 816.039 440.793C815.846 441.737 815.673 442.643 815.5 443.559V443.562ZM820.103 433.247C819.316 435.038 818.449 436.915 817.675 438.689C817.989 437.073 818.378 435.361 818.723 433.7C819.345 432.073 820.097 430.292 820.733 428.645C820.503 430.206 820.304 431.723 820.1 433.243L820.103 433.247ZM824.834 422.639C823.809 424.932 822.781 427.227 821.776 429.496C822.029 427.67 822.361 425.714 822.651 423.827C823.49 421.685 824.388 419.472 825.243 417.313C825.085 419.129 824.967 420.875 824.834 422.639ZM829.653 411.84C828.455 414.482 827.357 417.004 826.185 419.616C826.338 417.636 826.58 415.508 826.778 413.456C827.766 410.975 828.731 408.518 829.739 406.012C829.684 408.003 829.676 409.904 829.65 411.843L829.653 411.84ZM833.834 402.464C832.76 404.804 831.862 406.936 830.807 409.252L833.834 402.464ZM1440 489.548C1096.85 735.97 578.27 1046.96 795.286 495.587C620.563 1019.6 1109.94 726.141 1440 485.563V484.002C1106.89 726.92 611.059 1024.09 802.676 477.221C802.935 476.593 803.217 475.934 803.476 475.302C651.926 997.038 1119.75 717.318 1440 480.289V478.703C1118.61 716.701 648.156 998.071 807.313 466.095C807.975 464.506 808.62 462.941 809.294 461.339C686.751 971.884 1130.99 707.545 1440 475.302V473.717C1130.39 706.525 684.628 971.908 811.984 454.87C812.906 452.708 813.689 450.707 814.631 448.518C721.705 946.098 1142.55 697.593 1440 470.628V469.029C1142.32 696.295 720.668 945.473 816.615 443.964C817.562 441.775 818.665 439.41 819.633 437.197C756.881 919.557 1154.48 687.39 1440 466.284V464.674C1154.42 685.949 756.363 918.613 821.229 433.621C822.335 431.109 823.504 428.525 824.636 425.985C791.363 892.758 1166.48 677.157 1440 462.317V460.694C1166.51 675.647 791.107 891.667 825.978 422.972C827.213 420.216 828.394 417.519 829.656 414.726C824.973 865.785 1178.48 666.858 1440 458.686V457.059C1178.57 665.3 824.898 864.591 830.81 412.135C832.155 409.177 833.313 406.435 834.69 403.435C857.643 838.551 1190.47 656.515 1440 455.491V453.858C1190.6 654.929 857.675 837.302 835.703 401.143C837.095 398.051 838.419 395.021 839.721 392.014C889.205 811.087 1202.4 646.1 1440 452.729V451.081C1202.54 644.487 889.323 809.803 840.623 389.966C841.968 386.874 843.416 383.679 844.744 380.6C919.629 783.358 1214.22 635.478 1440 450.323V448.693C1214.4 633.879 919.816 782.072 845.562 378.737C846.918 375.597 848.439 372.296 849.764 369.187C948.783 755.321 1225.91 624.692 1440 448.391V439.822C1287.77 548.57 1087.11 579.421 878.045 296.448C879.255 292.937 880.62 289.272 881.752 285.837C1102.34 550.804 1295.42 534.792 1440 439.547V437.9C1295.63 533.23 1102.68 549.493 882.23 284.474C883.431 280.813 884.537 277.244 885.654 273.668C1115.39 520.903 1302.24 518.281 1440 436.658V435.038C1302.43 516.765 1115.72 519.582 886.069 272.268C887.218 268.561 888.229 264.989 889.291 261.369C1125.99 491.112 1307.95 500.536 1440 432.478V430.882C1308.14 499.026 1126.32 489.791 889.695 259.996C890.731 256.427 891.93 252.703 892.88 249.22C1134.43 461.764 1312.55 481.445 1440 426.514V425.024C1312.74 480.014 1134.74 460.422 893.28 247.868C936.938 86.7176 886.296 18.6218 783.403 8.66982C776.459 7.33144 769.274 6.27104 761.757 5.59499C754.73 4.19485 747.34 3.23053 739.768 2.48928C732.951 1.22983 725.91 0.255222 718.652 -0.444851C711.945 -1.6837 704.995 -2.60684 697.908 -3.33437C691.209 -4.5492 684.32 -5.50322 677.287 -6.24447C670.597 -7.45587 663.742 -8.41676 656.753 -9.17517C650.103 -10.3763 643.309 -11.3475 636.394 -12.1162C629.758 -13.307 623.016 -14.3056 616.145 -15.0777C609.544 -16.2617 602.845 -17.2706 596.037 -18.0565C589.473 -19.2198 582.855 -20.2631 576.113 -21.0489C569.578 -22.2089 562.997 -23.2658 556.31 -24.0654C550.458 -25.0847 544.528 -25.9048 538.575 -26.6495C532.259 -27.7786 525.866 -28.6537 519.455 -29.4773C513.199 -30.5823 506.895 -31.502 500.571 -32.3256C494.37 -33.4135 488.144 -34.3743 481.891 -35.198C475.742 -36.2721 469.582 -37.2776 463.396 -38.1012C457.339 -39.1513 451.283 -40.2048 445.206 -41.025C441.183 -41.7148 437.156 -42.3119 433.13 -42.9056C427.474 -43.9214 421.832 -44.769 416.184 -45.6064C410.655 -46.5947 405.134 -47.511 399.627 -48.3346C253.116 -74.2064 117.417 -45.8432 0.00292969 5.46802V6.93336C104.172 -38.6434 222.741 -66.1899 350.526 -53.7018C224.702 -62.0444 105.566 -30.3386 0.00292969 18.5944V20.1798C111.021 -31.3304 237.066 -63.7945 370.127 -50.579C239.189 -59.1651 112.492 -22.4422 0.00292969 32.2732V33.8278C118.14 -23.6879 251.964 -61.382 389.922 -47.4698C254.202 -56.2894 119.655 -14.2953 0.00292969 46.2301V47.7641C125.501 -15.7847 267.407 -58.9661 409.86 -44.3813C269.696 -53.369 127.019 -5.87384 0.00292969 60.4374V61.9234C131.742 -6.93081 280.344 -55.5687 425.501 -41.7972L426.794 -41.5089C283.469 -49.6627 133.591 3.27172 0.00292969 74.7889V76.2543C136.272 3.23397 289.525 -50.4589 435.437 -39.5768C436.361 -39.3606 437.274 -39.1822 438.199 -38.9591C293.502 -44.3744 138.455 13.5669 0.00292969 89.1679V90.6881C140.782 13.7625 298.761 -44.9132 445.505 -37.1815C446.977 -36.8109 448.46 -36.3613 449.935 -35.977C303.758 -38.5267 143.351 24.2739 0.00292969 103.694V105.173C145.125 24.6994 307.753 -38.7704 455.341 -34.5116C457.106 -34.038 458.871 -33.5679 460.64 -33.0772C313.181 -32.2398 147.827 35.2417 0.00292969 118.073V119.607C149.65 35.7084 317.297 -32.4663 466.071 -31.6084C468.396 -30.9392 470.708 -30.3352 473.032 -29.642C323.771 -25.7676 152.757 46.3467 0.00292969 132.569V134.038C154.094 46.9919 326.784 -25.7264 476.9 -28.4031C479.201 -27.7031 481.511 -26.9206 483.812 -26.1931C333.01 -18.6708 157.034 57.7607 0.00292969 146.855V148.369C158.399 58.4505 336.115 -18.6056 487.714 -24.944C490.445 -24.062 493.163 -23.2452 495.899 -22.3255C343.122 -11.447 161.628 69.2295 0.00292969 161.148V162.614C162.835 69.9365 345.861 -11.3612 499.266 -21.2514C501.945 -20.3317 504.643 -19.2919 507.324 -18.3344C352.56 -3.84226 165.879 80.8425 0.00292969 175.27V176.773C166.979 81.6695 355.074 -3.59517 510.351 -17.2157C513.237 -16.1725 516.125 -15.0983 519.02 -14.007C362.052 4.06101 170.086 92.5687 0.00292969 189.306V190.757C171.086 93.3855 364.35 4.31153 521.724 -13.005C524.823 -11.821 527.908 -10.7503 531.015 -9.5149C371.634 12.0604 174.294 104.281 0.00292969 203.211V204.707C175.224 105.197 373.776 12.4344 533.498 -8.46823C536.45 -7.28428 539.422 -5.96307 542.382 -4.72765C380.536 20.5127 178.147 116.155 0.00292969 216.969V218.427C179.014 117.061 382.54 20.8799 544.658 -3.7702C547.875 -2.41466 551.083 -1.11747 554.308 0.292973C389.755 29.0234 182.093 127.994 0.00292969 230.624V232.106C182.977 128.931 391.811 29.418 556.621 1.26759C559.671 2.61625 562.73 4.04385 565.785 5.44742C398.441 37.7468 185.774 139.841 0.00292969 244.086V245.576C186.586 140.833 400.333 38.2204 567.873 6.43919C571.079 7.9217 574.293 9.45911 577.504 10.9965C407.184 46.7346 189.437 151.8 0.00012207 257.528V259.001C190.226 152.782 409.039 47.2047 579.52 11.9506C582.763 13.512 585.985 14.9293 589.237 16.5491C415.827 55.6673 193.02 163.602 0.00012207 270.737V272.233C193.774 164.642 417.613 56.2198 591.161 17.5477C594.28 19.1229 597.416 20.8422 600.544 22.4894C423.969 65.0051 196.346 175.555 0.00012207 283.881V285.353C197.072 176.581 425.671 65.5404 602.35 23.44C605.575 25.1284 608.798 26.7928 612.029 28.5395C432.157 74.3153 199.684 187.415 0.00012207 296.897V298.39C200.421 188.472 433.905 74.8781 613.872 29.5073C641.578 44.5588 669.517 61.8994 697.645 81.57C703.932 86.2132 710.222 90.9352 716.512 95.8426C724.951 102.86 733.366 110.187 741.761 117.812C746.89 122.788 752.002 127.878 757.091 133.142C763.715 140.493 770.27 148.194 776.793 156.032C780.785 161.299 784.71 166.818 788.619 172.387C792.178 177.905 795.767 183.338 799.234 189.124C803.474 196.982 807.56 205.229 811.618 213.544C814.055 219.299 816.425 225.212 818.729 231.255C821.07 238.352 823.383 245.504 825.531 252.971C827.231 260.14 828.679 267.755 830.168 275.298C831.064 281.54 831.821 288.002 832.602 294.433C833.037 300.693 833.52 306.877 833.76 313.435C833.765 313.61 833.78 313.768 833.785 313.939C833.797 317.041 833.846 320.079 833.76 323.311C833.653 327.299 833.69 331.005 833.641 334.873C833.042 341.825 832.662 348.387 832.196 355.099C831.24 362.073 830.312 369.001 829.497 375.741C828.262 382.351 826.937 389.097 825.863 395.46C824.472 401.338 823.19 407.063 821.949 412.725C819.93 419.798 818.28 426.369 816.482 433.14C814.029 440.618 811.791 447.821 809.536 455.042C806.8 462.385 803.998 469.812 801.561 476.788C564.331 1056.7 1092.11 740.887 1440 491.13V489.548Z"
        fill="#81B3FF"
        fill-opacity="0.4"
    />
</svg>