<svg width="81" height="81" viewBox="0 0 81 81" fill="none" xmlns="http://www.w3.org/2000/svg">
<g id="value 1" clip-path="url(#clip0_89_2526)">
<g id="Group">
<g id="Group_2">
<path id="Vector" d="M71.81 40.5573L63.1064 27.1169C62.4319 26.0752 61.2881 25.4531 60.047 25.4531H21.6459C20.4067 25.4531 19.2641 26.0736 18.5892 27.1127L9.85859 40.5548C8.96641 41.9283 9.10422 43.7417 10.1937 44.9645L38.1097 76.3052C38.8006 77.0808 39.7925 77.5258 40.8313 77.5258C40.8311 77.5258 40.8314 77.5258 40.8313 77.5258C41.8698 77.5258 42.8622 77.0809 43.5531 76.3053L71.4722 44.9628C72.5602 43.7414 72.6991 41.9298 71.81 40.5573ZM58.2839 28.578L50.9642 39.8967L43.6402 28.578H58.2839ZM48.0925 41.2111H33.57L40.8313 29.9894L48.0925 41.2111ZM38.0223 28.5783L30.7184 39.8659L23.417 28.5783H38.0223ZM20.5278 29.865L27.8669 41.2111H13.1586L20.5278 29.865ZM13.8186 44.3361H29.5444L37.8594 71.3259L13.8186 44.3361ZM40.8313 70.3584L32.8142 44.3361H48.8483L40.8313 70.3584ZM43.803 71.3269L52.1183 44.3363H67.8455L43.803 71.3269ZM53.8359 41.2111L61.1683 29.8728L68.5103 41.2111H53.8359Z" fill="#BFA4E4"/>
</g>
</g>
<g id="Group_3">
<g id="Group_4">
<path id="Vector_2" d="M5.57254 41.2109H2.39551C1.5327 41.2109 0.833008 41.9105 0.833008 42.7734C0.833008 43.6364 1.5327 44.3359 2.39551 44.3359H5.57254C6.43535 44.3359 7.13504 43.6364 7.13504 42.7734C7.13504 41.9105 6.43535 41.2109 5.57254 41.2109Z" fill="#BFA4E4"/>
</g>
</g>
<g id="Group_5">
<g id="Group_6">
<path id="Vector_3" d="M79.2708 41.2109H76.0938C75.2309 41.2109 74.5312 41.9105 74.5312 42.7734C74.5312 43.6364 75.2309 44.3359 76.0938 44.3359H79.2708C80.1336 44.3359 80.8333 43.6364 80.8333 42.7734C80.8333 41.9105 80.1336 41.2109 79.2708 41.2109Z" fill="#BFA4E4"/>
</g>
</g>
<g id="Group_7">
<g id="Group_8">
<path id="Vector_4" d="M69.1369 14.4986C68.5266 13.8885 67.5375 13.8885 66.9271 14.4986L61.7369 19.6888C61.1268 20.2989 61.1268 21.2883 61.7369 21.8985C62.0422 22.2036 62.4421 22.3561 62.8419 22.3561C63.2419 22.3561 63.6416 22.2035 63.9468 21.8985L69.1369 16.7083C69.7471 16.0982 69.7471 15.1089 69.1369 14.4986Z" fill="#BFA4E4"/>
</g>
</g>
<g id="Group_9">
<g id="Group_10">
<path id="Vector_5" d="M19.9961 19.6596L14.8061 14.4693C14.1961 13.8592 13.2071 13.8592 12.5963 14.4693C11.9861 15.0795 11.9861 16.0689 12.5963 16.679L17.7864 21.8692C18.0916 22.1743 18.4914 22.3268 18.8913 22.3268C19.2911 22.3268 19.691 22.1742 19.9961 21.8692C20.6063 21.2592 20.6063 20.2696 19.9961 19.6596Z" fill="#BFA4E4"/>
</g>
</g>
<g id="Group_11">
<g id="Group_12">
<path id="Vector_6" d="M40.873 2.77344C40.0102 2.77344 39.3105 3.47297 39.3105 4.33594V14.5184C39.3105 15.3814 40.0101 16.0809 40.873 16.0809C41.7359 16.0809 42.4355 15.3814 42.4355 14.5184V4.33594C42.4355 3.47313 41.7359 2.77344 40.873 2.77344Z" fill="#BFA4E4"/>
</g>
</g>
<g id="Group_13">
<g id="Group_14">
<path id="Vector_7" d="M41.9766 18.7C41.6861 18.4094 41.283 18.2422 40.8721 18.2422C40.4611 18.2422 40.058 18.4094 39.7674 18.7C39.4768 18.9906 39.3096 19.3937 39.3096 19.8047C39.3096 20.2172 39.4766 20.6187 39.7674 20.9094C40.058 21.2016 40.4611 21.3672 40.8721 21.3672C41.283 21.3672 41.6861 21.2016 41.9766 20.9094C42.2688 20.6187 42.4346 20.2156 42.4346 19.8047C42.4346 19.3937 42.2688 18.9908 41.9766 18.7Z" fill="#BFA4E4"/>
</g>
</g>
</g>
<defs>
<clipPath id="clip0_89_2526">
<rect width="80" height="80" fill="white" transform="translate(0.833008 0.150391)"/>
</clipPath>
</defs>
</svg>
