<svg width="250" height="56" viewBox="0 0 250 56" fill="none" xmlns="http://www.w3.org/2000/svg">
<g id="Layer_1" clip-path="url(#clip0_326_186)">
<path id="Vector" d="M59.0252 45.3948L52.9216 40.5552C52.2571 40.0293 51.2826 40.1312 50.7485 40.7876C50.2144 41.44 50.3204 42.3981 50.985 42.9281L53.9409 45.2725H19.1015C15.7623 45.2725 13.0429 42.5979 13.0429 39.3117V31.614H33.6652C39.9889 31.614 45.1302 26.5501 45.1302 20.3284V14.4858C45.1302 8.26404 39.9889 3.2002 33.6652 3.2002H19.0975C12.7738 3.2002 7.63246 8.26404 7.63246 14.4858V26.2892H0V31.614H7.63246V39.3117C7.63246 45.5334 12.7738 50.5973 19.0975 50.5973H53.9369L50.9809 52.9417C50.3163 53.4676 50.2103 54.4257 50.7444 55.0781C51.0502 55.4532 51.4987 55.6448 51.9472 55.6448C52.2856 55.6448 52.6281 55.5347 52.9135 55.3064L59.017 50.4709C59.8284 49.8267 60.2972 48.9012 60.2972 47.9349C60.2972 46.9686 59.8324 46.0431 59.017 45.3989L59.0252 45.3948ZM13.0429 14.4858C13.0429 11.1996 15.7583 8.52498 19.1015 8.52498H33.6693C37.0085 8.52498 39.7279 11.1996 39.7279 14.4858V20.3284C39.7279 23.6146 37.0125 26.2892 33.6693 26.2892H13.0429V14.4858Z" fill="#FAF9FB"/>
<g id="Group">
<path id="Vector_2" d="M70.8214 18.9838C69.6675 18.2091 68.4974 17.8177 67.3191 17.8177C66.679 17.8177 66.0837 17.9278 65.5333 18.1439C64.9788 18.3641 64.4936 18.6699 64.0777 19.0694C63.6578 19.469 63.3316 19.9419 63.0992 20.4883C62.8668 21.0346 62.7486 21.6462 62.7486 22.323C62.7486 22.9998 62.8668 23.5788 63.0992 24.1251C63.3316 24.6714 63.6537 25.1444 64.0573 25.544C64.461 25.9435 64.9462 26.2534 65.5129 26.4695C66.0796 26.6896 66.679 26.7957 67.3191 26.7957C68.5748 26.7957 69.7409 26.3716 70.8214 25.5236V31.1256C69.1742 31.8269 67.6126 32.1816 66.1408 32.1816C64.7627 32.1816 63.4539 31.9492 62.2145 31.4925C60.975 31.0359 59.8782 30.3713 58.9323 29.511C57.9864 28.6508 57.2322 27.6192 56.6654 26.4206C56.0987 25.2219 55.8174 23.8805 55.8174 22.4005C55.8174 20.9205 56.0865 19.5709 56.6287 18.3437C57.171 17.1205 57.9049 16.0645 58.8426 15.1798C59.7763 14.2951 60.8894 13.6019 62.1778 13.1045C63.4662 12.6071 64.8483 12.3584 66.3242 12.3584C67.947 12.3584 69.4433 12.6968 70.8214 13.3777V18.9797V18.9838Z" fill="#F8F7F9"/>
<path id="Vector_3" d="M72.5908 22.1104C72.5908 20.7282 72.8721 19.4358 73.4389 18.2371C74.0056 17.0384 74.7884 15.9946 75.7996 15.1099C76.8066 14.2251 78.0053 13.5279 79.3915 13.0183C80.7819 12.5086 82.2986 12.2559 83.9457 12.2559C85.5929 12.2559 87.0729 12.5046 88.4592 13.002C89.8454 13.4994 91.0522 14.1884 92.0715 15.0773C93.0908 15.962 93.8818 17.018 94.4485 18.2411C95.0152 19.4643 95.2966 20.8179 95.2966 22.2979C95.2966 23.7779 95.0071 25.1275 94.4322 26.3547C93.8533 27.5779 93.0623 28.6338 92.0552 29.5186C91.0482 30.4033 89.8372 31.0883 88.4225 31.5735C87.0077 32.0587 85.4788 32.2992 83.8316 32.2992C82.1844 32.2992 80.7085 32.0587 79.3345 31.5735C77.9564 31.0883 76.774 30.3993 75.7792 29.5023C74.7843 28.6053 74.0056 27.533 73.4389 26.2854C72.8721 25.0378 72.5908 23.6475 72.5908 22.1185V22.1104ZM79.6321 22.1838C79.6321 22.8157 79.7463 23.3906 79.9827 23.9125C80.2151 24.4344 80.5209 24.8869 80.9042 25.2783C81.2833 25.6657 81.74 25.9674 82.27 26.1875C82.8001 26.4077 83.3586 26.5137 83.9457 26.5137C84.5328 26.5137 85.0955 26.4036 85.6215 26.1875C86.1515 25.9674 86.604 25.6657 86.9832 25.2783C87.3624 24.891 87.6723 24.4344 87.9047 23.9125C88.1371 23.3906 88.2553 22.828 88.2553 22.2205C88.2553 21.613 88.1371 21.087 87.9047 20.5651C87.6723 20.0433 87.3624 19.5907 86.9832 19.1993C86.604 18.8119 86.1474 18.5062 85.6215 18.2901C85.0914 18.0699 84.5328 17.9639 83.9457 17.9639C83.3586 17.9639 82.796 18.074 82.27 18.2901C81.74 18.5102 81.2874 18.8119 80.9042 19.1993C80.5209 19.5866 80.2151 20.0351 79.9827 20.5447C79.7463 21.0544 79.6321 21.6007 79.6321 22.1797V22.1838Z" fill="#F8F7F9"/>
<path id="Vector_4" d="M97.8408 12.9455H104.511V15.3102C105.42 14.2175 106.342 13.4877 107.275 13.1085C108.209 12.7334 109.302 12.5459 110.558 12.5459C111.883 12.5459 113.02 12.7579 113.966 13.1819C114.912 13.606 115.719 14.2053 116.38 14.984C116.918 15.616 117.289 16.3173 117.485 17.0919C117.68 17.8666 117.782 18.7513 117.782 19.7462V31.6026H111.112V22.1802C111.112 21.2588 111.043 20.5127 110.908 19.9419C110.774 19.3711 110.533 18.9185 110.191 18.576C109.897 18.2866 109.563 18.0786 109.196 17.9563C108.829 17.834 108.433 17.7728 108.017 17.7728C106.888 17.7728 106.02 18.1072 105.42 18.7717C104.817 19.4404 104.515 20.3904 104.515 21.6258V31.5904H97.8449V12.9455H97.8408Z" fill="#F8F7F9"/>
<path id="Vector_5" d="M121.578 12.9446V9.48715C121.578 8.27623 121.843 7.13055 122.369 6.0501C122.899 4.96965 123.609 4.0319 124.506 3.23278C125.403 2.43365 126.447 1.79761 127.637 1.32466C128.828 0.85171 130.087 0.615234 131.417 0.615234C132.746 0.615234 134.002 0.847633 135.196 1.30428C136.387 1.765 137.43 2.39696 138.327 3.19608C139.224 3.99521 139.938 4.93703 140.464 6.0134C140.99 7.09385 141.255 8.25177 141.255 9.48715V10.323H134.585V9.48715C134.585 9.0509 134.503 8.63095 134.344 8.23138C134.185 7.83182 133.965 7.47303 133.679 7.15909C133.398 6.84515 133.064 6.58829 132.685 6.39666C132.301 6.20095 131.881 6.10718 131.413 6.10718C130.503 6.10718 129.749 6.44558 129.146 7.12647C128.542 7.80736 128.24 8.59425 128.24 9.49123V12.9487H132.073V18.4406H128.24V31.6058H121.57V18.4406H119.173V12.9487H121.57L121.578 12.9446ZM141.263 31.6017H134.593V12.9446H141.263V31.6017Z" fill="#F8F7F9"/>
<path id="Vector_6" d="M144.54 12.9456H151.21V15.9994C151.924 14.8864 152.796 14.0302 153.828 13.4349C154.859 12.8396 156.062 12.542 157.44 12.542H158.011C158.219 12.542 158.459 12.5665 158.729 12.6154V18.9065C157.844 18.4702 156.886 18.2541 155.854 18.2541C154.305 18.2541 153.143 18.7067 152.372 19.62C151.602 20.5332 151.21 21.8583 151.21 23.6033V31.6068H144.54V12.9456Z" fill="#F8F7F9"/>
<path id="Vector_7" d="M160.429 12.9453H167.099V15.2367C168.918 13.5161 170.956 12.6558 173.219 12.6558C176.02 12.6558 178.16 13.8178 179.632 16.1459C181.133 13.7934 183.269 12.6191 186.046 12.6191C186.93 12.6191 187.766 12.7455 188.553 13.0024C189.34 13.2552 190.017 13.6588 190.58 14.2011C191.142 14.7474 191.595 15.4568 191.925 16.3294C192.255 17.2019 192.422 18.2579 192.422 19.4932V31.6065H185.752V22.4043C185.752 21.4584 185.683 20.6838 185.548 20.0763C185.414 19.4688 185.218 18.9958 184.957 18.6574C184.7 18.319 184.399 18.0866 184.052 17.9643C183.705 17.842 183.338 17.7808 182.947 17.7808C180.811 17.7808 179.738 19.322 179.738 22.4003V31.6024H173.068V22.4003C173.068 21.4544 173.007 20.6715 172.885 20.0559C172.762 19.4362 172.583 18.9469 172.351 18.584C172.118 18.2212 171.816 17.9725 171.445 17.8379C171.078 17.7034 170.646 17.6381 170.157 17.6381C169.741 17.6381 169.346 17.6993 168.979 17.8216C168.612 17.9439 168.282 18.1804 168 18.531C167.719 18.8817 167.495 19.3669 167.336 19.9866C167.177 20.6063 167.095 21.4095 167.095 22.4043V31.6065H160.425V12.9453H160.429Z" fill="#F8F7F9"/>
<path id="Vector_8" d="M195.264 5.78134C195.264 5.2717 195.362 4.79467 195.557 4.34618C195.753 3.89769 196.022 3.5022 196.369 3.1638C196.715 2.82539 197.111 2.5563 197.567 2.36467C198.02 2.16897 198.509 2.0752 199.023 2.0752C199.537 2.0752 200.026 2.17305 200.478 2.36467C200.931 2.56038 201.33 2.82539 201.677 3.1638C202.02 3.5022 202.293 3.89769 202.488 4.34618C202.684 4.79467 202.782 5.27577 202.782 5.78134C202.782 6.28691 202.684 6.76802 202.488 7.2165C202.293 7.66499 202.02 8.06048 201.677 8.39888C201.33 8.73729 200.935 9.00638 200.478 9.19801C200.026 9.39371 199.537 9.48749 199.023 9.48749C198.509 9.48749 198.02 9.38963 197.567 9.19801C197.115 9.0023 196.715 8.73729 196.369 8.39888C196.026 8.06048 195.753 7.66499 195.557 7.2165C195.362 6.76802 195.264 6.29099 195.264 5.78134ZM202.378 12.9449V31.602H195.708V12.9449H202.378Z" fill="#F8F7F9"/>
<path id="Vector_9" d="M205.657 12.9455H212.327V15.3102C213.237 14.2175 214.158 13.4877 215.092 13.1085C216.025 12.7334 217.118 12.5459 218.374 12.5459C219.699 12.5459 220.837 12.7579 221.782 13.1819C222.728 13.606 223.536 14.2053 224.196 14.984C224.734 15.616 225.105 16.3173 225.301 17.0919C225.497 17.8666 225.599 18.7513 225.599 19.7462V31.6026H218.928V22.1802C218.928 21.2588 218.859 20.5127 218.725 19.9419C218.59 19.3711 218.349 18.9185 218.007 18.576C217.709 18.2866 217.379 18.0786 217.012 17.9563C216.645 17.834 216.25 17.7728 215.834 17.7728C214.704 17.7728 213.836 18.1072 213.237 18.7717C212.633 19.4404 212.332 20.3904 212.332 21.6258V31.5904H205.661V12.9455H205.657Z" fill="#F8F7F9"/>
<path id="Vector_10" d="M250 12.9449V30.3299C250 31.3736 249.939 32.3073 249.816 33.1309C249.694 33.9545 249.519 34.6843 249.299 35.3122C249.005 36.1113 248.544 36.8574 247.916 37.5506C247.289 38.2437 246.534 38.843 245.65 39.3527C244.765 39.8623 243.762 40.2619 242.645 40.5514C241.528 40.8408 240.317 40.9876 239.012 40.9876C237.536 40.9876 236.186 40.8041 234.959 40.4413C233.728 40.0784 232.656 39.5728 231.734 38.9327C230.813 38.2885 230.058 37.5383 229.467 36.678C228.876 35.8178 228.485 34.8759 228.289 33.8607H235.807C236.272 35.0961 237.332 35.7158 238.979 35.7158C240.382 35.7158 241.454 35.3285 242.204 34.5538C242.955 33.7792 243.33 32.6987 243.33 31.3166V29.5348C242.836 29.9956 242.367 30.3788 241.911 30.6805C241.458 30.9863 240.993 31.2309 240.529 31.4267C240.06 31.6224 239.57 31.761 239.053 31.8466C238.535 31.9322 237.972 31.973 237.357 31.973C236.003 31.973 234.764 31.7406 233.634 31.284C232.505 30.8273 231.526 30.179 230.703 29.3555C229.879 28.5319 229.239 27.5411 228.786 26.3914C228.334 25.2416 228.105 23.9614 228.105 22.5547C228.105 21.1481 228.35 19.7986 228.843 18.5713C229.337 17.3482 230.005 16.28 230.854 15.3708C231.702 14.4616 232.709 13.7481 233.875 13.2262C235.041 12.7043 236.313 12.4434 237.691 12.4434C239.925 12.4434 241.805 13.2669 243.33 14.9182V12.953H250V12.9449ZM235.033 22.1837C235.033 22.7912 235.143 23.3539 235.363 23.8757C235.583 24.3976 235.885 24.8502 236.268 25.2416C236.647 25.6289 237.104 25.9347 237.634 26.1508C238.164 26.3669 238.735 26.477 239.346 26.477C239.958 26.477 240.496 26.3669 241.022 26.1508C241.548 25.9306 242.005 25.6289 242.384 25.2416C242.763 24.8543 243.073 24.3976 243.305 23.8757C243.538 23.3539 243.656 22.8034 243.656 22.2204C243.656 21.6374 243.538 21.0584 243.305 20.5488C243.073 20.0391 242.759 19.5906 242.363 19.2033C241.968 18.816 241.507 18.5102 240.981 18.2941C240.451 18.0739 239.905 17.9679 239.342 17.9679C238.78 17.9679 238.201 18.0821 237.683 18.3145C237.165 18.5469 236.712 18.8486 236.317 19.2237C235.921 19.5988 235.612 20.0432 235.375 20.5528C235.143 21.0625 235.024 21.6088 235.024 22.1878L235.033 22.1837Z" fill="#F8F7F9"/>
</g>
<g id="Group_2">
<path id="Vector_11" d="M75.4153 37.2238L75.4683 43.9063C76.2022 43.1479 77.0339 42.7647 77.9676 42.7565C79.044 42.7484 79.9451 43.1357 80.6667 43.9226C81.3884 44.7013 81.7553 45.6799 81.7635 46.8541C81.7716 48.065 81.4169 49.068 80.7034 49.863C79.994 50.654 79.0888 51.0536 77.9962 51.0617C77.0706 51.0699 76.243 50.7233 75.5132 50.0302V50.8538L73.6744 50.866L73.5684 37.232L75.4153 37.2197V37.2238ZM79.8757 46.9479C79.8717 46.1936 79.6596 45.582 79.2397 45.1131C78.8157 44.632 78.2856 44.3955 77.6496 44.3996C76.9728 44.4037 76.4224 44.6442 75.9983 45.1131C75.5825 45.5779 75.3745 46.1813 75.3786 46.9275C75.3827 47.6899 75.5988 48.3015 76.0147 48.754C76.4346 49.2188 76.985 49.4512 77.6618 49.4431C78.3019 49.439 78.8279 49.1984 79.2479 48.7296C79.6719 48.2525 79.8798 47.6614 79.8717 46.9479H79.8757Z" fill="#F8F7F8"/>
<path id="Vector_12" d="M85.9466 49.3179L82.3057 42.9453L84.4462 42.929L86.9251 47.4302L89.1716 42.8923L91.2551 42.876L84.9844 55.0626L82.8765 55.0789L85.9507 49.3179H85.9466Z" fill="#F8F7F8"/>
<path id="Vector_13" d="M98.1045 50.6878L98.0107 38.2239L100.669 38.2035C101.941 38.1954 102.948 38.3095 103.69 38.5501C104.485 38.7866 105.207 39.1943 105.855 39.7692C107.168 40.9312 107.837 42.4682 107.849 44.3804C107.865 46.2967 107.197 47.8501 105.843 49.0447C105.162 49.64 104.453 50.0599 103.702 50.2964C103.005 50.5329 102.015 50.6552 100.73 50.6674L98.1045 50.6878ZM100 48.9061L100.861 48.8979C101.717 48.8898 102.43 48.796 102.997 48.6166C103.564 48.425 104.078 48.1233 104.53 47.7115C105.464 46.8594 105.925 45.7544 105.916 44.4008C105.904 43.035 105.431 41.9301 104.498 41.0861C103.654 40.3318 102.418 39.9649 100.791 39.9771L99.9311 39.9853L100 48.9102V48.9061Z" fill="#F8F7F8"/>
<path id="Vector_14" d="M109.582 39.4705C109.582 39.1524 109.696 38.8793 109.929 38.6428C110.161 38.4104 110.442 38.2922 110.773 38.2881C111.107 38.2881 111.392 38.3982 111.629 38.6265C111.865 38.8507 111.988 39.128 111.988 39.4542C111.988 39.7844 111.873 40.0617 111.641 40.2981C111.413 40.5305 111.131 40.6488 110.797 40.6528C110.463 40.6528 110.177 40.5428 109.941 40.3104C109.704 40.082 109.586 39.8007 109.582 39.4664V39.4705ZM111.731 42.724L111.792 50.5848L109.945 50.5971L109.884 42.7363L111.731 42.724Z" fill="#F8F7F8"/>
<path id="Vector_15" d="M115.062 42.7003L117.162 47.0996L119.188 42.6677L121.263 42.6514L117.178 51.083L112.999 42.7125L115.066 42.6962L115.062 42.7003Z" fill="#F8F7F8"/>
<path id="Vector_16" d="M122.201 39.3777C122.201 39.0597 122.315 38.7865 122.548 38.55C122.78 38.3136 123.061 38.1994 123.392 38.1953C123.726 38.1953 124.011 38.3054 124.248 38.5337C124.484 38.758 124.607 39.0352 124.607 39.3614C124.607 39.6916 124.493 39.9689 124.26 40.2054C124.032 40.4378 123.751 40.556 123.416 40.5601C123.082 40.5601 122.796 40.45 122.56 40.2176C122.323 39.9893 122.205 39.7079 122.201 39.3736V39.3777ZM124.35 42.6313L124.411 50.4921L122.564 50.5043L122.503 42.6435L124.35 42.6313Z" fill="#F8F7F8"/>
<path id="Vector_17" d="M131.338 43.919L129.817 44.7304C129.573 44.2493 129.275 44.0087 128.916 44.0128C128.745 44.0128 128.602 44.0699 128.484 44.18C128.366 44.29 128.305 44.4327 128.309 44.604C128.309 44.9057 128.667 45.2033 129.381 45.4928C130.363 45.9005 131.024 46.2756 131.366 46.6263C131.709 46.9728 131.88 47.4417 131.884 48.0329C131.888 48.7912 131.611 49.4273 131.044 49.9451C130.494 50.4343 129.829 50.679 129.051 50.6871C127.709 50.6953 126.755 50.0633 126.188 48.779L127.758 48.0492C127.982 48.4243 128.15 48.6608 128.264 48.7627C128.488 48.9666 128.757 49.0644 129.071 49.0644C129.695 49.0603 130.005 48.779 130.001 48.2164C130.001 47.8943 129.756 47.5926 129.271 47.3194C129.083 47.2297 128.896 47.14 128.712 47.0584C128.525 46.9728 128.337 46.8872 128.141 46.7975C127.603 46.5447 127.224 46.2879 127.004 46.031C126.723 45.7048 126.58 45.2849 126.576 44.7671C126.572 44.0821 126.804 43.5154 127.277 43.0669C127.758 42.6184 128.349 42.3901 129.042 42.3819C130.066 42.3738 130.828 42.8875 131.334 43.9231L131.338 43.919Z" fill="#F8F7F8"/>
<path id="Vector_18" d="M139.39 42.5212L141.241 42.509L141.303 50.3698L139.452 50.382V49.5584C138.689 50.2637 137.874 50.6185 137.001 50.6266C135.896 50.6348 134.983 50.2474 134.253 49.4687C133.531 48.6736 133.165 47.6747 133.156 46.4761C133.148 45.2978 133.499 44.3111 134.208 43.5201C134.918 42.7291 135.815 42.3296 136.891 42.3214C137.821 42.3133 138.656 42.6843 139.403 43.4345L139.394 42.5212H139.39ZM135.04 46.4597C135.044 47.214 135.256 47.8256 135.668 48.2945C136.092 48.7715 136.626 49.008 137.266 48.9998C137.951 48.9957 138.497 48.7593 138.917 48.2945C139.333 47.8134 139.541 47.2018 139.537 46.4638C139.533 45.7259 139.317 45.1224 138.893 44.6454C138.469 44.1806 137.919 43.9523 137.246 43.9564C136.61 43.9604 136.084 44.201 135.66 44.678C135.244 45.1591 135.036 45.7544 135.04 46.4597Z" fill="#F8F7F8"/>
</g>
</g>
<defs>
<clipPath id="clip0_326_186">
<rect width="250" height="55.0295" fill="white" transform="translate(0 0.615234)"/>
</clipPath>
</defs>
</svg>
